{
.appVersion = "3091";
DisplayStrings = (
A
);
classes = (
{
code = "colon exclam period question semicolon quotedblleft quotedblright quoteleft quoteright questiondown exclamdown periodcentered ellipsis comma divide";
name = circular_punctuation;
},
{
code = "colon.ss01 exclam.ss01 period.ss01 question.ss01 semicolon.ss01 quotedblleft.ss01 quotedblright.ss01 quoteleft.ss01 quoteright.ss01 questiondown.ss01 exclamdown.ss01 periodcentered.ss01 ellipsis.ss01 comma.ss01 divide.ss01";
name = square_punctuation;
},
{
code = "a.old aacute abreve acircumflex adieresis agrave amacron aogonek aring atilde";
name = single_storey_a;
}
);
copyright = "Copyright 2021 The Albert Sans Project Authors (https://github.com/usted/Albert-Sans)";
customParameters = (
{
name = "Use Typo Metrics";
value = 1;
},
{
name = fsType;
value = (
);
},
{
name = "Variable Font Origin";
value = "24A19461-EE5C-48C0-A968-CC082199DAC2";
},
{
name = "Use Line Breaks";
value = 1;
},
{
name = license;
value = "This Font Software is licensed under the SIL Open Font License, Version 1.1. This license is available with a FAQ at: https://scripts.sil.org/OFL";
},
{
name = licenseURL;
value = "https://scripts.sil.org/OFL";
},
{
name = Axes;
value = (
{
Name = Weight;
Tag = wght;
}
);
}
);
date = "2021-08-03 19:15:46 +0000";
designer = "Andreas Rasmussen";
designerURL = "https://www.andreasrasmussen.net";
familyName = "Albert Sans";
fontMaster = (
{
ascender = 720;
capHeight = 700;
custom = Thin;
customParameters = (
{
name = typoAscender;
value = 950;
},
{
name = typoDescender;
value = -250;
},
{
name = typoLineGap;
value = 0;
},
{
name = winAscent;
value = 1100;
},
{
name = winDescent;
value = 320;
},
{
name = underlineThickness;
value = 50;
},
{
name = underlinePosition;
value = -100;
},
{
name = strikeoutPosition;
value = 300;
},
{
name = strikeoutSize;
value = 50;
},
{
name = subscriptXOffset;
value = 0;
},
{
name = subscriptXSize;
value = 650;
},
{
name = subscriptYOffset;
value = 75;
},
{

glyphs = (
{
glyphname = A;
lastChange = "2021-08-14 20:41:28 +0000";
layers = (
{
anchors = (
{
name = ogonek;
position = "{589, 0}";
},
{
name = top;
position = "{446, 700}";
}
);
hints = (
{
horizontal = 1;
place = "{174, 93}";
type = Stem;
},
{
horizontal = 1;
place = "{700, -20}";
target = down;
type = TopGhost;
},
{
horizontal = 1;
place = "{0, 21}";
target = up;
type = BottomGhost;
}
);
layerId = "24A19461-EE5C-48C0-A968-CC082199DAC2";
paths = (
{
closed = 1;
nodes = (
"78 0 LINE",
"173 174 LINE",
"510 174 LINE",
"536 0 LINE",
"655 0 LINE",
"546 700 LINE",
"347 700 LINE",
"-41 0 LINE"
);
},
{
closed = 1;
nodes = (
"496 267 LINE",
"224 267 LINE",
"409 607 LINE",
"446 607 LINE"
);
}
);
width = 713.181;
},
{
anchors = (
{
name = ogonek;
position = "{534, 0}";
},
{
name = top;
position = "{401, 697}";
}
);
hints = (
{
horizontal = 1;
place = "{4, 2}";
type = Stem;
},
{
horizontal = 1;
place = "{700, -20}";
target = down;
type = TopGhost;
},
{
horizontal = 1;
place = "{0, 21}";
target = up;
type = BottomGhost;
}
);
layerId = "F7832249-9EF4-4513-B883-88BAA20BF268";
paths = (
{
closed = 1;
nodes = (
"-14 0 LINE",
"108 210 LINE",
"497 210 LINE",
"535 0 LINE",
"560 0 LINE",
"433 700 LINE",
"368 700 LINE",
"-39 0 LINE"
);
},
{
closed = 1;
nodes = (
"494 230 LINE",
"119 230 LINE",
"381 681 LINE",
"413 681 LINE"
);
}
);
width = 620.52553;
},
{
anchors = (
{
name = ogonek;
position = "{668, 1}";
},
{
name = top;
position = "{492, 700}";
}
);
hints = (
{
horizontal = 1;
place = "{71, 96}";
type = Stem;
},
{
horizontal = 1;
place = "{375, 141}";
type = Stem;
},
{
horizontal = 1;
place = "{0, 21}";
target = up;
type = BottomGhost;
}
);
layerId = "9CDD62D3-67F3-4AC7-B192-D539276CE01F";
paths = (
{
closed = 1;
nodes = (
"140 0 LINE",
"218 145 LINE",
"546 145 LINE",
"566 0 LINE",
"752 0 LINE",
"636 700 LINE",
"350 700 LINE",
"-44 0 LINE"
);
},
{
closed = 1;
nodes = (
"527 280 LINE",
"291 280 LINE",
"441 559 LINE",
"488 559 LINE"
);
}
);
width = 806.69623;
}
);
leftMetricsKey = "=H*0.1";
rightMetricsKey = "=H*0.1";
unicode = 0041;
},
{
glyphname = Aogonek;
lastChange = "2021-08-13 16:01:27 +0000";
layers = (
{
anchors = (
{
name = _ogonek;
position = "{486, 0}";
}
);
components = (
{
alignment = -1;
name = A;
transform = "{1, 0, 0, 1, 0.002, 0}";
}
);
hints = (
{
horizontal = 1;
place = "{-213, 74}";
type = Stem;
}
);
layerId = "24A19461-EE5C-48C0-A968-CC082199DAC2";
paths = (
{
closed = 1;
nodes = (
"577 39 LINE SMOOTH",
"475 -5 OFFCURVE",
"432 -53 OFFCURVE",
"422 -104 CURVE SMOOTH",
"406 -184 OFFCURVE",
"470 -213 OFFCURVE",
"533 -213 CURVE SMOOTH",
"562 -213 OFFCURVE",
"593 -206 OFFCURVE",
"617 -197 CURVE",
"632 -125 LINE",
"607 -134 OFFCURVE",
"582 -139 OFFCURVE",
"563 -139 CURVE SMOOTH",
"529 -139 OFFCURVE",
"512 -120 OFFCURVE",
"517 -92 CURVE SMOOTH",
"522 -68 OFFCURVE",
"540 -47 OFFCURVE",
"588 -25 CURVE SMOOTH",
"642 0 LINE",
"623 58 LINE"
);
}
);
width = 714.94;
},
{
anchors = (
{
name = _ogonek;
position = "{430, 0}";
}
);
components = (
{
alignment = -1;
name = A;
transform = "{1, 0, 0, 1, 0.005, 0}";
}
);
hints = (
{
horizontal = 1;
place = "{-5, 2}";
type = Stem;
}
);
layerId = "F7832249-9EF4-4513-B883-88BAA20BF268";
paths = (
{
closed = 1;
nodes = (
"515 -15 LINE SMOOTH",
"447 -43 OFFCURVE",
"416 -77 OFFCURVE",
"408 -115 CURVE SMOOTH",
"398 -166 OFFCURVE",
"433 -189 OFFCURVE",
"484 -189 CURVE SMOOTH",
"504 -189 OFFCURVE",
"527 -185 OFFCURVE",
"549 -177 CURVE",
"553 -156 LINE",
"531 -164 OFFCURVE",
"508 -169 OFFCURVE",
"488 -169 CURVE SMOOTH",
"449 -169 OFFCURVE",
"422 -152 OFFCURVE",
"430 -114 CURVE SMOOTH",
"436 -85 OFFCURVE",
"459 -56 OFFCURVE",
"516 -33 CURVE SMOOTH",
"594 0 LINE",
"590 16 LINE"
);
}
);
width = 654.5234;
},
{
anchors = (
{
name = _ogonek;
position = "{709, 1}";
}
);
components = (
{
alignment = -1;
name = A;
transform = "{1, 0, 0, 1, 0.004, 0}";
}
);
hints = (
{
horizontal = 1;
place = "{-217, 99}";
type = Stem;
}
);
layerId = "9CDD62D3-67F3-4AC7-B192-D539276CE01F";
paths = (
{
closed = 1;
nodes = (
"624 69 LINE SMOOTH",
"484 15 OFFCURVE",
"437 -36 OFFCURVE",
"425 -98 CURVE SMOOTH",
"409 -178 OFFCURVE",
"466 -217 OFFCURVE",
"550 -217 CURVE SMOOTH",
"587 -217 OFFCURVE",
"622 -211 OFFCURVE",
"653 -201 CURVE",
"673 -103 LINE",
"642 -113 OFFCURVE",
"615 -118 OFFCURVE",
"594 -118 CURVE SMOOTH",
"566 -118 OFFCURVE",
"552 -105 OFFCURVE",
"556 -85 CURVE SMOOTH",
"560 -66 OFFCURVE",
"577 -46 OFFCURVE",
"636 -21 CURVE SMOOTH",
"687 0 LINE",
"667 85 LINE"
);
}
);
width = 807.05;
}
);
leftMetricsKey = A;
rightMetricsKey = A;
unicode = 0104;
},
{
glyphname = AE;
lastChange = "2021-08-13 16:01:44 +0000";
layers = (
{
hints = (
{
horizontal = 1;
place = "{0, 89}";
type = Stem;
},
{
horizontal = 1;
place = "{143, 89}";
type = Stem;
},
{
horizontal = 1;
place = "{310, 88}";
type = Stem;
},
{
horizontal = 1;
place = "{611, 89}";
type = Stem;
}
);
layerId = "24A19461-EE5C-48C0-A968-CC082199DAC2";
paths = (
{
closed = 1;
nodes = (
"127 143 LINE",
"500 143 LINE",
"518 232 LINE",
"195 232 LINE"
);
},
{
closed = 1;
nodes = (
"923 611 LINE",
"941 700 LINE",
"481 700 LINE",
"-41 0 LINE",
"83 0 LINE",
"542 621 LINE",
"419 0 LINE",
"802 0 LINE",
"819 89 LINE",
"550 89 LINE",
"594 310 LINE",
"833 310 LINE",
"851 398 LINE",
"612 398 LINE",
"654 611 LINE"
);
}
);
width = 916.23;
},
{
hints = (
{
horizontal = 1;
place = "{0, 2}";
type = Stem;
},
{
horizontal = 1;
place = "{3, 2}";
type = Stem;
},
{
horizontal = 1;
place = "{7, 2}";
type = Stem;
},
{
horizontal = 1;
place = "{13, 208}";
type = Stem;
}
);
layerId = "F7832249-9EF4-4513-B883-88BAA20BF268";
paths = (
{
closed = 1;
nodes = (
"126 192 LINE",
"440 192 LINE",
"444 211 LINE",
"137 211 LINE"
);
},
{
closed = 1;
nodes = (
"875 681 LINE",
"878 700 LINE",
"532 700 LINE",
"-39 0 LINE",
"-14 0 LINE",
"526 662 LINE",
"394 0 LINE",
"739 0 LINE",
"743 19 LINE",
"420 19 LINE",
"484 340 LINE",
"777 340 LINE",
"781 360 LINE",
"488 360 LINE",
"552 681 LINE"
);
}
);
width = 873.44021;
},
{
hints = (
{
horizontal = 1;
place = "{0, 140}";
type = Stem;
},
{
horizontal = 1;
place = "{116, 134}";
type = Stem;
},
{
horizontal = 1;
place = "{290, 133}";
type = Stem;
},
{
horizontal = 1;
place = "{561, 139}";
type = Stem;
}
);
layerId = "9CDD62D3-67F3-4AC7-B192-D539276CE01F";
paths = (
{
closed = 1;
nodes = (
"127 116 LINE",
"541 116 LINE",
"568 250 LINE",
"229 250 LINE"
);
},
{
closed = 1;
nodes = (
"973 561 LINE",
"1001 700 LINE",
"453 700 LINE",
"-44 0 LINE",
"147 0 LINE",
"546 569 LINE",
"433 0 LINE",
"862 0 LINE",
"890 140 LINE",
"637 140 LINE",
"667 290 LINE",
"890 290 LINE",
"916 424 LINE",
"694 424 LINE",
"721 561 LINE"
);
}
);
width = 945.40094;
}
);
leftMetricsKey = A;
rightMetricsKey = E;
unicode = 00C6;
},
{
glyphname = B;
lastChange = "2021-08-13 16:01:27 +0000";
layers = (
{
hints = (
{
horizontal = 1;
place = "{0, 93}";
type = Stem;
},
{
horizontal = 1;
place = "{308, 93}";
type = Stem;
},
{
horizontal = 1;
place = "{607, 93}";
type = Stem;
}
);
layerId = "24A19461-EE5C-48C0-A968-CC082199DAC2";
paths = (
{
closed = 1;
nodes = (
"537 439 OFFCURVE",
"484 401 OFFCURVE",
"410 401 CURVE SMOOTH",
"229 401 LINE",
"270 607 LINE",
"451 607 LINE SMOOTH",
"525 607 OFFCURVE",
"562 567 OFFCURVE",
"549 503 CURVE SMOOTH"
);
},
{
closed = 1;
nodes = (
"641 302 OFFCURVE",
"581 350 OFFCURVE",
"482 355 CURVE",
"482 356 LINE",
"568 367 OFFCURVE",
"648 414 OFFCURVE",
"668 517 CURVE SMOOTH",
"688 616 OFFCURVE",
"627 700 OFFCURVE",
"480 700 CURVE SMOOTH",
"175 700 LINE",
"35 0 LINE",
"353 0 LINE SMOOTH",
"495 0 OFFCURVE",
"597 80 OFFCURVE",
"618 187 CURVE SMOOTH"
);
},
{
closed = 1;
nodes = (
"493 131 OFFCURVE",
"439 93 OFFCURVE",
"362 93 CURVE SMOOTH",
"168 93 LINE",
"211 308 LINE",
"401 308 LINE SMOOTH",
"477 308 OFFCURVE",
"521 269 OFFCURVE",
"507 199 CURVE SMOOTH"
);
},
{
closed = 1;
nodes = (
"425 334 LINE",
"504 334 LINE",
"514 388 LINE",
"435 388 LINE"
);
}
);
width = 686.3066;
},
{
hints = (
{
horizontal = 1;
place = "{0, 2}";
type = Stem;
},
{
horizontal = 1;
place = "{7, 2}";
type = Stem;
},
{
horizontal = 1;
place = "{13, 2}";
type = Stem;
}
);
layerId = "F7832249-9EF4-4513-B883-88BAA20BF268";
paths = (
{
closed = 1;
nodes = (
"580 435 OFFCURVE",
"505 370 OFFCURVE",
"387 370 CURVE SMOOTH",
"150 370 LINE",
"212 681 LINE",
"443 681 LINE SMOOTH",
"574 681 OFFCURVE",
"616 615 OFFCURVE",
"598 528 CURVE SMOOTH"
);
},
{
closed = 1;
nodes = (
"589 292 OFFCURVE",
"519 360 OFFCURVE",
"422 360 CURVE",
"414 358 LINE",
"495 359 OFFCURVE",
"597 409 OFFCURVE",
"621 529 CURVE SMOOTH",
"640 624 OFFCURVE",
"594 700 OFFCURVE",
"447 700 CURVE SMOOTH",
"194 700 LINE",
"55 0 LINE",
"308 0 LINE SMOOTH",
"460 0 OFFCURVE",
"548 84 OFFCURVE",
"569 187 CURVE SMOOTH"
);
},
{
closed = 1;
nodes = (
"526 85 OFFCURVE",
"439 20 OFFCURVE",
"312 20 CURVE SMOOTH",
"81 20 LINE",
"146 350 LINE",
"376 350 LINE SMOOTH",
"503 350 OFFCURVE",
"567 288 OFFCURVE",
"547 187 CURVE SMOOTH"
);
},
{
closed = 1;
nodes = (
"364 354 LINE",
"453 354 LINE",
"456 367 LINE",
"367 367 LINE"
);
}
);
width = 650.10426;
},
{
hints = (
{
horizontal = 1;
place = "{0, 142}";
type = Stem;
},
{
horizontal = 1;
place = "{290, 133}";
type = Stem;
},
{
horizontal = 1;
place = "{559, 141}";
type = Stem;
}
);
layerId = "9CDD62D3-67F3-4AC7-B192-D539276CE01F";
paths = (
{
closed = 1;
nodes = (
"502 445 OFFCURVE",
"468 423 OFFCURVE",
"413 423 CURVE SMOOTH",
"264 423 LINE",
"291 559 LINE",
"440 559 LINE SMOOTH",
"495 559 OFFCURVE",
"520 536 OFFCURVE",
"511 490 CURVE SMOOTH"
);
},
{
closed = 1;
nodes = (
"667 291 OFFCURVE",
"612 352 OFFCURVE",
"500 357 CURVE",
"497 361 LINE",
"594 366 OFFCURVE",
"675 414 OFFCURVE",
"696 517 CURVE SMOOTH",
"718 629 OFFCURVE",
"647 700 OFFCURVE",
"503 700 CURVE SMOOTH",
"143 700 LINE",
"4 0 LINE",
"375 0 LINE SMOOTH",
"524 0 OFFCURVE",
"624 74 OFFCURVE",
"647 190 CURVE SMOOTH"
);
},
{
closed = 1;
nodes = (
"463 168 OFFCURVE",
"427 142 OFFCURVE",
"371 142 CURVE SMOOTH",
"208 142 LINE",
"237 290 LINE",
"399 290 LINE SMOOTH",
"454 290 OFFCURVE",
"482 263 OFFCURVE",
"473 215 CURVE SMOOTH"
);
},
{
closed = 1;
nodes = (
"443 332 LINE",
"517 332 LINE",
"528 387 LINE",
"454 387 LINE"
);
}
);
width = 693.83302;
}
);
leftMetricsKey = H;
rightMetricsKey = "=H*0.66";
unicode = 0042;
},
{
glyphname = C;
lastChange = "2021-08-13 16:01:46 +0000";
layers = (
{
anchors = (
{
name = bottom;
position = "{341.45, 0}";
},
{
name = top;
position = "{490.45, 709}";
}
);
hints = (
{
horizontal = 1;
place = "{-6, 100}";
type = Stem;
},
{
horizontal = 1;
place = "{608, 101}";
type = Stem;
}
);
layerId = "24A19461-EE5C-48C0-A968-CC082199DAC2";
paths = (
{
closed = 1;
nodes = (
"20.45 141 OFFCURVE",
"150.45 -6 OFFCURVE",
"346.45 -6 CURVE SMOOTH",
"486.45 -6 OFFCURVE",
"619.45 59 OFFCURVE",
"710.45 203 CURVE",
"617.45 239 LINE",
"543.45 130 OFFCURVE",
"446.45 93 OFFCURVE",
"365.45 93 CURVE SMOOTH",
"227.45 93 OFFCURVE",
"147.45 193 OFFCURVE",
"179.45 351 CURVE SMOOTH",
"210.45 509 OFFCURVE",
"330.45 608 OFFCURVE",
"468.45 608 CURVE SMOOTH",
"546.45 608 OFFCURVE",
"626.45 573 OFFCURVE",
"655.45 484 CURVE",
"764.45 521 LINE",
"730.45 643 OFFCURVE",
"624.45 709 OFFCURVE",
"488.45 709 CURVE SMOOTH",
"292.45 709 OFFCURVE",
"103.45 561 OFFCURVE",
"62.45 351 CURVE SMOOTH"
);
}
);
width = 776.26525;
},
{
anchors = (
{
name = bottom;
position = "{354, 0}";
},
{
name = top;
position = "{470, 700}";
}
);
hints = (
{
horizontal = 1;
place = "{0, 2}";
type = Stem;
},
{
horizontal = 1;
place = "{13, 2}";
type = Stem;
}
);
layerId = "F7832249-9EF4-4513-B883-88BAA20BF268";
paths = (
{
closed = 1;
nodes = (
"30 140 OFFCURVE",
"139 -7 OFFCURVE",
"330 -7 CURVE SMOOTH",
"496 -7 OFFCURVE",
"616 75 OFFCURVE",
"690 201 CURVE",
"673 208 LINE",
"609 97 OFFCURVE",
"490 11 OFFCURVE",
"334 13 CURVE SMOOTH",
"164 13 OFFCURVE",
"54 140 OFFCURVE",
"95 349 CURVE SMOOTH",
"137 560 OFFCURVE",
"299 687 OFFCURVE",
"468 687 CURVE SMOOTH",
"622 687 OFFCURVE",
"705 609 OFFCURVE",
"727 501 CURVE",
"747 508 LINE",
"721 629 OFFCURVE",
"634 707 OFFCURVE",
"472 707 CURVE SMOOTH",
"281 707 OFFCURVE",
"114 560 OFFCURVE",
"72 349 CURVE SMOOTH"
);
}
);
width = 769.18708;
},
{
anchors = (
{
name = bottom;
position = "{325, 1}";
},
{
name = top;
position = "{470, 705}";
}
);
hints = (
{
horizontal = 1;
place = "{-5, 159}";
type = Stem;
},
{
horizontal = 1;
place = "{548, 159}";
type = Stem;
}
);
layerId = "9CDD62D3-67F3-4AC7-B192-D539276CE01F";
paths = (
{
closed = 1;
nodes = (
"5 142 OFFCURVE",
"120 -5 OFFCURVE",
"328 -5 CURVE SMOOTH",
"490 -5 OFFCURVE",
"629 80 OFFCURVE",
"706 228 CURVE",
"548 265 LINE",
"491 178 OFFCURVE",
"420 154 OFFCURVE",
"357 154 CURVE SMOOTH",
"256 154 OFFCURVE",
"202 231 OFFCURVE",
"226 351 CURVE SMOOTH",
"250 471 OFFCURVE",
"334 548 OFFCURVE",
"436 548 CURVE SMOOTH",
"497 548 OFFCURVE",
"552 524 OFFCURVE",
"575 450 CURVE",
"752 488 LINE",
"732 624 OFFCURVE",
"628 707 OFFCURVE",
"470 707 CURVE SMOOTH",
"262 707 OFFCURVE",
"88 560 OFFCURVE",
"47 351 CURVE SMOOTH"
);
}
);
width = 746.36582;
}
);
leftMetricsKey = O;
rightMetricsKey = "=O*1.3333";
unicode = 0043;
},
{
glyphname = D;
lastChange = "2021-08-13 16:01:27 +0000";
layers = (
{
anchors = (
{
name = top;
position = "{444, 701}";
}
);
hints = (
{
horizontal = 1;
place = "{0, 93}";
type = Stem;
},
{
horizontal = 1;
place = "{607, 93}";
type = Stem;
}
);
layerId = "24A19461-EE5C-48C0-A968-CC082199DAC2";
paths = (
{
closed = 1;
nodes = (
"175 700 LINE",
"35 0 LINE",
"282 0 LINE SMOOTH",
"505 0 OFFCURVE",
"677 132 OFFCURVE",
"720 347 CURVE SMOOTH",
"763 563 OFFCURVE",
"645 700 OFFCURVE",
"422 700 CURVE SMOOTH"
);
},
{
closed = 1;
nodes = (
"168 93 LINE",
"270 607 LINE",
"403 607 LINE SMOOTH",
"567 607 OFFCURVE",
"635 507 OFFCURVE",
"603 347 CURVE SMOOTH",
"572 188 OFFCURVE",
"465 93 OFFCURVE",
"301 93 CURVE SMOOTH"
);
}
);
width = 742.965;
},
{
anchors = (
{
name = top;
position = "{426, 679}";
}
);
hints = (
{
horizontal = 1;
place = "{0, 2}";
type = Stem;
},
{
horizontal = 1;
place = "{13, 2}";
type = Stem;
}
);
layerId = "F7832249-9EF4-4513-B883-88BAA20BF268";
paths = (
{
closed = 1;
nodes = (
"194 700 LINE",
"55 0 LINE",
"261 0 LINE SMOOTH",
"505 0 OFFCURVE",
"658 129 OFFCURVE",
"702 350 CURVE SMOOTH",
"746 571 OFFCURVE",
"645 700 OFFCURVE",
"400 700 CURVE SMOOTH"
);
},
{
closed = 1;
nodes = (
"81 20 LINE",
"212 681 LINE",
"396 681 LINE SMOOTH",
"631 681 OFFCURVE",
"721 554 OFFCURVE",
"680 350 CURVE SMOOTH",
"640 146 OFFCURVE",
"499 20 OFFCURVE",
"265 20 CURVE SMOOTH"
);
}
);
width = 734.70128;
},
{
anchors = (
{
name = top;
position = "{430, 702}";
}
);
hints = (
{
horizontal = 1;
place = "{0, 153}";
type = Stem;
},
{
horizontal = 1;
place = "{549, 151}";
type = Stem;
}
);
layerId = "9CDD62D3-67F3-4AC7-B192-D539276CE01F";
paths = (
{
closed = 1;
nodes = (
"143 700 LINE",
"4 0 LINE",
"290 0 LINE SMOOTH",
"514 0 OFFCURVE",
"687 144 OFFCURVE",
"728 350 CURVE SMOOTH",
"769 558 OFFCURVE",
"654 700 OFFCURVE",
"429 700 CURVE SMOOTH"
);
},
{
closed = 1;
nodes = (
"210 153 LINE",
"289 549 LINE",
"387 549 LINE SMOOTH",
"514 549 OFFCURVE",
"574 476 OFFCURVE",
"549 350 CURVE SMOOTH",
"524 224 OFFCURVE",
"435 153 OFFCURVE",
"309 153 CURVE SMOOTH"
);
}
);
width = 734.58019;
}
);
leftMetricsKey = H;
rightMetricsKey = "=H*0.5";
unicode = 0044;
},
{
glyphname = Eth;
lastChange = "2021-08-13 16:01:27 +0000";
layers = (
{
hints = (
{
horizontal = 1;
place = "{0, 87}";
type = Stem;
},
{
horizontal = 1;
place = "{295, 105}";
type = Stem;
},
{
horizontal = 1;
place = "{608, 92}";
type = Stem;
}
);
layerId = "24A19461-EE5C-48C0-A968-CC082199DAC2";
paths = (
{
closed = 1;
nodes = (
"74 295 LINE",
"444 295 LINE",
"465 400 LINE",
"95 400 LINE"
);
},
{
closed = 1;
nodes = (
"232 700 LINE",
"92 0 LINE",
"320 0 LINE SMOOTH",
"543 0 OFFCURVE",
"714 132 OFFCURVE",
"757 347 CURVE SMOOTH",
"800 563 OFFCURVE",
"683 700 OFFCURVE",
"460 700 CURVE SMOOTH"
);
},
{
closed = 1;
nodes = (
"225 87 LINE",
"328 608 LINE",
"441 608 LINE SMOOTH",
"604 608 OFFCURVE",
"672 507 OFFCURVE",
"640 347 CURVE SMOOTH",
"609 188 OFFCURVE",
"500 86 OFFCURVE",
"338 87 CURVE SMOOTH"
);
}
);
width = 779.97;
},
{
hints = (
{
horizontal = 1;
place = "{0, 2}";
type = Stem;
},
{
horizontal = 1;
place = "{6, 2}";
type = Stem;
},
{
horizontal = 1;
place = "{13, 2}";
type = Stem;
}
);
layerId = "F7832249-9EF4-4513-B883-88BAA20BF268";
paths = (
{
closed = 1;
nodes = (
"102 340 LINE",
"471 340 LINE",
"474 360 LINE",
"106 360 LINE"
);
},
{
closed = 1;
nodes = (
"288 700 LINE",
"149 0 LINE",
"335 0 LINE SMOOTH",
"579 0 OFFCURVE",
"733 129 OFFCURVE",
"776 350 CURVE SMOOTH",
"820 571 OFFCURVE",
"719 700 OFFCURVE",
"474 700 CURVE SMOOTH"
);
},
{
closed = 1;
nodes = (
"175 19 LINE",
"306 681 LINE",
"470 681 LINE SMOOTH",
"705 681 OFFCURVE",
"795 554 OFFCURVE",
"754 350 CURVE SMOOTH",
"714 146 OFFCURVE",
"573 19 OFFCURVE",
"339 19 CURVE SMOOTH"
);
}
);
width = 808.88298;
},
{
hints = (
{
horizontal = 1;
place = "{0, 151}";
type = Stem;
},
{
horizontal = 1;
place = "{277, 146}";
type = Stem;
},
{
horizontal = 1;
place = "{549, 151}";
type = Stem;
}
);
layerId = "9CDD62D3-67F3-4AC7-B192-D539276CE01F";
paths = (
{
closed = 1;
nodes = (
"39 277 LINE",
"427 277 LINE",
"456 423 LINE",
"68 423 LINE"
);
},
{
closed = 1;
nodes = (
"184 700 LINE",
"45 0 LINE",
"312 0 LINE SMOOTH",
"536 0 OFFCURVE",
"708 144 OFFCURVE",
"749 350 CURVE SMOOTH",
"791 558 OFFCURVE",
"676 700 OFFCURVE",
"451 700 CURVE SMOOTH"
);
},
{
closed = 1;
nodes = (
"252 151 LINE",
"331 550 LINE",
"409 550 LINE SMOOTH",
"535 550 OFFCURVE",
"595 476 OFFCURVE",
"570 350 CURVE SMOOTH",
"545 224 OFFCURVE",
"456 150 OFFCURVE",
"330 151 CURVE SMOOTH"
);
}
);
width = 756.04245;
}
);
leftMetricsKey = "=D-20";
rightMetricsKey = D;
unicode = 00D0;
},
{
glyphname = E;
lastChange = "2021-08-13 16:01:27 +0000";
layers = (
{
anchors = (
{
name = bottom;
position = "{262, 0}";
},
{
name = ogonek;
position = "{459, 0}";
},
{
name = top;
position = "{411, 701}";
}
);
hints = (
{
horizontal = 1;
place = "{0, 93}";
type = Stem;
},
{
horizontal = 1;
place = "{308, 93}";
type = Stem;
},
{
horizontal = 1;
place = "{607, 93}";
type = Stem;
}
);
layerId = "24A19461-EE5C-48C0-A968-CC082199DAC2";
paths = (
{
closed = 1;
nodes = (
"649 700 LINE",
"175 700 LINE",
"35 0 LINE",
"509 0 LINE",
"528 93 LINE",
"168 93 LINE",
"211 308 LINE",
"481 308 LINE",
"499 401 LINE",
"229 401 LINE",
"270 607 LINE",
"630 607 LINE"
);
}
);
width = 624.01;
},
{
anchors = (
{
name = bottom;
position = "{244, 0}";
},
{
name = ogonek;
position = "{440, 0}";
},
{
name = top;
position = "{409, 690}";
}
);
hints = (
{
horizontal = 1;
place = "{0, 2}";
type = Stem;
},
{
horizontal = 1;
place = "{7, 2}";
type = Stem;
},
{
horizontal = 1;
place = "{13, 2}";
type = Stem;
}
);
layerId = "F7832249-9EF4-4513-B883-88BAA20BF268";
paths = (
{
closed = 1;
nodes = (
"629 700 LINE",
"194 700 LINE",
"55 0 LINE",
"490 0 LINE",
"494 20 LINE",
"81 20 LINE",
"147 350 LINE",
"469 350 LINE",
"473 370 LINE",
"150 370 LINE",
"212 681 LINE",
"625 681 LINE"
);
}
);
width = 624.01;
},
{
anchors = (
{
name = bottom;
position = "{257, 1}";
},
{
name = ogonek;
position = "{478, 1}";
},
{
name = top;
position = "{400, 702}";
}
);
hints = (
{
horizontal = 1;
place = "{0, 141}";
type = Stem;
},
{
horizontal = 1;
place = "{286, 141}";
type = Stem;
},
{
horizontal = 1;
place = "{559, 141}";
type = Stem;
}
);
layerId = "9CDD62D3-67F3-4AC7-B192-D539276CE01F";
paths = (
{
closed = 1;
nodes = (
"668 700 LINE",
"143 700 LINE",
"4 0 LINE",
"528 0 LINE",
"556 141 LINE",
"208 141 LINE",
"237 286 LINE",
"484 286 LINE",
"512 428 LINE",
"265 428 LINE",
"291 559 LINE",
"639 559 LINE"
);
}
);
width = 612.00962;
}
);
leftMetricsKey = H;
rightMetricsKey = "=H-20";
unicode = 0045;
},
{
glyphname = F;
lastChange = "2021-08-13 16:01:27 +0000";
layers = (
{
hints = (
{
horizontal = 1;
place = "{607, 93}";
type = Stem;
},
{
horizontal = 1;
place = "{306, 93}";
type = Stem;
},
{
horizontal = 1;
place = "{0, 21}";
target = up;
type = BottomGhost;
}
);
layerId = "24A19461-EE5C-48C0-A968-CC082199DAC2";
paths = (
{
closed = 1;
nodes = (
"35 0 LINE",
"149 0 LINE",
"210 306 LINE",
"498 306 LINE",
"516 399 LINE",
"229 400 LINE",
"270 607 LINE",
"645 607 LINE",
"664 700 LINE",
"175 700 LINE"
);
}
);
width = 617.29;
},
{
hints = (
{
horizontal = 1;
place = "{13, 2}";
type = Stem;
},
{
horizontal = 1;
place = "{7, 2}";
type = Stem;
},
{
horizontal = 1;
place = "{0, 21}";
target = up;
type = BottomGhost;
}
);
layerId = "F7832249-9EF4-4513-B883-88BAA20BF268";
paths = (
{
closed = 1;
nodes = (
"55 0 LINE",
"77 0 LINE",
"145 340 LINE",
"458 340 LINE",
"462 360 LINE",
"148 360 LINE",
"212 681 LINE",
"616 681 LINE",
"619 700 LINE",
"194 700 LINE"
);
}
);
width = 586.28404;
},
{
hints = (
{
horizontal = 1;
place = "{281, 136}";
type = Stem;
},
{
horizontal = 1;
place = "{559, 141}";
type = Stem;
},
{
horizontal = 1;
place = "{0, 21}";
target = up;
type = BottomGhost;
}
);
layerId = "9CDD62D3-67F3-4AC7-B192-D539276CE01F";
paths = (
{
closed = 1;
nodes = (
"4 0 LINE",
"180 0 LINE",
"236 281 LINE",
"499 281 LINE",
"526 417 LINE",
"263 417 LINE",
"291 559 LINE",
"656 559 LINE",
"684 700 LINE",
"143 700 LINE"
);
}
);
width = 616.92745;
}
);
leftMetricsKey = H;
rightMetricsKey = "=E*0.666";
unicode = 0046;
},
{
glyphname = G;
lastChange = "2021-08-13 16:01:42 +0000";
layers = (
{
anchors = (
{
name = bottom;
position = "{341.45, 0}";
},
{
name = top;
position = "{480.45, 701}";
}
);
hints = (
{
horizontal = 1;
place = "{-6, 103}";
type = Stem;
},
{
horizontal = 1;
place = "{292, 91}";
type = Stem;
},
{
horizontal = 1;
place = "{604, 104}";
type = Stem;
}
);
layerId = "24A19461-EE5C-48C0-A968-CC082199DAC2";
paths = (
{
closed = 1;
nodes = (
"762.45 521 LINE",
"732.45 642 OFFCURVE",
"621.45 708 OFFCURVE",
"488.45 708 CURVE SMOOTH",
"292.45 708 OFFCURVE",
"103.45 560 OFFCURVE",
"62.45 351 CURVE SMOOTH",
"20.45 141 OFFCURVE",
"150.45 -6 OFFCURVE",
"346.45 -6 CURVE SMOOTH",
"502.45 -6 OFFCURVE",
"641.45 90 OFFCURVE",
"714.45 215 CURVE",
"747.45 383 LINE",
"427.45 383 LINE",
"409.45 292 LINE",
"607.45 292 LINE",
"593.45 220 LINE",
"543.45 144 OFFCURVE",
"464.45 97 OFFCURVE",
"366.45 97 CURVE SMOOTH",
"228.45 97 OFFCURVE",
"148.45 197 OFFCURVE",
"179.45 351 CURVE SMOOTH",
"209.45 505 OFFCURVE",
"329.45 604 OFFCURVE",
"467.45 604 CURVE SMOOTH",
"548.45 604 OFFCURVE",
"626.45 563 OFFCURVE",
"650.45 482 CURVE"
);
}
);
width = 771.96;
},
{
anchors = (
{
name = bottom;
position = "{354, 0}";
},
{
name = top;
position = "{489, 679}";
}
);
hints = (
{
horizontal = 1;
place = "{0, 2}";
type = Stem;
},
{
horizontal = 1;
place = "{6, 2}";
type = Stem;
},
{
horizontal = 1;
place = "{13, 2}";
type = Stem;
}
);
layerId = "F7832249-9EF4-4513-B883-88BAA20BF268";
paths = (
{
closed = 1;
nodes = (
"747 508 LINE",
"720 628 OFFCURVE",
"628 706 OFFCURVE",
"479 706 CURVE SMOOTH",
"283 706 OFFCURVE",
"114 559 OFFCURVE",
"72 349 CURVE SMOOTH",
"30 139 OFFCURVE",
"141 -8 OFFCURVE",
"337 -8 CURVE SMOOTH",
"497 -8 OFFCURVE",
"639 90 OFFCURVE",
"709 239 CURVE",
"732 358 LINE",
"410 358 LINE",
"406 338 LINE",
"707 338 LINE",
"688 241 LINE",
"620 97 OFFCURVE",
"483 12 OFFCURVE",
"341 12 CURVE SMOOTH",
"167 12 OFFCURVE",
"53 140 OFFCURVE",
"95 349 CURVE SMOOTH",
"137 559 OFFCURVE",
"301 686 OFFCURVE",
"475 686 CURVE SMOOTH",
"616 686 OFFCURVE",
"704 608 OFFCURVE",
"726 501 CURVE"
);
}
);
width = 773.56702;
},
{
anchors = (
{
name = bottom;
position = "{325, 1}";
},
{
name = top;
position = "{464, 702}";
}
);
hints = (
{
horizontal = 1;
place = "{-5, 156}";
type = Stem;
},
{
horizontal = 1;
place = "{267, 128}";
type = Stem;
},
{
horizontal = 1;
place = "{545, 162}";
type = Stem;
}
);
layerId = "9CDD62D3-67F3-4AC7-B192-D539276CE01F";
paths = (
{
closed = 1;
nodes = (
"752 509 LINE",
"733 633 OFFCURVE",
"629 708 OFFCURVE",
"474 708 CURVE SMOOTH",
"263 708 OFFCURVE",
"88 560 OFFCURVE",
"47 351 CURVE SMOOTH",
"5 142 OFFCURVE",
"122 -5 OFFCURVE",
"334 -5 CURVE SMOOTH",
"505 -5 OFFCURVE",
"634 96 OFFCURVE",
"703 198 CURVE",
"742 396 LINE",
"414 396 LINE",
"389 267 LINE",
"559 267 LINE",
"553 238 LINE",
"509 181 OFFCURVE",
"449 150 OFFCURVE",
"379 150 CURVE SMOOTH",
"257 150 OFFCURVE",
"201 224 OFFCURVE",
"226 351 CURVE SMOOTH",
"249 469 OFFCURVE",
"335 546 OFFCURVE",
"443 546 CURVE SMOOTH",
"503 546 OFFCURVE",
"553 519 OFFCURVE",
"570 470 CURVE"
);
}
);
width = 745.73309;
}
);
leftMetricsKey = O;
rightMetricsKey = "=O*1.2";
unicode = 0047;
},
{
glyphname = Gcommaaccent;
lastChange = "2021-08-13 16:04:09 +0000";
layers = (
{
anchors = (
{
name = _bottom;
position = "{386, 0}";
}
);
components = (
{
alignment = -1;
name = G;
}
);
hints = (
{
horizontal = 1;
place = "{-143, 96}";
type = Stem;
},
{
horizontal = 1;
place = "{-272, 21}";
target = up;
type = BottomGhost;
}
);
layerId = "24A19461-EE5C-48C0-A968-CC082199DAC2";
paths = (
{
closed = 1;
nodes = (
"323 -47 LINE",
"304 -143 LINE",
"356 -143 LINE",
"352 -165 LINE SMOOTH",
"345 -203 OFFCURVE",
"326 -222 OFFCURVE",
"292 -222 CURVE",
"282 -272 LINE",
"356 -272 OFFCURVE",
"403 -230 OFFCURVE",
"420 -146 CURVE SMOOTH",
"426 -117 OFFCURVE",
"427 -84 OFFCURVE",
"426 -47 CURVE"
);
}
);
width = 771.96;
},
{
anchors = (
{
name = _bottom;
position = "{394, -8}";
}
);
components = (
{
alignment = -1;
name = G;
}
);
hints = (
{
horizontal = 1;
place = "{-3, 2}";
type = Stem;
},
{
horizontal = 1;
place = "{-177, 21}";
target = up;
type = BottomGhost;
}
);
layerId = "F7832249-9EF4-4513-B883-88BAA20BF268";
paths = (
{
closed = 1;
nodes = (
"364 -58 LINE",
"357 -97 LINE",
"388 -97 LINE",
"387 -105 LINE SMOOTH",
"380 -138 OFFCURVE",
"365 -158 OFFCURVE",
"333 -158 CURVE",
"329 -177 LINE",
"366 -177 OFFCURVE",
"398 -162 OFFCURVE",
"412 -91 CURVE SMOOTH",
"414 -81 OFFCURVE",
"416 -68 OFFCURVE",
"417 -58 CURVE"
);
}
);
width = 773.56702;
},
{
anchors = (
{
name = _bottom;
position = "{381, 1}";
}
);
components = (
{
alignment = -1;
name = G;
}
);
hints = (
{
horizontal = 1;
place = "{-196, 45}";
type = Stem;
},
{
horizontal = 1;
place = "{-164, 125}";
type = Stem;
}
);
layerId = "9CDD62D3-67F3-4AC7-B192-D539276CE01F";
paths = (
{
closed = 1;
nodes = (
"305 -38 LINE",
"280 -164 LINE",
"344 -164 LINE",
"341 -178 LINE SMOOTH",
"332 -224 OFFCURVE",
"310 -245 OFFCURVE",
"275 -245 CURVE",
"262 -312 LINE",
"359 -312 OFFCURVE",
"418 -248 OFFCURVE",
"435 -158 CURVE SMOOTH",
"443 -121 OFFCURVE",
"444 -81 OFFCURVE",
"438 -38 CURVE"
);
}
);
width = 745.73509;
}
);
leftMetricsKey = G;
rightMetricsKey = G;
unicode = 0122;
},
{
glyphname = H;
lastChange = "2021-08-13 16:01:22 +0000";
layers = (
{
guideLines = (
{
position = "{-49.73, 699.66}";
}
);
hints = (
{
horizontal = 1;
place = "{306, 93}";
type = Stem;
},
{
horizontal = 1;
place = "{0, 21}";
target = up;
type = BottomGhost;
},
{
horizontal = 1;
place = "{700, -20}";
target = down;
type = TopGhost;
}
);
layerId = "24A19461-EE5C-48C0-A968-CC082199DAC2";
paths = (
{
closed = 1;
nodes = (
"35 0 LINE",
"149 0 LINE",
"289 700 LINE",
"175 700 LINE"
);
},
{
closed = 1;
nodes = (
"476 0 LINE",
"590 0 LINE",
"730 700 LINE",
"616 700 LINE"
);
},
{
closed = 1;
nodes = (
"190 306 LINE",
"564 306 LINE",
"583 399 LINE",
"209 399 LINE"
);
}
);
width = 725;
},
{
hints = (
{
horizontal = 1;
place = "{7, 2}";
type = Stem;
},
{
horizontal = 1;
place = "{0, 21}";
target = up;
type = BottomGhost;
},
{
horizontal = 1;
place = "{700, -20}";
target = down;
type = TopGhost;
}
);
layerId = "F7832249-9EF4-4513-B883-88BAA20BF268";
paths = (
{
closed = 1;
nodes = (
"55 0 LINE",
"77 0 LINE",
"216 700 LINE",
"194 700 LINE"
);
},
{
closed = 1;
nodes = (
"513 0 LINE",
"535 0 LINE",
"675 700 LINE",
"653 700 LINE"
);
},
{
closed = 1;
nodes = (
"136 350 LINE",
"595 350 LINE",
"599 370 LINE",
"140 370 LINE"
);
}
);
width = 689.76596;
},
{
hints = (
{
horizontal = 1;
place = "{286, 141}";
type = Stem;
},
{
horizontal = 1;
place = "{0, 21}";
target = up;
type = BottomGhost;
},
{
horizontal = 1;
place = "{700, -20}";
target = down;
type = TopGhost;
}
);
layerId = "9CDD62D3-67F3-4AC7-B192-D539276CE01F";
paths = (
{
closed = 1;
nodes = (
"4 0 LINE",
"180 0 LINE",
"319 700 LINE",
"143 700 LINE"
);
},
{
closed = 1;
nodes = (
"440 0 LINE",
"616 0 LINE",
"755 700 LINE",
"579 700 LINE"
);
},
{
closed = 1;
nodes = (
"217 286 LINE",
"521 286 LINE",
"549 428 LINE",
"245 428 LINE"
);
}
);
width = 719.24528;
}
);
unicode = 0048;
},
{
glyphname = I;
lastChange = "2021-08-13 16:01:28 +0000";
layers = (
{
anchors = (
{
name = ogonek;
position = "{149, 1}";
},
{
name = top;
position = "{231, 701}";
}
);
hints = (
{
horizontal = 1;
place = "{0, 21}";
target = up;
type = BottomGhost;
},
{
horizontal = 1;
place = "{700, -20}";
target = down;
type = TopGhost;
}
);
layerId = "24A19461-EE5C-48C0-A968-CC082199DAC2";
paths = (
{
closed = 1;
nodes = (
"35 0 LINE",
"149 0 LINE",
"289 700 LINE",
"175 700 LINE"
);
}
);
width = 284.01;
},
{
anchors = (
{
name = ogonek;
position = "{77, 0}";
},
{
name = top;
position = "{201, 679}";
}
);
hints = (
{
horizontal = 1;
place = "{0, 21}";
target = up;
type = BottomGhost;
},
{
horizontal = 1;
place = "{700, -20}";
target = down;
type = TopGhost;
}
);
layerId = "F7832249-9EF4-4513-B883-88BAA20BF268";
paths = (
{
closed = 1;
nodes = (
"55 0 LINE",
"77 0 LINE",
"216 700 LINE",
"194 700 LINE"
);
}
);
width = 231.15894;
},
{
anchors = (
{
name = ogonek;
position = "{180, 1}";
},
{
name = top;
position = "{232, 702}";
}
);
hints = (
{
horizontal = 1;
place = "{0, 21}";
target = up;
type = BottomGhost;
},
{
horizontal = 1;
place = "{700, -20}";
target = down;
type = TopGhost;
}
);
layerId = "9CDD62D3-67F3-4AC7-B192-D539276CE01F";
paths = (
{
closed = 1;
nodes = (
"4 0 LINE",
"180 0 LINE",
"319 700 LINE",
"143 700 LINE"
);
}
);
width = 282.85906;
}
);
leftMetricsKey = H;
rightMetricsKey = H;
unicode = 0049;
},
{
glyphname = J;
lastChange = "2021-08-13 16:01:49 +0000";
layers = (
{
hints = (
{
horizontal = 1;
place = "{-7, 102}";
type = Stem;
},
{
horizontal = 1;
place = "{700, -20}";
target = down;
type = TopGhost;
}
);
layerId = "24A19461-EE5C-48C0-A968-CC082199DAC2";
paths = (
{
closed = 1;
nodes = (
"332.452 200 LINE SMOOTH",
"320.452 142 OFFCURVE",
"277.452 94 OFFCURVE",
"216.452 94 CURVE SMOOTH",
"166.452 94 OFFCURVE",
"143.452 122 OFFCURVE",
"138.452 164 CURVE",
"31.452 127 LINE",
"41.452 42 OFFCURVE",
"99.452 -7 OFFCURVE",
"196.452 -7 CURVE SMOOTH",
"316.452 -7 OFFCURVE",
"422.452 73 OFFCURVE",
"447.452 200 CURVE SMOOTH",
"546.452 700 LINE",
"431.452 700 LINE"
);
}
);
width = 538.2018;
},
{
hints = (
{
horizontal = 1;
place = "{95, 23}";
type = Stem;
},
{
horizontal = 1;
place = "{700, -20}";
target = down;
type = TopGhost;
}
);
layerId = "F7832249-9EF4-4513-B883-88BAA20BF268";
paths = (
{
closed = 1;
nodes = (
"347 155 LINE SMOOTH",
"335 97 OFFCURVE",
"288 13 OFFCURVE",
"183 13 CURVE SMOOTH",
"90 13 OFFCURVE",
"66 72 OFFCURVE",
"69 143 CURVE",
"46 136 LINE",
"44 47 OFFCURVE",
"87 -7 OFFCURVE",
"180 -7 CURVE SMOOTH",
"281 -7 OFFCURVE",
"352 72 OFFCURVE",
"369 155 CURVE SMOOTH",
"477 700 LINE",
"455 700 LINE"
);
}
);
width = 487.19085;
},
{
hints = (
{
horizontal = 1;
place = "{-6, 157}";
type = Stem;
},
{
horizontal = 1;
place = "{700, -20}";
target = down;
type = TopGhost;
}
);
layerId = "9CDD62D3-67F3-4AC7-B192-D539276CE01F";
paths = (
{
closed = 1;
nodes = (
"330 228 LINE SMOOTH",
"319 177 OFFCURVE",
"286 150 OFFCURVE",
"246 150 CURVE SMOOTH",
"211 150 OFFCURVE",
"191 168 OFFCURVE",
"189 209 CURVE",
"20 173 LINE",
"22 55 OFFCURVE",
"96 -6 OFFCURVE",
"221 -6 CURVE SMOOTH",
"361 -6 OFFCURVE",
"475 76 OFFCURVE",
"506 228 CURVE SMOOTH",
"599 700 LINE",
"423 700 LINE"
);
}
);
width = 561.22943;
}
);
leftMetricsKey = "=H*0.66";
rightMetricsKey = U;
unicode = 004A;
},
{
glyphname = K;
lastChange = "2021-08-13 16:01:28 +0000";
layers = (
{
anchors = (
{
name = bottom;
position = "{277, 0}";
},
{
name = top;
position = "{416, 701}";
}
);
hints = (
{
horizontal = 1;
place = "{0, 21}";
target = up;
type = BottomGhost;
},
{
horizontal = 1;
place = "{700, -20}";
target = down;
type = TopGhost;
}
);
layerId = "24A19461-EE5C-48C0-A968-CC082199DAC2";
paths = (
{
closed = 1;
nodes = (
"35 0 LINE",
"149 0 LINE",
"289 700 LINE",
"175 700 LINE"
);
},
{
closed = 1;
nodes = (
"361 356 LINE",
"731 700 LINE",
"588 700 LINE",
"221 353 LINE",
"448 0 LINE",
"597 0 LINE"
);
},
{
closed = 1;
nodes = (
"190 306 LINE",
"334 306 LINE",
"353 399 LINE",
"209 399 LINE"
);
}
);
width = 659.28;
},
{
anchors = (
{
name = bottom;
position = "{226, 0}";
},
{
name = top;
position = "{361, 679}";
}
);
hints = (
{
horizontal = 1;
place = "{0, 21}";
target = up;
type = BottomGhost;
},
{
horizontal = 1;
place = "{700, -20}";
target = down;
type = TopGhost;
}
);
layerId = "F7832249-9EF4-4513-B883-88BAA20BF268";
paths = (
{
closed = 1;
nodes = (
"55 0 LINE",
"77 0 LINE",
"216 700 LINE",
"194 700 LINE"
);
},
{
closed = 1;
nodes = (
"193 361 LINE",
"616 700 LINE",
"587 700 LINE",
"163 360 LINE",
"447 0 LINE",
"477 0 LINE"
);
},
{
closed = 1;
nodes = (
"136 350 LINE",
"189 350 LINE",
"193 370 LINE",
"140 370 LINE"
);
}
);
width = 542.30298;
},
{
anchors = (
{
name = bottom;
position = "{293, 1}";
},
{
name = top;
position = "{432, 702}";
}
);
hints = (
{
horizontal = 1;
place = "{0, 21}";
target = up;
type = BottomGhost;
},
{
horizontal = 1;
place = "{700, -20}";
target = down;
type = TopGhost;
}
);
layerId = "9CDD62D3-67F3-4AC7-B192-D539276CE01F";
paths = (
{
closed = 1;
nodes = (
"4 0 LINE",
"180 0 LINE",
"319 700 LINE",
"143 700 LINE"
);
},
{
closed = 1;
nodes = (
"449 361 LINE",
"786 700 LINE",
"581 700 LINE",
"248 354 LINE",
"443 0 LINE",
"658 0 LINE"
);
},
{
closed = 1;
nodes = (
"217 286 LINE",
"389 286 LINE",
"417 428 LINE",
"245 428 LINE"
);
}
);
width = 716.09632;
}
);
leftMetricsKey = H;
rightMetricsKey = "=H*0.15";
unicode = 004B;
},
{
glyphname = Kcommaaccent;
lastChange = "2021-08-13 16:01:28 +0000";
layers = (
{
anchors = (
{
name = _bottom;
position = "{317, 0}";
}
);
components = (
{
alignment = -1;
name = K;
}
);
hints = (
{
horizontal = 1;
place = "{-143, 96}";
type = Stem;
},
{
horizontal = 1;
place = "{-272, 21}";
target = up;
type = BottomGhost;
}
);
layerId = "24A19461-EE5C-48C0-A968-CC082199DAC2";
paths = (
{
closed = 1;
nodes = (
"253 -47 LINE",
"234 -143 LINE",
"286 -143 LINE",
"282 -165 LINE SMOOTH",
"275 -203 OFFCURVE",
"256 -222 OFFCURVE",
"223 -222 CURVE",
"213 -272 LINE",
"287 -272 OFFCURVE",
"333 -230 OFFCURVE",
"350 -146 CURVE SMOOTH",
"356 -117 OFFCURVE",
"358 -84 OFFCURVE",
"356 -47 CURVE"
);
}
);
width = 659.28;
},
{
anchors = (
{
name = _bottom;
position = "{243, 0}";
}
);
components = (
{
alignment = -1;
name = K;
}
);
hints = (
{
horizontal = 1;
place = "{-3, 2}";
type = Stem;
},
{
horizontal = 1;
place = "{-177, 21}";
target = up;
type = BottomGhost;
}
);
layerId = "F7832249-9EF4-4513-B883-88BAA20BF268";
paths = (
{
closed = 1;
nodes = (
"206 -58 LINE",
"199 -97 LINE",
"230 -97 LINE",
"229 -105 LINE SMOOTH",
"222 -138 OFFCURVE",
"207 -158 OFFCURVE",
"175 -158 CURVE",
"171 -177 LINE",
"208 -177 OFFCURVE",
"240 -162 OFFCURVE",
"254 -91 CURVE SMOOTH",
"256 -81 OFFCURVE",
"258 -68 OFFCURVE",
"258 -58 CURVE"
);
}
);
width = 542.30298;
},
{
anchors = (
{
name = _bottom;
position = "{364, 1}";
}
);
components = (
{
alignment = -1;
name = K;
}
);
hints = (
{
horizontal = 1;
place = "{-164, 125}";
type = Stem;
},
{
horizontal = 1;
place = "{-312, 21}";
target = up;
type = BottomGhost;
}
);
layerId = "9CDD62D3-67F3-4AC7-B192-D539276CE01F";
paths = (
{
closed = 1;
nodes = (
"287 -38 LINE",
"262 -164 LINE",
"326 -164 LINE",
"323 -178 LINE SMOOTH",
"314 -224 OFFCURVE",
"292 -245 OFFCURVE",
"258 -245 CURVE",
"245 -312 LINE",
"341 -312 OFFCURVE",
"399 -248 OFFCURVE",
"417 -158 CURVE SMOOTH",
"424 -121 OFFCURVE",
"427 -81 OFFCURVE",
"421 -38 CURVE"
);
}
);
width = 716.09632;
}
);
leftMetricsKey = H;
rightMetricsKey = K;
unicode = 0136;
},
{
glyphname = L;
lastChange = "2021-08-13 16:01:28 +0000";
layers = (
{
anchors = (
{
name = bottom;
position = "{208, 0}";
},
{
name = commaaccent;
position = "{210, 10}";
},
{
name = top;
position = "{321, 701}";
},
{
name = topright;
position = "{523, 701}";
}
);
hints = (
{
horizontal = 1;
place = "{0, 92}";
type = Stem;
},
{
horizontal = 1;
place = "{700, -20}";
target = down;
type = TopGhost;
}
);
layerId = "24A19461-EE5C-48C0-A968-CC082199DAC2";
paths = (
{
closed = 1;
nodes = (
"175 700 LINE",
"35 0 LINE",
"464 0 LINE",
"483 92 LINE",
"168 92 LINE",
"289 700 LINE"
);
}
);
width = 542.315;
},
{
anchors = (
{
name = bottom;
position = "{191, 0}";
},
{
name = commaaccent;
position = "{193, 10}";
},
{
name = top;
position = "{308, 679}";
},
{
name = topright;
position = "{481, 679}";
}
);
hints = (
{
horizontal = 1;
place = "{0, 2}";
type = Stem;
},
{
horizontal = 1;
place = "{700, -20}";
target = down;
type = TopGhost;
}
);
layerId = "F7832249-9EF4-4513-B883-88BAA20BF268";
paths = (
{
closed = 1;
nodes = (
"194 700 LINE",
"55 0 LINE",
"426 0 LINE",
"430 20 LINE",
"81 20 LINE",
"216 700 LINE"
);
}
);
width = 510.6533;
},
{
anchors = (
{
name = bottom;
position = "{201, 1}";
},
{
name = commaaccent;
position = "{203, 11}";
},
{
name = top;
position = "{310, 702}";
},
{
name = topright;
position = "{531, 702}";
}
);
hints = (
{
horizontal = 1;
place = "{0, 136}";
type = Stem;
},
{
horizontal = 1;
place = "{700, -20}";
target = down;
type = TopGhost;
}
);
layerId = "9CDD62D3-67F3-4AC7-B192-D539276CE01F";
paths = (
{
closed = 1;
nodes = (
"143 700 LINE",
"4 0 LINE",
"483 0 LINE",
"510 136 LINE",
"207 136 LINE",
"319 700 LINE"
);
}
);
width = 550.19033;
}
);
leftMetricsKey = H;
rightMetricsKey = "=H*0.333";
unicode = 004C;
},
{
glyphname = Lcaron;
lastChange = "2021-08-13 16:01:28 +0000";
layers = (
{
anchors = (
{
name = _bottom;
position = "{500, 746}";
}
);
components = (
{
alignment = -1;
name = L;
}
);
hints = (
{
horizontal = 1;
place = "{603, 96}";
type = Stem;
},
{
horizontal = 1;
place = "{474, 21}";
target = up;
type = BottomGhost;
}
);
layerId = "24A19461-EE5C-48C0-A968-CC082199DAC2";
paths = (
{
closed = 1;
nodes = (
"436 699 LINE",
"417 603 LINE",
"470 603 LINE",
"466 582 LINE SMOOTH",
"458 543 OFFCURVE",
"439 524 OFFCURVE",
"406 524 CURVE",
"396 474 LINE",
"470 474 OFFCURVE",
"517 517 OFFCURVE",
"533 600 CURVE SMOOTH",
"539 629 OFFCURVE",
"542 662 OFFCURVE",
"539 699 CURVE"
);
}
);
width = 542.32;
},
{
anchors = (
{
name = _bottom;
position = "{407, 736}";
}
);
components = (
{
alignment = -1;
name = L;
}
);
hints = (
{
horizontal = 1;
place = "{555, 22}";
type = Stem;
},
{
horizontal = 1;
place = "{10, 21}";
target = up;
type = BottomGhost;
}
);
layerId = "F7832249-9EF4-4513-B883-88BAA20BF268";
paths = (
{
closed = 1;
nodes = (
"373 700 LINE",
"362 646 LINE",
"400 646 LINE",
"395 618 LINE SMOOTH",
"389 589 OFFCURVE",
"376 573 OFFCURVE",
"341 573 CURVE",
"336 552 LINE",
"377 552 OFFCURVE",
"408 568 OFFCURVE",
"420 631 CURVE SMOOTH",
"424 649 OFFCURVE",
"427 671 OFFCURVE",
"430 700 CURVE"
);
}
);
width = 510.6583;
},
{
anchors = (
{
name = _bottom;
position = "{555, 739}";
}
);
components = (
{
alignment = -1;
name = L;
}
);
hints = (
{
horizontal = 1;
place = "{575, 124}";
type = Stem;
},
{
horizontal = 1;
place = "{426, 21}";
target = up;
type = BottomGhost;
}
);
layerId = "9CDD62D3-67F3-4AC7-B192-D539276CE01F";
paths = (
{
closed = 1;
nodes = (
"478 700 LINE",
"453 575 LINE",
"517 575 LINE",
"514 560 LINE SMOOTH",
"505 515 OFFCURVE",
"482 494 OFFCURVE",
"449 494 CURVE",
"435 426 LINE",
"532 426 OFFCURVE",
"590 490 OFFCURVE",
"608 581 CURVE SMOOTH",
"615 617 OFFCURVE",
"617 658 OFFCURVE",
"611 700 CURVE"
);
}
);
width = 559.76679;
}
);
leftMetricsKey = L;
rightMetricsKey = L;
unicode = 013D;
},
{
glyphname = Lcommaaccent;
lastChange = "2021-08-13 16:01:28 +0000";
layers = (
{
anchors = (
{
name = _commaaccent;
position = "{248, 0}";
}
);
components = (
{
alignment = -1;
name = L;
}
);
hints = (
{
horizontal = 1;
place = "{-143, 96}";
type = Stem;
},
{
horizontal = 1;
place = "{-272, 21}";
target = up;
type = BottomGhost;
}
);
layerId = "24A19461-EE5C-48C0-A968-CC082199DAC2";
paths = (
{
closed = 1;
nodes = (
"184 -47 LINE",
"165 -143 LINE",
"217 -143 LINE",
"213 -165 LINE SMOOTH",
"206 -203 OFFCURVE",
"187 -222 OFFCURVE",
"153 -222 CURVE",
"143 -272 LINE",
"218 -272 OFFCURVE",
"264 -230 OFFCURVE",
"281 -146 CURVE SMOOTH",
"287 -117 OFFCURVE",
"289 -84 OFFCURVE",
"287 -47 CURVE"
);
}
);
width = 542.32;
},
{
anchors = (
{
name = _commaaccent;
position = "{231, 0}";
}
);
components = (
{
alignment = -1;
name = L;
}
);
hints = (
{
horizontal = 1;
place = "{-3, 2}";
type = Stem;
},
{
horizontal = 1;
place = "{-177, 21}";
target = up;
type = BottomGhost;
}
);
layerId = "F7832249-9EF4-4513-B883-88BAA20BF268";
paths = (
{
closed = 1;
nodes = (
"195 -58 LINE",
"187 -97 LINE",
"219 -97 LINE",
"217 -105 LINE SMOOTH",
"211 -138 OFFCURVE",
"196 -158 OFFCURVE",
"164 -158 CURVE",
"160 -177 LINE",
"197 -177 OFFCURVE",
"229 -162 OFFCURVE",
"243 -91 CURVE SMOOTH",
"245 -81 OFFCURVE",
"246 -68 OFFCURVE",
"247 -58 CURVE"
);
}
);
width = 510.6583;
},
{
anchors = (
{
name = _commaaccent;
position = "{273, 6}";
}
);
components = (
{
alignment = -1;
name = L;
}
);
hints = (
{
horizontal = 1;
place = "{-196, 45}";
type = Stem;
},
{
horizontal = 1;
place = "{-164, 125}";
type = Stem;
}
);
layerId = "9CDD62D3-67F3-4AC7-B192-D539276CE01F";
paths = (
{
closed = 1;
nodes = (
"195 -38 LINE",
"170 -164 LINE",
"234 -164 LINE",
"231 -178 LINE SMOOTH",
"222 -224 OFFCURVE",
"200 -245 OFFCURVE",
"166 -245 CURVE",
"152 -312 LINE",
"250 -312 OFFCURVE",
"308 -248 OFFCURVE",
"326 -158 CURVE SMOOTH",
"333 -121 OFFCURVE",
"335 -81 OFFCURVE",
"329 -38 CURVE"
);
}
);
width = 550.19245;
}
);
leftMetricsKey = L;
rightMetricsKey = L;
unicode = 013B;
},
{
color = 4;
glyphname = Ldot;
lastChange = "2021-08-13 16:01:28 +0000";
layers = (
{
hints = (
{
horizontal = 1;
place = "{0, 92}";
type = Stem;
},
{
horizontal = 1;
place = "{317, 120}";
type = Stem;
},
{
horizontal = 1;
place = "{699, -20}";
target = down;
type = TopGhost;
}
);
layerId = "24A19461-EE5C-48C0-A968-CC082199DAC2";
paths = (
{
closed = 1;
nodes = (
"384 0 LINE",
"403 92 LINE",
"168 92 LINE",
"288 699 LINE",
"174 699 LINE",
"35 0 LINE"
);
},
{
closed = 1;
nodes = (
"408 317 OFFCURVE",
"441 343 OFFCURVE",
"447 377 CURVE SMOOTH",
"454 410 OFFCURVE",
"432 437 OFFCURVE",
"399 437 CURVE SMOOTH",
"365 437 OFFCURVE",
"334 410 OFFCURVE",
"327 377 CURVE SMOOTH",
"321 343 OFFCURVE",
"341 317 OFFCURVE",
"375 317 CURVE SMOOTH"
);
}
);
width = 462.31;
},
{
hints = (
{
horizontal = 1;
place = "{0, 2}";
type = Stem;
},
{
horizontal = 1;
place = "{345, 61}";
type = Stem;
},
{
horizontal = 1;
place = "{700, -20}";
target = down;
type = TopGhost;
}
);
layerId = "F7832249-9EF4-4513-B883-88BAA20BF268";
paths = (
{
closed = 1;
nodes = (
"346 0 LINE",
"350 20 LINE",
"81 20 LINE",
"216 700 LINE",
"194 700 LINE",
"55 0 LINE"
);
},
{
closed = 1;
nodes = (
"378 345 OFFCURVE",
"395 360 OFFCURVE",
"398 376 CURVE SMOOTH",
"401 392 OFFCURVE",
"390 406 OFFCURVE",
"374 406 CURVE SMOOTH",
"357 406 OFFCURVE",
"340 392 OFFCURVE",
"337 376 CURVE SMOOTH",
"334 360 OFFCURVE",
"345 345 OFFCURVE",
"361 345 CURVE SMOOTH"
);
}
);
width = 430.65809;
},
{
hints = (
{
horizontal = 1;
place = "{0, 136}";
type = Stem;
},
{
horizontal = 1;
place = "{320, 150}";
type = Stem;
},
{
horizontal = 1;
place = "{700, -20}";
target = down;
type = TopGhost;
}
);
layerId = "9CDD62D3-67F3-4AC7-B192-D539276CE01F";
paths = (
{
closed = 1;
nodes = (
"403 0 LINE",
"430 136 LINE",
"207 136 LINE",
"319 700 LINE",
"143 700 LINE",
"4 0 LINE"
);
},
{
closed = 1;
nodes = (
"437 320 OFFCURVE",
"476 352 OFFCURVE",
"485 395 CURVE SMOOTH",
"493 437 OFFCURVE",
"467 470 OFFCURVE",
"424 470 CURVE SMOOTH",
"382 470 OFFCURVE",
"343 437 OFFCURVE",
"335 395 CURVE SMOOTH",
"326 352 OFFCURVE",
"352 320 OFFCURVE",
"394 320 CURVE SMOOTH"
);
}
);
width = 473.72453;
}
);
leftMetricsKey = L;
rightMetricsKey = L;
unicode = 013F;
},
{
glyphname = Lslash;
lastChange = "2021-08-13 16:01:28 +0000";
layers = (
{
hints = (
{
horizontal = 1;
place = "{0, 87}";
type = Stem;
},
{
horizontal = 1;
place = "{699, -20}";
target = down;
type = TopGhost;
}
);
layerId = "24A19461-EE5C-48C0-A968-CC082199DAC2";
paths = (
{
closed = 1;
nodes = (
"89 269 LINE",
"391 362 LINE",
"408 449 LINE",
"106 355 LINE"
);
},
{
closed = 1;
nodes = (
"251 699 LINE",
"112 0 LINE",
"461 0 LINE",
"479 87 LINE",
"245 87 LINE",
"366 699 LINE"
);
}
);
width = 539.31;
},
{
hints = (
{
horizontal = 1;
place = "{0, 2}";
type = Stem;
},
{
horizontal = 1;
place = "{700, -20}";
target = down;
type = TopGhost;
}
);
layerId = "F7832249-9EF4-4513-B883-88BAA20BF268";
paths = (
{
closed = 1;
nodes = (
"117 311 LINE",
"419 440 LINE",
"423 461 LINE",
"121 333 LINE"
);
},
{
closed = 1;
nodes = (
"289 700 LINE",
"149 0 LINE",
"441 0 LINE",
"445 19 LINE",
"175 19 LINE",
"311 700 LINE"
);
}
);
width = 525.84511;
},
{
hints = (
{
horizontal = 1;
place = "{0, 134}";
type = Stem;
},
{
horizontal = 1;
place = "{700, -20}";
target = down;
type = TopGhost;
}
);
layerId = "9CDD62D3-67F3-4AC7-B192-D539276CE01F";
paths = (
{
closed = 1;
nodes = (
"54 251 LINE",
"395 345 LINE",
"425 495 LINE",
"83 400 LINE"
);
},
{
closed = 1;
nodes = (
"207 700 LINE",
"68 0 LINE",
"467 0 LINE",
"494 134 LINE",
"271 134 LINE",
"384 700 LINE"
);
}
);
width = 534.52208;
}
);
leftMetricsKey = L;
rightMetricsKey = L;
unicode = 0141;
},
{
glyphname = M;
lastChange = "2021-08-13 16:01:28 +0000";
layers = (
{
hints = (
{
horizontal = 1;
place = "{700, -20}";
target = down;
type = TopGhost;
},
{
horizontal = 1;
place = "{0, 21}";
target = up;
type = BottomGhost;
}
);
layerId = "24A19461-EE5C-48C0-A968-CC082199DAC2";
paths = (
{
closed = 1;
nodes = (
"245 479 LINE",
"362 0 LINE",
"441 0 LINE",
"749 479 LINE",
"653 0 LINE",
"767 0 LINE",
"907 700 LINE",
"784 700 LINE",
"432 150 LINE",
"298 700 LINE",
"175 700 LINE",
"35 0 LINE",
"149 0 LINE"
);
}
);
width = 902;
},
{
hints = (
{
horizontal = 1;
place = "{700, -20}";
target = down;
type = TopGhost;
},
{
horizontal = 1;
place = "{0, 21}";
target = up;
type = BottomGhost;
}
);
layerId = "F7832249-9EF4-4513-B883-88BAA20BF268";
paths = (
{
closed = 1;
nodes = (
"206 647 LINE",
"359 0 LINE",
"381 0 LINE",
"791 647 LINE",
"662 0 LINE",
"684 0 LINE",
"823 700 LINE",
"801 700 LINE",
"376 29 LINE",
"216 700 LINE",
"194 700 LINE",
"55 0 LINE",
"77 0 LINE"
);
}
);
width = 838.38298;
},
{
hints = (
{
horizontal = 1;
place = "{700, -20}";
target = down;
type = TopGhost;
},
{
horizontal = 1;
place = "{0, 21}";
target = up;
type = BottomGhost;
}
);
layerId = "9CDD62D3-67F3-4AC7-B192-D539276CE01F";
paths = (
{
closed = 1;
nodes = (
"260 404 LINE",
"333 0 LINE",
"476 0 LINE",
"709 404 LINE",
"629 0 LINE",
"804 0 LINE",
"943 700 LINE",
"736 700 LINE",
"451 225 LINE",
"351 700 LINE",
"143 700 LINE",
"4 0 LINE",
"180 0 LINE"
);
}
);
width = 907.17925;
}
);
leftMetricsKey = H;
rightMetricsKey = H;
unicode = 004D;
},
{
glyphname = N;
lastChange = "2021-08-13 16:01:28 +0000";
layers = (
{
anchors = (
{
name = bottom;
position = "{321, 0}";
},
{
name = top;
position = "{460, 701}";
}
);
hints = (
{
horizontal = 1;
place = "{700, -20}";
target = down;
type = TopGhost;
},
{
horizontal = 1;
place = "{0, 21}";
target = up;
type = BottomGhost;
}
);
layerId = "24A19461-EE5C-48C0-A968-CC082199DAC2";
paths = (
{
closed = 1;
nodes = (
"632 700 LINE",
"528 179 LINE",
"289 700 LINE",
"175 700 LINE",
"35 0 LINE",
"149 0 LINE",
"253 523 LINE",
"492 0 LINE",
"606 0 LINE",
"746 700 LINE"
);
}
);
width = 741.01;
},
{
anchors = (
{
name = bottom;
position = "{295, 0}";
},
{
name = top;
position = "{430, 679}";
}
);
hints = (
{
horizontal = 1;
place = "{699, -20}";
target = down;
type = TopGhost;
},
{
horizontal = 1;
place = "{0, 21}";
target = up;
type = BottomGhost;
}
);
layerId = "F7832249-9EF4-4513-B883-88BAA20BF268";
paths = (
{
closed = 1;
nodes = (
"651 699 LINE",
"520 40 LINE",
"216 699 LINE",
"194 699 LINE",
"55 0 LINE",
"77 0 LINE",
"208 660 LINE",
"512 0 LINE",
"534 0 LINE",
"673 699 LINE"
);
}
);
width = 688.15894;
},
{
anchors = (
{
name = bottom;
position = "{320, 1}";
},
{
name = top;
position = "{460, 702}";
}
);
hints = (
{
horizontal = 1;
place = "{700, -20}";
target = down;
type = TopGhost;
},
{
horizontal = 1;
place = "{0, 21}";
target = up;
type = BottomGhost;
}
);
layerId = "9CDD62D3-67F3-4AC7-B192-D539276CE01F";
paths = (
{
closed = 1;
nodes = (
"600 700 LINE",
"515 273 LINE",
"319 700 LINE",
"143 700 LINE",
"4 0 LINE",
"180 0 LINE",
"264 424 LINE",
"461 0 LINE",
"637 0 LINE",
"776 700 LINE"
);
}
);
width = 739.85906;
}
);
leftMetricsKey = H;
rightMetricsKey = H;
unicode = 004E;
},
{
glyphname = Ncommaaccent;
lastChange = "2021-08-13 16:01:28 +0000";
layers = (
{
anchors = (
{
name = _bottom;
position = "{361, 0}";
}
);
components = (
{
alignment = -1;
name = N;
}
);
hints = (
{
horizontal = 1;
place = "{-143, 96}";
type = Stem;
},
{
horizontal = 1;
place = "{-272, 21}";
target = up;
type = BottomGhost;
}
);
layerId = "24A19461-EE5C-48C0-A968-CC082199DAC2";
paths = (
{
closed = 1;
nodes = (
"297 -47 LINE",
"278 -143 LINE",
"330 -143 LINE",
"326 -165 LINE SMOOTH",
"319 -203 OFFCURVE",
"300 -222 OFFCURVE",
"267 -222 CURVE",
"257 -272 LINE",
"331 -272 OFFCURVE",
"377 -230 OFFCURVE",
"394 -146 CURVE SMOOTH",
"400 -117 OFFCURVE",
"402 -84 OFFCURVE",
"400 -47 CURVE"
);
}
);
width = 741;
},
{
anchors = (
{
name = _bottom;
position = "{324, 0}";
}
);
components = (
{
alignment = -1;
name = N;
}
);
hints = (
{
horizontal = 1;
place = "{-3, 2}";
type = Stem;
},
{
horizontal = 1;
place = "{-177, 21}";
target = up;
type = BottomGhost;
}
);
layerId = "F7832249-9EF4-4513-B883-88BAA20BF268";
paths = (
{
closed = 1;
nodes = (
"286 -58 LINE",
"278 -97 LINE",
"309 -97 LINE",
"308 -105 LINE SMOOTH",
"301 -138 OFFCURVE",
"286 -158 OFFCURVE",
"254 -158 CURVE",
"250 -177 LINE",
"287 -177 OFFCURVE",
"319 -162 OFFCURVE",
"334 -91 CURVE SMOOTH",
"335 -81 OFFCURVE",
"337 -68 OFFCURVE",
"338 -58 CURVE"
);
}
);
width = 688.14894;
},
{
anchors = (
{
name = _bottom;
position = "{392, 1}";
}
);
components = (
{
alignment = -1;
name = N;
}
);
hints = (
{
horizontal = 1;
place = "{-196, 45}";
type = Stem;
},
{
horizontal = 1;
place = "{-164, 125}";
type = Stem;
}
);
layerId = "9CDD62D3-67F3-4AC7-B192-D539276CE01F";
paths = (
{
closed = 1;
nodes = (
"315 -38 LINE",
"290 -164 LINE",
"353 -164 LINE",
"351 -178 LINE SMOOTH",
"342 -224 OFFCURVE",
"319 -245 OFFCURVE",
"285 -245 CURVE",
"272 -312 LINE",
"369 -312 OFFCURVE",
"427 -248 OFFCURVE",
"445 -158 CURVE SMOOTH",
"452 -121 OFFCURVE",
"454 -81 OFFCURVE",
"448 -38 CURVE"
);
}
);
width = 739.84906;
}
);
leftMetricsKey = H;
rightMetricsKey = H;
unicode = 0145;
},
{
glyphname = O;
lastChange = "2021-08-13 16:01:28 +0000";
layers = (
{
anchors = (
{
name = top;
position = "{486.455, 701}";
}
);
hints = (
{
horizontal = 1;
place = "{-7, 99}";
type = Stem;
},
{
horizontal = 1;
place = "{608, 100}";
type = Stem;
}
);
layerId = "24A19461-EE5C-48C0-A968-CC082199DAC2";
paths = (
{
closed = 1;
nodes = (
"543.455 -7 OFFCURVE",
"730.455 141 OFFCURVE",
"772.455 351 CURVE SMOOTH",
"813.455 560 OFFCURVE",
"686.455 708 OFFCURVE",
"488.455 708 CURVE SMOOTH",
"292.455 708 OFFCURVE",
"103.455 560 OFFCURVE",
"62.455 351 CURVE SMOOTH",
"20.455 141 OFFCURVE",
"149.455 -7 OFFCURVE",
"345.455 -7 CURVE SMOOTH"
);
},
{
closed = 1;
nodes = (
"227.455 92 OFFCURVE",
"147.455 193 OFFCURVE",
"179.455 351 CURVE SMOOTH",
"210.455 510 OFFCURVE",
"330.455 608 OFFCURVE",
"468.455 608 CURVE SMOOTH",
"606.455 608 OFFCURVE",
"686.455 510 OFFCURVE",
"655.455 351 CURVE SMOOTH",
"623.455 193 OFFCURVE",
"503.455 92 OFFCURVE",
"365.455 92 CURVE SMOOTH"
);
}
);
width = 794.455;
},
{
anchors = (
{
name = top;
position = "{485, 679}";
}
);
hints = (
{
horizontal = 1;
place = "{0, 2}";
type = Stem;
},
{
horizontal = 1;
place = "{13, 2}";
type = Stem;
}
);
layerId = "F7832249-9EF4-4513-B883-88BAA20BF268";
paths = (
{
closed = 1;
nodes = (
"533 -8 OFFCURVE",
"703 139 OFFCURVE",
"745 349 CURVE SMOOTH",
"787 559 OFFCURVE",
"675 706 OFFCURVE",
"479 706 CURVE SMOOTH",
"283 706 OFFCURVE",
"114 559 OFFCURVE",
"72 349 CURVE SMOOTH",
"30 139 OFFCURVE",
"141 -8 OFFCURVE",
"337 -8 CURVE SMOOTH"
);
},
{
closed = 1;
nodes = (
"167 12 OFFCURVE",
"53 139 OFFCURVE",
"95 349 CURVE SMOOTH",
"137 559 OFFCURVE",
"301 686 OFFCURVE",
"476 686 CURVE SMOOTH",
"650 686 OFFCURVE",
"763 559 OFFCURVE",
"722 349 CURVE SMOOTH",
"680 139 OFFCURVE",
"516 12 OFFCURVE",
"341 12 CURVE SMOOTH"
);
}
);
width = 777.38298;
},
{
anchors = (
{
name = top;
position = "{477, 702}";
}
);
hints = (
{
horizontal = 1;
place = "{-7, 161}";
type = Stem;
},
{
horizontal = 1;
place = "{550, 160}";
type = Stem;
}
);
layerId = "9CDD62D3-67F3-4AC7-B192-D539276CE01F";
paths = (
{
closed = 1;
nodes = (
"535 -7 OFFCURVE",
"726 142 OFFCURVE",
"767 352 CURVE SMOOTH",
"809 562 OFFCURVE",
"679 710 OFFCURVE",
"479 710 CURVE SMOOTH",
"280 710 OFFCURVE",
"89 562 OFFCURVE",
"47 352 CURVE SMOOTH",
"5 142 OFFCURVE",
"137 -7 OFFCURVE",
"336 -7 CURVE SMOOTH"
);
},
{
closed = 1;
nodes = (
"257 154 OFFCURVE",
"203 232 OFFCURVE",
"227 352 CURVE SMOOTH",
"251 473 OFFCURVE",
"336 550 OFFCURVE",
"447 550 CURVE SMOOTH",
"557 550 OFFCURVE",
"612 473 OFFCURVE",
"588 352 CURVE SMOOTH",
"564 232 OFFCURVE",
"478 154 OFFCURVE",
"368 154 CURVE SMOOTH"
);
}
);
width = 773.70755;
}
);
leftMetricsKey = "=H*0.5";
rightMetricsKey = "=H*0.5";
unicode = 004F;
},
{
glyphname = Oslash;
lastChange = "2021-08-13 16:06:47 +0000";
layers = (
{
components = (
{
alignment = -1;
name = O;
}
);
layerId = "24A19461-EE5C-48C0-A968-CC082199DAC2";
paths = (
{
closed = 1;
nodes = (
"134.934 149.867 LINE",
"215.934 102.867 LINE",
"718.934 554.867 LINE",
"637.934 601.867 LINE"
);
}
);
width = 794.45;
},
{
components = (
{
alignment = -1;
name = O;
}
);
layerId = "F7832249-9EF4-4513-B883-88BAA20BF268";
paths = (
{
closed = 1;
nodes = (
"118.551 101.803 LINE",
"132.18 89.56 LINE",
"703.551 598.803 LINE",
"685.551 605.803 LINE"
);
}
);
width = 777.38298;
},
{
components = (
{
alignment = -1;
name = O;
}
);
layerId = "9CDD62D3-67F3-4AC7-B192-D539276CE01F";
paths = (
{
closed = 1;
nodes = (
"134.833 170.77 LINE",
"229.833 116.77 LINE",
"711.833 551.77 LINE",
"617.833 606.77 LINE"
);
}
);
width = 773.70755;
}
);
leftMetricsKey = O;
rightMetricsKey = O;
unicode = 00D8;
},
{
glyphname = OE;
lastChange = "2021-08-13 16:01:28 +0000";
layers = (
{
hints = (
{
horizontal = 1;
place = "{-7, 103}";
type = Stem;
},
{
horizontal = 1;
place = "{0, 89}";
type = Stem;
},
{
horizontal = 1;
place = "{309, 88}";
type = Stem;
},
{
horizontal = 1;
place = "{604, 104}";
type = Stem;
},
{
horizontal = 1;
place = "{611, 89}";
type = Stem;
}
);
layerId = "24A19461-EE5C-48C0-A968-CC082199DAC2";
paths = (
{
closed = 1;
nodes = (
"1090.45 611 LINE",
"1108.45 700 LINE",
"724.45 700 LINE",
"703.45 593 LINE",
"660.45 669 OFFCURVE",
"583.45 708 OFFCURVE",
"478.45 708 CURVE SMOOTH",
"293.45 708 OFFCURVE",
"104.45 562 OFFCURVE",
"62.45 351 CURVE SMOOTH",
"20.45 141 OFFCURVE",
"149.45 -7 OFFCURVE",
"336.45 -7 CURVE SMOOTH",
"440.45 -7 OFFCURVE",
"533.45 32 OFFCURVE",
"607.45 111 CURVE",
"585.45 0 LINE",
"969.45 0 LINE",
"986.45 89 LINE",
"717.45 89 LINE",
"760.45 309 LINE",
"1000.45 309 LINE",
"1018.45 397 LINE",
"778.45 398 LINE",
"820.45 611 LINE"
);
},
{
closed = 1;
nodes = (
"209.45 505 OFFCURVE",
"329.45 604 OFFCURVE",
"467.45 604 CURVE SMOOTH",
"605.45 604 OFFCURVE",
"685.45 505 OFFCURVE",
"655.45 351 CURVE SMOOTH",
"624.45 197 OFFCURVE",
"504.45 96 OFFCURVE",
"366.45 96 CURVE SMOOTH",
"228.45 96 OFFCURVE",
"148.45 197 OFFCURVE",
"179.45 351 CURVE SMOOTH"
);
}
);
width = 1083.95;
},
{
hints = (
{
horizontal = 1;
place = "{0, 2}";
type = Stem;
},
{
horizontal = 1;
place = "{0, 2}";
type = Stem;
},
{
horizontal = 1;
place = "{7, 2}";
type = Stem;
},
{
horizontal = 1;
place = "{13, 2}";
type = Stem;
},
{
horizontal = 1;
place = "{13, 2}";
type = Stem;
}
);
layerId = "F7832249-9EF4-4513-B883-88BAA20BF268";
paths = (
{
closed = 1;
nodes = (
"1134 681 LINE",
"1137 700 LINE",
"793 700 LINE",
"745 462 LINE",
"742 610 OFFCURVE",
"633 706 OFFCURVE",
"479 706 CURVE SMOOTH",
"283 706 OFFCURVE",
"114 559 OFFCURVE",
"72 349 CURVE SMOOTH",
"30 139 OFFCURVE",
"141 -8 OFFCURVE",
"337 -8 CURVE SMOOTH",
"491 -8 OFFCURVE",
"638 88 OFFCURVE",
"700 236 CURVE",
"653 0 LINE",
"998 0 LINE",
"1002 19 LINE",
"679 19 LINE",
"743 340 LINE",
"1036 340 LINE",
"1040 360 LINE",
"747 360 LINE",
"811 681 LINE"
);
},
{
closed = 1;
nodes = (
"137 559 OFFCURVE",
"301 686 OFFCURVE",
"475 686 CURVE SMOOTH",
"650 686 OFFCURVE",
"763 559 OFFCURVE",
"722 349 CURVE SMOOTH",
"680 140 OFFCURVE",
"516 12 OFFCURVE",
"341 12 CURVE SMOOTH",
"167 12 OFFCURVE",
"53 140 OFFCURVE",
"95 349 CURVE SMOOTH"
);
}
);
width = 1132.45745;
},
{
hints = (
{
horizontal = 1;
place = "{-10, 162}";
type = Stem;
},
{
horizontal = 1;
place = "{0, 140}";
type = Stem;
},
{
horizontal = 1;
place = "{288, 133}";
type = Stem;
},
{
horizontal = 1;
place = "{548, 162}";
type = Stem;
},
{
horizontal = 1;
place = "{561, 139}";
type = Stem;
}
);
layerId = "9CDD62D3-67F3-4AC7-B192-D539276CE01F";
paths = (
{
closed = 1;
nodes = (
"1070 561 LINE",
"1098 700 LINE",
"663 700 LINE",
"650 633 LINE",
"610 684 OFFCURVE",
"543 710 OFFCURVE",
"465 710 CURVE SMOOTH",
"270 710 OFFCURVE",
"89 562 OFFCURVE",
"47 351 CURVE SMOOTH",
"5 139 OFFCURVE",
"127 -10 OFFCURVE",
"322 -10 CURVE",
"400 -8 OFFCURVE",
"477 16 OFFCURVE",
"538 68 CURVE",
"524 0 LINE",
"959 0 LINE",
"986 140 LINE",
"728 140 LINE",
"757 288 LINE",
"986 288 LINE",
"1012 422 LINE",
"784 422 LINE",
"812 561 LINE"
);
},
{
closed = 1;
nodes = (
"250 471 OFFCURVE",
"336 548 OFFCURVE",
"447 548 CURVE SMOOTH",
"557 548 OFFCURVE",
"612 471 OFFCURVE",
"588 351 CURVE SMOOTH",
"564 230 OFFCURVE",
"478 152 OFFCURVE",
"368 152 CURVE SMOOTH",
"257 152 OFFCURVE",
"202 230 OFFCURVE",
"226 351 CURVE SMOOTH"
);
}
);
width = 1042.24736;
}
);
leftMetricsKey = O;
rightMetricsKey = E;
unicode = 0152;
},
{
glyphname = P;
lastChange = "2021-08-13 16:01:28 +0000";
layers = (
{
hints = (
{
horizontal = 1;
place = "{607, 93}";
type = Stem;
},
{
horizontal = 1;
place = "{284, 93}";
type = Stem;
},
{
horizontal = 1;
place = "{0, 21}";
target = up;
type = BottomGhost;
}
);
layerId = "24A19461-EE5C-48C0-A968-CC082199DAC2";
paths = (
{
closed = 1;
nodes = (
"224 377 LINE",
"270 607 LINE",
"426 607 LINE SMOOTH",
"515 607 OFFCURVE",
"546 564 OFFCURVE",
"532 491 CURVE SMOOTH",
"518 420 OFFCURVE",
"469 377 OFFCURVE",
"380 377 CURVE SMOOTH"
);
},
{
closed = 1;
nodes = (
"672 605 OFFCURVE",
"610 700 OFFCURVE",
"445 700 CURVE SMOOTH",
"175 700 LINE",
"35 0 LINE",
"149 0 LINE",
"206 284 LINE",
"362 284 LINE SMOOTH",
"543 284 OFFCURVE",
"629 392 OFFCURVE",
"649 491 CURVE SMOOTH"
);
}
);
width = 643.5;
},
{
hints = (
{
horizontal = 1;
place = "{677, 23}";
type = Stem;
},
{
horizontal = 1;
place = "{314, 23}";
type = Stem;
},
{
horizontal = 1;
place = "{0, 21}";
target = up;
type = BottomGhost;
}
);
layerId = "F7832249-9EF4-4513-B883-88BAA20BF268";
paths = (
{
closed = 1;
nodes = (
"144 337 LINE",
"212 678 LINE",
"399 678 LINE SMOOTH",
"549 678 OFFCURVE",
"590 614 OFFCURVE",
"568 506 CURVE SMOOTH",
"548 404 OFFCURVE",
"481 337 OFFCURVE",
"331 337 CURVE SMOOTH"
);
},
{
closed = 1;
nodes = (
"613 622 OFFCURVE",
"564 700 OFFCURVE",
"403 700 CURVE SMOOTH",
"194 700 LINE",
"55 0 LINE",
"77 0 LINE",
"139 315 LINE",
"327 315 LINE SMOOTH",
"473 315 OFFCURVE",
"565 378 OFFCURVE",
"590 506 CURVE SMOOTH"
);
}
);
width = 591.62766;
},
{
hints = (
{
horizontal = 1;
place = "{248, 140}";
type = Stem;
},
{
horizontal = 1;
place = "{558, 142}";
type = Stem;
},
{
horizontal = 1;
place = "{0, 21}";
target = up;
type = BottomGhost;
}
);
layerId = "9CDD62D3-67F3-4AC7-B192-D539276CE01F";
paths = (
{
closed = 1;
nodes = (
"257 388 LINE",
"291 558 LINE",
"411 558 LINE SMOOTH",
"477 558 OFFCURVE",
"498 525 OFFCURVE",
"488 473 CURVE SMOOTH",
"478 421 OFFCURVE",
"443 388 OFFCURVE",
"377 388 CURVE SMOOTH"
);
},
{
closed = 1;
nodes = (
"693 603 OFFCURVE",
"626 700 OFFCURVE",
"453 700 CURVE SMOOTH",
"143 700 LINE",
"4 0 LINE",
"180 0 LINE",
"229 248 LINE",
"363 248 LINE SMOOTH",
"543 248 OFFCURVE",
"644 356 OFFCURVE",
"667 473 CURVE SMOOTH"
);
}
);
width = 649.54245;
}
);
leftMetricsKey = H;
rightMetricsKey = "=H*0.5";
unicode = 0050;
},
{
glyphname = Thorn;
lastChange = "2021-08-13 16:01:28 +0000";
layers = (
{
hints = (
{
horizontal = 1;
place = "{469, 231}";
type = Stem;
},
{
horizontal = 1;
place = "{469, 89}";
type = Stem;
},
{
horizontal = 1;
place = "{143, 89}";
type = Stem;
},
{
horizontal = 1;
place = "{0, 21}";
target = up;
type = BottomGhost;
}
);
layerId = "24A19461-EE5C-48C0-A968-CC082199DAC2";
paths = (
{
closed = 1;
nodes = (
"195 232 LINE",
"243 469 LINE",
"369 469 LINE SMOOTH",
"458 469 OFFCURVE",
"488 422 OFFCURVE",
"474 350 CURVE SMOOTH",
"460 279 OFFCURVE",
"410 232 OFFCURVE",
"321 232 CURVE SMOOTH"
);
},
{
closed = 1;
nodes = (
"614 464 OFFCURVE",
"551 558 OFFCURVE",
"386 558 CURVE SMOOTH",
"259 558 LINE",
"288 700 LINE",
"175 700 LINE",
"35 0 LINE",
"149 0 LINE",
"178 143 LINE",
"304 143 LINE SMOOTH",
"485 143 OFFCURVE",
"571 251 OFFCURVE",
"591 350 CURVE SMOOTH"
);
}
);
width = 613.5;
},
{
hints = (
{
horizontal = 1;
place = "{522, 24}";
type = Stem;
},
{
horizontal = 1;
place = "{165, 22}";
type = Stem;
},
{
horizontal = 1;
place = "{3, 2}";
type = Stem;
},
{
horizontal = 1;
place = "{0, 21}";
target = up;
type = BottomGhost;
}
);
layerId = "F7832249-9EF4-4513-B883-88BAA20BF268";
paths = (
{
closed = 1;
nodes = (
"113 180 LINE",
"181 522 LINE",
"338 522 LINE SMOOTH",
"488 522 OFFCURVE",
"529 458 OFFCURVE",
"507 350 CURVE SMOOTH",
"487 247 OFFCURVE",
"420 180 OFFCURVE",
"270 180 CURVE SMOOTH"
);
},
{
closed = 1;
nodes = (
"552 466 OFFCURVE",
"502 543 OFFCURVE",
"342 543 CURVE SMOOTH",
"185 543 LINE",
"216 700 LINE",
"194 700 LINE",
"55 0 LINE",
"77 0 LINE",
"108 158 LINE",
"266 158 LINE SMOOTH",
"412 158 OFFCURVE",
"504 221 OFFCURVE",
"529 350 CURVE SMOOTH"
);
}
);
width = 561.62766;
},
{
hints = (
{
horizontal = 1;
place = "{270, 133}";
type = Stem;
},
{
horizontal = 1;
place = "{437, 195}";
type = Stem;
},
{
horizontal = 1;
place = "{0, 21}";
target = up;
type = BottomGhost;
},
{
horizontal = 1;
place = "{403, -20}";
target = down;
type = TopGhost;
}
);
layerId = "9CDD62D3-67F3-4AC7-B192-D539276CE01F";
paths = (
{
closed = 1;
nodes = (
"232 265 LINE",
"267 437 LINE",
"357 437 LINE SMOOTH",
"423 437 OFFCURVE",
"444 403 OFFCURVE",
"434 351 CURVE SMOOTH",
"423 299 OFFCURVE",
"389 264 OFFCURVE",
"322 264 CURVE SMOOTH"
);
},
{
closed = 1;
nodes = (
"638 477 OFFCURVE",
"570 572 OFFCURVE",
"398 572 CURVE SMOOTH",
"292 572 LINE",
"317 700 LINE",
"143 700 LINE",
"4 0 LINE",
"180 0 LINE",
"206 132 LINE",
"310 132 LINE SMOOTH",
"489 132 OFFCURVE",
"590 237 OFFCURVE",
"613 351 CURVE SMOOTH"
);
}
);
width = 619.54245;
}
);
leftMetricsKey = H;
rightMetricsKey = D;
unicode = 00DE;
},
{
glyphname = Q;
lastChange = "2021-08-13 16:01:28 +0000";
layers = (
{
components = (
{
alignment = -1;
name = O;
}
);
hints = (
{
horizontal = 1;
place = "{-100, 21}";
target = up;
type = BottomGhost;
},
{
horizontal = 1;
place = "{200, -20}";
target = down;
type = TopGhost;
}
);
layerId = "24A19461-EE5C-48C0-A968-CC082199DAC2";
paths = (
{
closed = 1;
nodes = (
"274 -100 LINE",
"388 -100 LINE",
"447 200 LINE",
"333 200 LINE"
);
}
);
width = 794.45;
},
{
components = (
{
alignment = -1;
name = O;
}
);
hints = (
{
horizontal = 1;
place = "{-100, 21}";
target = up;
type = BottomGhost;
},
{
horizontal = 1;
place = "{102, -20}";
target = down;
type = TopGhost;
}
);
layerId = "F7832249-9EF4-4513-B883-88BAA20BF268";
paths = (
{
closed = 1;
nodes = (
"310 -100 LINE",
"332 -100 LINE",
"372 102 LINE",
"350 102 LINE"
);
}
);
width = 777.38298;
},
{
components = (
{
alignment = -1;
name = O;
}
);
hints = (
{
horizontal = 1;
place = "{-85, 21}";
target = up;
type = BottomGhost;
},
{
horizontal = 1;
place = "{238, -20}";
target = down;
type = TopGhost;
}
);
layerId = "9CDD62D3-67F3-4AC7-B192-D539276CE01F";
paths = (
{
closed = 1;
nodes = (
"257 -85 LINE",
"388 -85 LINE",
"452 238 LINE",
"321 238 LINE"
);
}
);
width = 773.70755;
}
);
leftMetricsKey = O;
rightMetricsKey = O;
unicode = 0051;
},
{
glyphname = R;
lastChange = "2021-08-13 16:01:28 +0000";
layers = (
{
anchors = (
{
name = bottom;
position = "{306, 0}";
},
{
name = top;
position = "{405, 701}";
}
);
hints = (
{
horizontal = 1;
place = "{280, 91}";
type = Stem;
},
{
horizontal = 1;
place = "{607, 93}";
type = Stem;
},
{
horizontal = 1;
place = "{0, 21}";
target = up;
type = BottomGhost;
}
);
layerId = "24A19461-EE5C-48C0-A968-CC082199DAC2";
paths = (
{
closed = 1;
nodes = (
"518 420 OFFCURVE",
"468 371 OFFCURVE",
"379 371 CURVE SMOOTH",
"223 371 LINE",
"270 607 LINE",
"426 607 LINE SMOOTH",
"515 607 OFFCURVE",
"546 561 OFFCURVE",
"532 490 CURVE SMOOTH"
);
},
{
closed = 1;
nodes = (
"175 700 LINE",
"35 0 LINE",
"149 0 LINE",
"205 280 LINE",
"361 280 LINE SMOOTH",
"542 280 OFFCURVE",
"629 391 OFFCURVE",
"649 490 CURVE SMOOTH",
"671 604 OFFCURVE",
"610 700 OFFCURVE",
"445 700 CURVE SMOOTH"
);
},
{
closed = 1;
nodes = (
"309 317 LINE",
"426 0 LINE",
"562 0 LINE",
"437 317 LINE"
);
}
);
width = 654.205;
},
{
anchors = (
{
name = bottom;
position = "{296, 0}";
},
{
name = top;
position = "{372, 679}";
}
);
hints = (
{
horizontal = 1;
place = "{6, 2}";
type = Stem;
},
{
horizontal = 1;
place = "{678, 22}";
type = Stem;
},
{
horizontal = 1;
place = "{0, 21}";
target = up;
type = BottomGhost;
}
);
layerId = "F7832249-9EF4-4513-B883-88BAA20BF268";
paths = (
{
closed = 1;
nodes = (
"548 401 OFFCURVE",
"472 325 OFFCURVE",
"329 325 CURVE SMOOTH",
"142 325 LINE",
"212 679 LINE",
"397 679 LINE SMOOTH",
"547 679 OFFCURVE",
"590 610 OFFCURVE",
"569 503 CURVE SMOOTH"
);
},
{
closed = 1;
nodes = (
"194 700 LINE",
"55 0 LINE",
"77 0 LINE",
"137 305 LINE",
"325 305 LINE SMOOTH",
"472 305 OFFCURVE",
"567 377 OFFCURVE",
"592 503 CURVE SMOOTH",
"615 619 OFFCURVE",
"562 700 OFFCURVE",
"401 700 CURVE SMOOTH"
);
},
{
closed = 1;
nodes = (
"339 313 LINE",
"469 0 LINE",
"497 0 LINE",
"365 313 LINE"
);
}
);
width = 598.7016;
},
{
anchors = (
{
name = bottom;
position = "{294, 1}";
},
{
name = top;
position = "{405, 702}";
}
);
hints = (
{
horizontal = 1;
place = "{553, 147}";
type = Stem;
},
{
horizontal = 1;
place = "{0, 21}";
target = up;
type = BottomGhost;
}
);
layerId = "9CDD62D3-67F3-4AC7-B192-D539276CE01F";
paths = (
{
closed = 1;
nodes = (
"489 418 OFFCURVE",
"453 387 OFFCURVE",
"391 387 CURVE SMOOTH",
"257 387 LINE",
"290 554 LINE",
"424 554 LINE SMOOTH",
"486 554 OFFCURVE",
"509 521 OFFCURVE",
"499 471 CURVE SMOOTH"
);
},
{
closed = 1;
nodes = (
"143 700 LINE",
"4 0 LINE",
"180 0 LINE",
"232 263 LINE",
"378 263 LINE SMOOTH",
"557 263 OFFCURVE",
"657 366 OFFCURVE",
"680 479 CURVE SMOOTH",
"704 601 OFFCURVE",
"637 700 OFFCURVE",
"465 700 CURVE SMOOTH"
);
},
{
closed = 1;
nodes = (
"286 303 LINE",
"392 0 LINE",
"590 0 LINE",
"474 303 LINE"
);
}
);
width = 666.8366;
}
);
leftMetricsKey = H;
rightMetricsKey = "=H/2";
unicode = 0052;
},
{
glyphname = Rcommaaccent;
lastChange = "2021-08-13 16:01:28 +0000";
layers = (
{
anchors = (
{
name = _bottom;
position = "{356, 0}";
}
);
components = (
{
alignment = -1;
name = R;
}
);
hints = (
{
horizontal = 1;
place = "{-143, 96}";
type = Stem;
},
{
horizontal = 1;
place = "{-272, 21}";
target = up;
type = BottomGhost;
}
);
layerId = "24A19461-EE5C-48C0-A968-CC082199DAC2";
paths = (
{
closed = 1;
nodes = (
"293 -47 LINE",
"274 -143 LINE",
"325 -143 LINE",
"321 -165 LINE SMOOTH",
"314 -203 OFFCURVE",
"295 -222 OFFCURVE",
"262 -222 CURVE",
"252 -272 LINE",
"326 -272 OFFCURVE",
"372 -230 OFFCURVE",
"389 -146 CURVE SMOOTH",
"395 -117 OFFCURVE",
"397 -84 OFFCURVE",
"396 -47 CURVE"
);
}
);
width = 654.21;
},
{
anchors = (
{
name = _bottom;
position = "{313, 0}";
}
);
components = (
{
alignment = -1;
name = R;
}
);
hints = (
{
horizontal = 1;
place = "{-3, 2}";
type = Stem;
},
{
horizontal = 1;
place = "{-177, 21}";
target = up;
type = BottomGhost;
}
);
layerId = "F7832249-9EF4-4513-B883-88BAA20BF268";
paths = (
{
closed = 1;
nodes = (
"276 -58 LINE",
"268 -97 LINE",
"299 -97 LINE",
"298 -105 LINE SMOOTH",
"291 -138 OFFCURVE",
"276 -158 OFFCURVE",
"244 -158 CURVE",
"240 -177 LINE",
"277 -177 OFFCURVE",
"310 -162 OFFCURVE",
"324 -91 CURVE SMOOTH",
"325 -81 OFFCURVE",
"327 -68 OFFCURVE",
"328 -58 CURVE"
);
}
);
width = 598.7066;
},
{
anchors = (
{
name = _bottom;
position = "{358, 1}";
}
);
components = (
{
alignment = -1;
name = R;
}
);
hints = (
{
horizontal = 1;
place = "{-196, 45}";
type = Stem;
},
{
horizontal = 1;
place = "{-164, 125}";
type = Stem;
}
);
layerId = "9CDD62D3-67F3-4AC7-B192-D539276CE01F";
paths = (
{
closed = 1;
nodes = (
"282 -38 LINE",
"257 -164 LINE",
"320 -164 LINE",
"317 -178 LINE SMOOTH",
"308 -224 OFFCURVE",
"286 -245 OFFCURVE",
"252 -245 CURVE",
"239 -312 LINE",
"336 -312 OFFCURVE",
"394 -248 OFFCURVE",
"412 -158 CURVE SMOOTH",
"419 -121 OFFCURVE",
"421 -81 OFFCURVE",
"415 -38 CURVE"
);
}
);
width = 666.8416;
}
);
leftMetricsKey = R;
rightMetricsKey = R;
unicode = 0156;
},
{
glyphname = S;
lastChange = "2021-08-13 16:01:28 +0000";
layers = (
{
anchors = (
{
name = bottom;
position = "{252, -7}";
},
{
name = top;
position = "{389, 709}";
}
);
hints = (
{
place = "{80, 122}";
type = Stem;
},
{
horizontal = 1;
place = "{-7, 97}";
type = Stem;
},
{
horizontal = 1;
place = "{611, 98}";
type = Stem;
}
);
layerId = "24A19461-EE5C-48C0-A968-CC082199DAC2";
paths = (
{
closed = 1;
nodes = (
"31 150 LINE",
"38 52 OFFCURVE",
"129 -7 OFFCURVE",
"251 -7 CURVE SMOOTH",
"406 -7 OFFCURVE",
"511 93 OFFCURVE",
"532 198 CURVE SMOOTH",
"583 454 OFFCURVE",
"195 355 OFFCURVE",
"227 513 CURVE SMOOTH",
"240 581 OFFCURVE",
"298 613 OFFCURVE",
"363 611 CURVE SMOOTH",
"430 609 OFFCURVE",
"470 572 OFFCURVE",
"475 528 CURVE",
"594 569 LINE",
"580 658 OFFCURVE",
"503 709 OFFCURVE",
"389 709 CURVE SMOOTH",
"247 709 OFFCURVE",
"135 632 OFFCURVE",
"110 509 CURVE SMOOTH",
"59 251 OFFCURVE",
"450 361 OFFCURVE",
"416 192 CURVE SMOOTH",
"404 133 OFFCURVE",
"351 89 OFFCURVE",
"271 89 CURVE SMOOTH",
"192 89 OFFCURVE",
"153 135 OFFCURVE",
"153 192 CURVE"
);
}
);
width = 593.53;
},
{
anchors = (
{
name = bottom;
position = "{227, 0}";
},
{
name = top;
position = "{362, 680}";
}
);
hints = (
{
place = "{2, 3}";
type = Stem;
},
{
horizontal = 1;
place = "{0, 2}";
type = Stem;
},
{
horizontal = 1;
place = "{13, 2}";
type = Stem;
}
);
layerId = "F7832249-9EF4-4513-B883-88BAA20BF268";
paths = (
{
closed = 1;
nodes = (
"41 139 LINE",
"49 61 OFFCURVE",
"109 -7 OFFCURVE",
"236 -7 CURVE SMOOTH",
"377 -7 OFFCURVE",
"463 85 OFFCURVE",
"480 170 CURVE SMOOTH",
"533 435 OFFCURVE",
"102 283 OFFCURVE",
"152 533 CURVE SMOOTH",
"171 628 OFFCURVE",
"268 687 OFFCURVE",
"368 687 CURVE SMOOTH",
"482 687 OFFCURVE",
"520 621 OFFCURVE",
"528 571 CURVE",
"550 579 LINE",
"540 642 OFFCURVE",
"492 707 OFFCURVE",
"372 707 CURVE SMOOTH",
"245 707 OFFCURVE",
"148 625 OFFCURVE",
"130 532 CURVE SMOOTH",
"76 263 OFFCURVE",
"507 415 OFFCURVE",
"458 170 CURVE SMOOTH",
"441 84 OFFCURVE",
"355 13 OFFCURVE",
"240 13 CURVE SMOOTH",
"106 13 OFFCURVE",
"70 89 OFFCURVE",
"63 147 CURVE"
);
}
);
width = 558.83426;
},
{
anchors = (
{
name = bottom;
position = "{254, -2}";
},
{
name = top;
position = "{393, 705}";
}
);
hints = (
{
place = "{66, 189}";
type = Stem;
},
{
horizontal = 1;
place = "{-6, 138}";
type = Stem;
},
{
horizontal = 1;
place = "{571, 138}";
type = Stem;
}
);
layerId = "9CDD62D3-67F3-4AC7-B192-D539276CE01F";
paths = (
{
closed = 1;
nodes = (
"17 172 LINE",
"23 53 OFFCURVE",
"125 -6 OFFCURVE",
"261 -6 CURVE SMOOTH",
"426 -6 OFFCURVE",
"536 83 OFFCURVE",
"560 202 CURVE SMOOTH",
"606 434 OFFCURVE",
"244 391 OFFCURVE",
"268 508 CURVE SMOOTH",
"276 551 OFFCURVE",
"316 573 OFFCURVE",
"358 571 CURVE SMOOTH",
"399 570 OFFCURVE",
"430 543 OFFCURVE",
"429 505 CURVE",
"613 544 LINE",
"606 652 OFFCURVE",
"524 710 OFFCURVE",
"387 710 CURVE SMOOTH",
"239 710 OFFCURVE",
"114 635 OFFCURVE",
"88 503 CURVE",
"37 256 OFFCURVE",
"404 324 OFFCURVE",
"378 197 CURVE SMOOTH",
"370 156 OFFCURVE",
"331 132 OFFCURVE",
"285 132 CURVE SMOOTH",
"239 132 OFFCURVE",
"206 158 OFFCURVE",
"205 213 CURVE"
);
}
);
width = 601.54632;
}
);
leftMetricsKey = "=H*0.6";
rightMetricsKey = "=H*0.6";
unicode = 0053;
},
{
glyphname = Scommaaccent;
lastChange = "2021-08-13 16:01:28 +0000";
layers = (
{
anchors = (
{
name = _bottom;
position = "{295, 0}";
}
);
components = (
{
alignment = -1;
name = S;
}
);
hints = (
{
horizontal = 1;
place = "{-143, 96}";
type = Stem;
},
{
horizontal = 1;
place = "{-272, 21}";
target = up;
type = BottomGhost;
}
);
layerId = "24A19461-EE5C-48C0-A968-CC082199DAC2";
paths = (
{
closed = 1;
nodes = (
"231 -47 LINE",
"212 -143 LINE",
"265 -143 LINE",
"260 -165 LINE SMOOTH",
"253 -203 OFFCURVE",
"234 -222 OFFCURVE",
"200 -222 CURVE",
"190 -272 LINE",
"265 -272 OFFCURVE",
"311 -230 OFFCURVE",
"328 -146 CURVE SMOOTH",
"334 -117 OFFCURVE",
"336 -84 OFFCURVE",
"334 -47 CURVE"
);
}
);
width = 593.11;
},
{
anchors = (
{
name = _bottom;
position = "{290, -7}";
}
);
components = (
{
alignment = -1;
name = S;
}
);
hints = (
{
horizontal = 1;
place = "{-3, 2}";
type = Stem;
},
{
horizontal = 1;
place = "{-177, 21}";
target = up;
type = BottomGhost;
}
);
layerId = "F7832249-9EF4-4513-B883-88BAA20BF268";
paths = (
{
closed = 1;
nodes = (
"255 -58 LINE",
"247 -97 LINE",
"279 -97 LINE",
"277 -105 LINE SMOOTH",
"271 -138 OFFCURVE",
"255 -158 OFFCURVE",
"223 -158 CURVE",
"220 -177 LINE",
"256 -177 OFFCURVE",
"289 -162 OFFCURVE",
"303 -91 CURVE SMOOTH",
"305 -81 OFFCURVE",
"306 -68 OFFCURVE",
"307 -58 CURVE"
);
}
);
width = 558.74702;
},
{
anchors = (
{
name = _bottom;
position = "{323, 1}";
}
);
components = (
{
alignment = -1;
name = S;
}
);
hints = (
{
horizontal = 1;
place = "{-196, 45}";
type = Stem;
},
{
horizontal = 1;
place = "{-164, 125}";
type = Stem;
}
);
layerId = "9CDD62D3-67F3-4AC7-B192-D539276CE01F";
paths = (
{
closed = 1;
nodes = (
"246 -38 LINE",
"221 -164 LINE",
"285 -164 LINE",
"282 -178 LINE SMOOTH",
"273 -224 OFFCURVE",
"251 -245 OFFCURVE",
"216 -245 CURVE",
"203 -312 LINE",
"300 -312 OFFCURVE",
"358 -248 OFFCURVE",
"376 -158 CURVE SMOOTH",
"384 -121 OFFCURVE",
"385 -81 OFFCURVE",
"379 -38 CURVE"
);
}
);
width = 601.1033;
}
);
leftMetricsKey = S;
rightMetricsKey = S;
unicode = 0218;
},
{
glyphname = Schwa;
lastChange = "2021-08-13 16:01:28 +0000";
layers = (
{
anchors = (
{
name = top;
position = "{472, 709}";
}
);
hints = (
{
horizontal = 1;
place = "{-7, 103}";
type = Stem;
},
{
horizontal = 1;
place = "{286, 107}";
type = Stem;
},
{
horizontal = 1;
place = "{604, 104}";
type = Stem;
}
);
layerId = "24A19461-EE5C-48C0-A968-CC082199DAC2";
paths = (
{
closed = 1;
nodes = (
"603 307 LINE SMOOTH",
"577 176 OFFCURVE",
"470 96 OFFCURVE",
"351 96 CURVE SMOOTH",
"228 96 OFFCURVE",
"158 172 OFFCURVE",
"177 286 CURVE",
"620 286 LINE",
"641 393 LINE",
"83 393 LINE",
"76 369 OFFCURVE",
"70 346 OFFCURVE",
"66 325 CURVE SMOOTH",
"24 113 OFFCURVE",
"136 -7 OFFCURVE",
"331 -7 CURVE SMOOTH",
"532 -7 OFFCURVE",
"694 140 OFFCURVE",
"736 351 CURVE SMOOTH",
"778 562 OFFCURVE",
"670 708 OFFCURVE",
"472 708 CURVE SMOOTH",
"314 708 OFFCURVE",
"181 623 OFFCURVE",
"107 488 CURVE",
"239 488 LINE",
"284 561 OFFCURVE",
"360 604 OFFCURVE",
"451 604 CURVE SMOOTH",
"576 604 OFFCURVE",
"644 511 OFFCURVE",
"616 372 CURVE SMOOTH"
);
}
);
width = 767;
},
{
anchors = (
{
name = top;
position = "{472, 706}";
}
);
hints = (
{
horizontal = 1;
place = "{0, 2}";
type = Stem;
},
{
horizontal = 1;
place = "{6, 2}";
type = Stem;
},
{
horizontal = 1;
place = "{13, 2}";
type = Stem;
}
);
layerId = "F7832249-9EF4-4513-B883-88BAA20BF268";
paths = (
{
closed = 1;
nodes = (
"705 345 LINE SMOOTH",
"662 130 OFFCURVE",
"503 12 OFFCURVE",
"329 12 CURVE SMOOTH",
"144 12 OFFCURVE",
"54 142 OFFCURVE",
"104 338 CURVE",
"711 338 LINE",
"714 357 LINE",
"86 357 LINE",
"82 342 OFFCURVE",
"78 327 OFFCURVE",
"75 312 CURVE SMOOTH",
"35 110 OFFCURVE",
"142 -8 OFFCURVE",
"325 -8 CURVE SMOOTH",
"524 -8 OFFCURVE",
"687 134 OFFCURVE",
"730 349 CURVE SMOOTH",
"772 559 OFFCURVE",
"667 706 OFFCURVE",
"473 706 CURVE SMOOTH",
"314 706 OFFCURVE",
"168 610 OFFCURVE",
"105 463 CURVE",
"129 463 LINE",
"190 604 OFFCURVE",
"329 686 OFFCURVE",
"469 686 CURVE SMOOTH",
"640 686 OFFCURVE",
"748 560 OFFCURVE",
"706 351 CURVE SMOOTH"
);
}
);
width = 772.87234;
},
{
anchors = (
{
name = top;
position = "{469, 714}";
}
);
hints = (
{
horizontal = 1;
place = "{-8, 162}";
type = Stem;
},
{
horizontal = 1;
place = "{284, 116}";
type = Stem;
},
{
horizontal = 1;
place = "{556, 158}";
type = Stem;
}
);
layerId = "9CDD62D3-67F3-4AC7-B192-D539276CE01F";
paths = (
{
closed = 1;
nodes = (
"554 309 LINE SMOOTH",
"534 210 OFFCURVE",
"445 153 OFFCURVE",
"355 153 CURVE SMOOTH",
"265 153 OFFCURVE",
"209 206 OFFCURVE",
"219 284 CURVE",
"572 284 LINE",
"595 400 LINE",
"66 400 LINE",
"59 380 OFFCURVE",
"53 358 OFFCURVE",
"50 339 CURVE SMOOTH",
"7 122 OFFCURVE",
"119 -8 OFFCURVE",
"325 -8 CURVE SMOOTH",
"535 -8 OFFCURVE",
"702 136 OFFCURVE",
"745 353 CURVE SMOOTH",
"789 572 OFFCURVE",
"677 714 OFFCURVE",
"469 714 CURVE SMOOTH",
"298 714 OFFCURVE",
"152 612 OFFCURVE",
"87 468 CURVE",
"277 468 LINE",
"308 523 OFFCURVE",
"371 556 OFFCURVE",
"440 556 CURVE SMOOTH",
"530 556 OFFCURVE",
"590 494 OFFCURVE",
"569 385 CURVE SMOOTH"
);
}
);
width = 756.64151;
}
);
leftMetricsKey = S;
rightMetricsKey = S;
unicode = 018F;
},
{
glyphname = T;
lastChange = "2021-08-13 16:01:28 +0000";
layers = (
{
anchors = (
{
name = bottom;
position = "{264, 0}";
},
{
name = top;
position = "{405, 701}";
}
);
hints = (
{
horizontal = 1;
place = "{607, 93}";
type = Stem;
},
{
horizontal = 1;
place = "{0, 21}";
target = up;
type = BottomGhost;
}
);
layerId = "24A19461-EE5C-48C0-A968-CC082199DAC2";
paths = (
{
closed = 1;
nodes = (
"114 607 LINE",
"330 607 LINE",
"209 0 LINE",
"323 0 LINE",
"444 607 LINE",
"659 607 LINE",
"677 700 LINE",
"132 700 LINE"
);
}
);
width = 630.01;
},
{
anchors = (
{
name = bottom;
position = "{246, 0}";
},
{
name = top;
position = "{384, 679}";
}
);
hints = (
{
horizontal = 1;
place = "{13, 2}";
type = Stem;
},
{
horizontal = 1;
place = "{0, 21}";
target = up;
type = BottomGhost;
}
);
layerId = "F7832249-9EF4-4513-B883-88BAA20BF268";
paths = (
{
closed = 1;
nodes = (
"138 681 LINE",
"373 681 LINE",
"237 0 LINE",
"259 0 LINE",
"395 681 LINE",
"629 681 LINE",
"633 700 LINE",
"142 700 LINE"
);
}
);
width = 595.74489;
},
{
anchors = (
{
name = bottom;
position = "{278, 1}";
},
{
name = top;
position = "{418, 702}";
}
);
hints = (
{
horizontal = 1;
place = "{559, 141}";
type = Stem;
},
{
horizontal = 1;
place = "{0, 21}";
target = up;
type = BottomGhost;
}
);
layerId = "9CDD62D3-67F3-4AC7-B192-D539276CE01F";
paths = (
{
closed = 1;
nodes = (
"88 559 LINE",
"304 559 LINE",
"193 0 LINE",
"369 0 LINE",
"480 559 LINE",
"697 559 LINE",
"725 700 LINE",
"116 700 LINE"
);
}
);
width = 662.23642;
}
);
leftMetricsKey = "=H/2";
rightMetricsKey = "=H/2";
unicode = 0054;
},
{
glyphname = Tcommaaccent;
lastChange = "2021-08-13 16:01:28 +0000";
layers = (
{
components = (
{
alignment = -1;
name = T;
}
);
hints = (
{
horizontal = 1;
place = "{-143, 96}";
type = Stem;
},
{
horizontal = 1;
place = "{-272, 21}";
target = up;
type = BottomGhost;
}
);
layerId = "24A19461-EE5C-48C0-A968-CC082199DAC2";
paths = (
{
closed = 1;
nodes = (
"255 -47 LINE",
"236 -143 LINE",
"288 -143 LINE",
"284 -165 LINE SMOOTH",
"277 -203 OFFCURVE",
"257 -222 OFFCURVE",
"224 -222 CURVE",
"214 -272 LINE",
"288 -272 OFFCURVE",
"334 -230 OFFCURVE",
"351 -146 CURVE SMOOTH",
"357 -117 OFFCURVE",
"359 -84 OFFCURVE",
"358 -47 CURVE"
);
}
);
width = 630;
},
{
components = (
{
alignment = -1;
name = T;
}
);
hints = (
{
horizontal = 1;
place = "{-3, 2}";
type = Stem;
},
{
horizontal = 1;
place = "{-177, 21}";
target = up;
type = BottomGhost;
}
);
layerId = "F7832249-9EF4-4513-B883-88BAA20BF268";
paths = (
{
closed = 1;
nodes = (
"265 -58 LINE",
"257 -97 LINE",
"288 -97 LINE",
"287 -105 LINE SMOOTH",
"280 -138 OFFCURVE",
"265 -158 OFFCURVE",
"233 -158 CURVE",
"229 -177 LINE",
"266 -177 OFFCURVE",
"298 -162 OFFCURVE",
"313 -91 CURVE SMOOTH",
"314 -81 OFFCURVE",
"316 -68 OFFCURVE",
"317 -58 CURVE"
);
}
);
width = 595.74468;
},
{
components = (
{
alignment = -1;
name = T;
}
);
hints = (
{
horizontal = 1;
place = "{-164, 125}";
type = Stem;
},
{
horizontal = 1;
place = "{-312, 21}";
target = up;
type = BottomGhost;
}
);
layerId = "9CDD62D3-67F3-4AC7-B192-D539276CE01F";
paths = (
{
closed = 1;
nodes = (
"254 -38 LINE",
"229 -164 LINE",
"292 -164 LINE",
"290 -178 LINE SMOOTH",
"281 -224 OFFCURVE",
"257 -245 OFFCURVE",
"224 -245 CURVE",
"211 -312 LINE",
"307 -312 OFFCURVE",
"365 -248 OFFCURVE",
"383 -158 CURVE SMOOTH",
"390 -121 OFFCURVE",
"393 -81 OFFCURVE",
"387 -38 CURVE"
);
}
);
width = 662.22642;
}
);
leftMetricsKey = T;
rightMetricsKey = T;
unicode = 021A;
},
{
glyphname = U;
lastChange = "2021-08-13 16:01:28 +0000";
layers = (
{
anchors = (
{
name = ogonek;
position = "{385, 0}";
},
{
name = top;
position = "{451, 701}";
}
);
hints = (
{
horizontal = 1;
place = "{-7, 100}";
type = Stem;
},
{
horizontal = 1;
place = "{700, -20}";
target = down;
type = TopGhost;
}
);
layerId = "24A19461-EE5C-48C0-A968-CC082199DAC2";
paths = (
{
closed = 1;
nodes = (
"82 255 LINE SMOOTH",
"46 77 OFFCURVE",
"164 -7 OFFCURVE",
"310 -7 CURVE SMOOTH",
"455 -7 OFFCURVE",
"609 77 OFFCURVE",
"645 255 CURVE SMOOTH",
"733 700 LINE",
"619 700 LINE",
"530 253 LINE SMOOTH",
"509 144 OFFCURVE",
"428 93 OFFCURVE",
"331 93 CURVE SMOOTH",
"235 93 OFFCURVE",
"174 144 OFFCURVE",
"195 253 CURVE SMOOTH",
"284 700 LINE",
"170 700 LINE"
);
}
);
width = 724.5;
},
{
anchors = (
{
name = ogonek;
position = "{359, 0}";
},
{
name = top;
position = "{429, 679}";
}
);
hints = (
{
horizontal = 1;
place = "{0, 2}";
type = Stem;
},
{
horizontal = 1;
place = "{700, -20}";
target = down;
type = TopGhost;
}
);
layerId = "F7832249-9EF4-4513-B883-88BAA20BF268";
paths = (
{
closed = 1;
nodes = (
"102 265 LINE SMOOTH",
"64 73 OFFCURVE",
"158 -7 OFFCURVE",
"296 -7 CURVE SMOOTH",
"434 -7 OFFCURVE",
"555 73 OFFCURVE",
"593 265 CURVE SMOOTH",
"679 700 LINE",
"657 700 LINE",
"571 265 LINE SMOOTH",
"534 80 OFFCURVE",
"421 13 OFFCURVE",
"300 13 CURVE SMOOTH",
"176 13 OFFCURVE",
"88 80 OFFCURVE",
"124 265 CURVE SMOOTH",
"211 700 LINE",
"189 700 LINE"
);
}
);
width = 689.27574;
},
{
anchors = (
{
name = ogonek;
position = "{389, 2}";
},
{
name = top;
position = "{446, 702}";
}
);
hints = (
{
horizontal = 1;
place = "{-7, 163}";
type = Stem;
},
{
horizontal = 1;
place = "{700, -20}";
target = down;
type = TopGhost;
}
);
layerId = "9CDD62D3-67F3-4AC7-B192-D539276CE01F";
paths = (
{
closed = 1;
nodes = (
"58 284 LINE SMOOTH",
"19 90 OFFCURVE",
"137 -7 OFFCURVE",
"301 -7 CURVE SMOOTH",
"464 -7 OFFCURVE",
"630 90 OFFCURVE",
"669 284 CURVE SMOOTH",
"752 700 LINE",
"576 700 LINE",
"493 284 LINE SMOOTH",
"477 203 OFFCURVE",
"416 156 OFFCURVE",
"337 156 CURVE SMOOTH",
"257 156 OFFCURVE",
"217 203 OFFCURVE",
"233 284 CURVE SMOOTH",
"316 700 LINE",
"140 700 LINE"
);
}
);
width = 713.33683;
}
);
leftMetricsKey = "=H*0.95";
rightMetricsKey = "=H*0.95";
unicode = 0055;
},
{
glyphname = V;
lastChange = "2021-08-13 16:01:28 +0000";
layers = (
{
hints = (
{
horizontal = 1;
place = "{0, 21}";
target = up;
type = BottomGhost;
},
{
horizontal = 1;
place = "{700, -20}";
target = down;
type = TopGhost;
}
);
layerId = "24A19461-EE5C-48C0-A968-CC082199DAC2";
paths = (
{
closed = 1;
nodes = (
"330 117 LINE",
"240 700 LINE",
"118 700 LINE",
"240 0 LINE",
"373 0 LINE",
"773 700 LINE",
"653 700 LINE"
);
}
);
width = 711.32334;
},
{
hints = (
{
horizontal = 1;
place = "{0, 21}";
target = up;
type = BottomGhost;
},
{
horizontal = 1;
place = "{700, -20}";
target = down;
type = TopGhost;
}
);
layerId = "F7832249-9EF4-4513-B883-88BAA20BF268";
paths = (
{
closed = 1;
nodes = (
"271 32 LINE",
"149 700 LINE",
"124 700 LINE",
"254 0 LINE",
"276 0 LINE",
"685 700 LINE",
"661 700 LINE"
);
}
);
width = 630.75156;
},
{
hints = (
{
horizontal = 1;
place = "{0, 21}";
target = up;
type = BottomGhost;
},
{
horizontal = 1;
place = "{700, -20}";
target = down;
type = TopGhost;
}
);
layerId = "9CDD62D3-67F3-4AC7-B192-D539276CE01F";
paths = (
{
closed = 1;
nodes = (
"362 176 LINE",
"295 700 LINE",
"107 700 LINE",
"217 0 LINE",
"438 0 LINE",
"825 700 LINE",
"638 700 LINE"
);
}
);
width = 753.25604;
}
);
leftMetricsKey = "=H/3";
rightMetricsKey = "=H/3";
unicode = 0056;
},
{
glyphname = W;
lastChange = "2021-08-13 16:01:28 +0000";
layers = (
{
hints = (
{
place = "{634, 99}";
type = Stem;
},
{
horizontal = 1;
place = "{700, -20}";
target = down;
type = TopGhost;
}
);
layerId = "24A19461-EE5C-48C0-A968-CC082199DAC2";
paths = (
{
closed = 1;
nodes = (
"563 529 LINE",
"604 0 LINE",
"734 0 LINE",
"1079 700 LINE",
"957 700 LINE",
"699 132 LINE",
"667 700 LINE",
"539 700 LINE",
"269 130 LINE",
"239 700 LINE",
"118 700 LINE",
"175 0 LINE",
"304 0 LINE"
);
}
);
width = 1017.41;
},
{
hints = (
{
place = "{207, 22}";
type = Stem;
},
{
horizontal = 1;
place = "{700, -20}";
target = down;
type = TopGhost;
}
);
layerId = "F7832249-9EF4-4513-B883-88BAA20BF268";
paths = (
{
closed = 1;
nodes = (
"535 664 LINE",
"610 0 LINE",
"632 0 LINE",
"961 700 LINE",
"937 700 LINE",
"629 40 LINE",
"554 700 LINE",
"530 700 LINE",
"194 42 LINE",
"148 700 LINE",
"124 700 LINE",
"174 0 LINE",
"195 0 LINE"
);
}
);
width = 906.41298;
},
{
hints = (
{
place = "{93, 124}";
type = Stem;
},
{
place = "{621, 148}";
type = Stem;
},
{
horizontal = 1;
place = "{0, 21}";
target = up;
type = BottomGhost;
},
{
horizontal = 1;
place = "{700, -20}";
target = down;
type = TopGhost;
}
);
layerId = "9CDD62D3-67F3-4AC7-B192-D539276CE01F";
paths = (
{
closed = 1;
nodes = (
"561 453 LINE",
"581 0 LINE",
"794 0 LINE",
"1114 700 LINE",
"925 700 LINE",
"728 206 LINE",
"709 700 LINE",
"516 700 LINE",
"296 205 LINE",
"296 700 LINE",
"107 700 LINE",
"145 0 LINE",
"358 0 LINE"
);
}
);
width = 1042.3567;
}
);
leftMetricsKey = V;
rightMetricsKey = V;
unicode = 0057;
},
{
glyphname = X;
lastChange = "2021-08-13 16:01:28 +0000";
layers = (
{
hints = (
{
horizontal = 1;
place = "{0, 21}";
target = up;
type = BottomGhost;
},
{
horizontal = 1;
place = "{700, -20}";
target = down;
type = TopGhost;
}
);
layerId = "24A19461-EE5C-48C0-A968-CC082199DAC2";
paths = (
{
closed = 1;
nodes = (
"438 0 LINE",
"566 0 LINE",
"274 700 LINE",
"146 700 LINE"
);
},
{
closed = 1;
nodes = (
"318 380 LINE",
"8 0 LINE",
"135 0 LINE",
"361 292 LINE"
);
},
{
closed = 1;
nodes = (
"396 319 LINE",
"707 700 LINE",
"580 700 LINE",
"353 408 LINE"
);
}
);
width = 673.59;
},
{
hints = (
{
horizontal = 1;
place = "{0, 21}";
target = up;
type = BottomGhost;
},
{
horizontal = 1;
place = "{700, -20}";
target = down;
type = TopGhost;
}
);
layerId = "F7832249-9EF4-4513-B883-88BAA20BF268";
paths = (
{
closed = 1;
nodes = (
"437 0 LINE",
"462 0 LINE",
"184 700 LINE",
"159 700 LINE"
);
},
{
closed = 1;
nodes = (
"308 369 LINE",
"20 0 LINE",
"45 0 LINE",
"322 358 LINE"
);
},
{
closed = 1;
nodes = (
"319 345 LINE",
"602 700 LINE",
"577 700 LINE",
"304 356 LINE"
);
}
);
width = 581.85426;
},
{
hints = (
{
horizontal = 1;
place = "{0, 21}";
target = up;
type = BottomGhost;
},
{
horizontal = 1;
place = "{700, -20}";
target = down;
type = TopGhost;
}
);
layerId = "9CDD62D3-67F3-4AC7-B192-D539276CE01F";
paths = (
{
closed = 1;
nodes = (
"458 0 LINE",
"665 0 LINE",
"331 700 LINE",
"125 700 LINE"
);
},
{
closed = 1;
nodes = (
"324 398 LINE",
"-8 0 LINE",
"192 0 LINE",
"399 262 LINE"
);
},
{
closed = 1;
nodes = (
"461 302 LINE",
"793 700 LINE",
"593 700 LINE",
"387 438 LINE"
);
}
);
width = 750.34642;
}
);
leftMetricsKey = "=H*0.666";
rightMetricsKey = "=H*0.666";
unicode = 0058;
},
{
glyphname = Y;
lastChange = "2021-08-13 16:01:28 +0000";
layers = (
{
anchors = (
{
name = top;
position = "{405, 701}";
}
);
hints = (
{
horizontal = 1;
place = "{700, -20}";
target = down;
type = TopGhost;
},
{
horizontal = 1;
place = "{0, 21}";
target = up;
type = BottomGhost;
}
);
layerId = "24A19461-EE5C-48C0-A968-CC082199DAC2";
paths = (
{
closed = 1;
nodes = (
"338 356 LINE",
"245 700 LINE",
"118 700 LINE",
"260 253 LINE",
"209 0 LINE",
"323 0 LINE",
"374 254 LINE",
"692 700 LINE",
"567 700 LINE"
);
}
);
width = 630.32;
},
{
anchors = (
{
name = top;
position = "{351, 679}";
}
);
hints = (
{
horizontal = 1;
place = "{700, -20}";
target = down;
type = TopGhost;
},
{
horizontal = 1;
place = "{0, 21}";
target = up;
type = BottomGhost;
}
);
layerId = "F7832249-9EF4-4513-B883-88BAA20BF268";
paths = (
{
closed = 1;
nodes = (
"278 316 LINE",
"151 700 LINE",
"124 700 LINE",
"264 293 LINE",
"205 0 LINE",
"227 0 LINE",
"286 293 LINE",
"585 700 LINE",
"559 700 LINE"
);
}
);
width = 530.74489;
},
{
anchors = (
{
name = top;
position = "{441, 702}";
}
);
hints = (
{
horizontal = 1;
place = "{700, -20}";
target = down;
type = TopGhost;
},
{
horizontal = 1;
place = "{0, 21}";
target = up;
type = BottomGhost;
}
);
layerId = "9CDD62D3-67F3-4AC7-B192-D539276CE01F";
paths = (
{
closed = 1;
nodes = (
"384 411 LINE",
"308 700 LINE",
"107 700 LINE",
"258 230 LINE",
"213 0 LINE",
"389 0 LINE",
"435 230 LINE",
"772 700 LINE",
"575 700 LINE"
);
}
);
width = 700.71151;
}
);
leftMetricsKey = V;
rightMetricsKey = V;
unicode = 0059;
},
{
glyphname = Z;
lastChange = "2021-08-13 16:01:28 +0000";
layers = (
{
anchors = (
{
name = top;
position = "{375, 701}";
}
);
hints = (
{
horizontal = 1;
place = "{0, 99}";
type = Stem;
},
{
horizontal = 1;
place = "{601, 100}";
type = Stem;
}
);
layerId = "24A19461-EE5C-48C0-A968-CC082199DAC2";
paths = (
{
closed = 1;
nodes = (
"644 700 LINE",
"146 700 LINE",
"126 601 LINE",
"488 601 LINE",
"25 89 LINE",
"7 0 LINE",
"505 0 LINE",
"525 99 LINE",
"162 99 LINE",
"626 611 LINE"
);
}
);
width = 611.23;
},
{
anchors = (
{
name = top;
position = "{365, 679}";
}
);
hints = (
{
horizontal = 1;
place = "{0, 2}";
type = Stem;
},
{
horizontal = 1;
place = "{678, 22}";
type = Stem;
}
);
layerId = "F7832249-9EF4-4513-B883-88BAA20BF268";
paths = (
{
closed = 1;
nodes = (
"607 700 LINE",
"172 700 LINE",
"168 678 LINE",
"580 678 LINE",
"24 20 LINE",
"20 0 LINE",
"478 0 LINE",
"482 21 LINE",
"48 21 LINE",
"603 679 LINE"
);
}
);
width = 597.16574;
},
{
anchors = (
{
name = top;
position = "{375.554, 702}";
}
);
hints = (
{
horizontal = 1;
place = "{0, 144}";
type = Stem;
},
{
horizontal = 1;
place = "{557, 144}";
type = Stem;
}
);
layerId = "9CDD62D3-67F3-4AC7-B192-D539276CE01F";
paths = (
{
closed = 1;
nodes = (
"665.554 700 LINE",
"125.554 700 LINE",
"97.554 557 LINE",
"433.554 557 LINE",
"12.554 134 LINE",
"-13.446 0 LINE",
"525.554 0 LINE",
"554.554 144 LINE",
"214.554 144 LINE",
"638.554 566 LINE"
);
}
);
width = 611.68357;
}
);
leftMetricsKey = "=H*0.666";
rightMetricsKey = "=H*0.666";
unicode = 005A;
},
{
glyphname = a;
lastChange = "2021-08-13 16:01:28 +0000";
layers = (
{
anchors = (
{
name = ogonek;
position = "{425, 0}";
},
{
name = top;
position = "{320, 510}";
}
);
guideLines = (
{
position = "{-50.383, 81.65}";
showMeasurement = 1;
},
{
position = "{-50.383, 419.86}";
},
{
position = "{-50.383, 299}";
},
{
position = "{-50.383, 207}";
}
);
hints = (
{
horizontal = 1;
place = "{-9, 99}";
type = Stem;
},
{
horizontal = 1;
place = "{411, 98}";
type = Stem;
}
);
layerId = "24A19461-EE5C-48C0-A968-CC082199DAC2";
paths = (
{
closed = 1;
nodes = (
"425 0 LINE",
"483 293 LINE SMOOTH",
"512 439 OFFCURVE",
"448 510 OFFCURVE",
"326 510 CURVE SMOOTH",
"220 510 OFFCURVE",
"127 454 OFFCURVE",
"86 367 CURVE",
"179 331 LINE",
"204 383 OFFCURVE",
"248 411 OFFCURVE",
"300 411 CURVE SMOOTH",
"367 411 OFFCURVE",
"385 382 OFFCURVE",
"379 349 CURVE SMOOTH",
"371 313 OFFCURVE",
"337 305 OFFCURVE",
"276 298 CURVE SMOOTH",
"170 286 OFFCURVE",
"49 257 OFFCURVE",
"25 138 CURVE SMOOTH",
"7 48 OFFCURVE",
"64 -9 OFFCURVE",
"168 -9 CURVE SMOOTH",
"237 -9 OFFCURVE",
"286 22 OFFCURVE",
"323 61 CURVE",
"319 0 LINE"
);
},
{
closed = 1;
nodes = (
"352 217 LINE",
"335 130 OFFCURVE",
"270 90 OFFCURVE",
"209 90 CURVE SMOOTH",
"160 90 OFFCURVE",
"136 109 OFFCURVE",
"143 143 CURVE SMOOTH",
"150 178 OFFCURVE",
"172 195 OFFCURVE",
"240 204 CURVE SMOOTH",
"353 219 LINE"
);
}
);
width = 543.407;
},
{
anchors = (
{
name = ogonek;
position = "{396.455, 0}";
},
{
name = top;
position = "{315.455, 505}";
}
);
hints = (
{
horizontal = 1;
place = "{0, 2}";
type = Stem;
},
{
horizontal = 1;
place = "{9, 2}";
type = Stem;
}
);
layerId = "F7832249-9EF4-4513-B883-88BAA20BF268";
paths = (
{
closed = 1;
nodes = (
"396.455 0 LINE",
"459.455 315 LINE SMOOTH",
"486.455 450 OFFCURVE",
"409.455 508 OFFCURVE",
"316.455 508 CURVE SMOOTH",
"219.455 508 OFFCURVE",
"136.455 448 OFFCURVE",
"98.455 368 CURVE",
"116.455 361 LINE",
"151.455 436 OFFCURVE",
"233.455 488 OFFCURVE",
"312.455 488 CURVE SMOOTH",
"420.455 488 OFFCURVE",
"455.455 405 OFFCURVE",
"440.455 327 CURVE SMOOTH",
"432.455 288 OFFCURVE",
"411.455 292 OFFCURVE",
"254.455 276 CURVE SMOOTH",
"133.455 264 OFFCURVE",
"50.455 214 OFFCURVE",
"33.455 127 CURVE SMOOTH",
"15.455 38 OFFCURVE",
"74.455 -6 OFFCURVE",
"176.455 -6 CURVE SMOOTH",
"279.455 -6 OFFCURVE",
"360.455 47 OFFCURVE",
"401.455 139 CURVE",
"374.455 0 LINE"
);
},
{
closed = 1;
nodes = (
"420.455 235 LINE",
"394.455 100 OFFCURVE",
"303.455 14 OFFCURVE",
"181.455 14 CURVE SMOOTH",
"91.455 14 OFFCURVE",
"39.455 49 OFFCURVE",
"54.455 127 CURVE SMOOTH",
"69.455 203 OFFCURVE",
"144.455 245 OFFCURVE",
"249.455 256 CURVE SMOOTH",
"428.455 274 LINE"
);
}
);
width = 531.2584;
},
{
anchors = (
{
name = ogonek;
position = "{450, 0}";
},
{
name = top;
position = "{315, 500}";
}
);
hints = (
{
horizontal = 1;
place = "{366, 143}";
type = Stem;
},
{
horizontal = 1;
place = "{-5, 21}";
target = up;
type = BottomGhost;
}
);
layerId = "9CDD62D3-67F3-4AC7-B192-D539276CE01F";
paths = (
{
closed = 1;
nodes = (
"450 0 LINE",
"509 292 LINE SMOOTH",
"537 434 OFFCURVE",
"465 509 OFFCURVE",
"320 509 CURVE SMOOTH",
"216 509 OFFCURVE",
"121 458 OFFCURVE",
"72 370 CURVE",
"216 318 LINE",
"230 348 OFFCURVE",
"259 365 OFFCURVE",
"289 365 CURVE SMOOTH",
"327 365 OFFCURVE",
"343 349 OFFCURVE",
"339 329 CURVE SMOOTH",
"335 309 OFFCURVE",
"309 303 OFFCURVE",
"257 296 CURVE SMOOTH",
"124 278 OFFCURVE",
"27 235 OFFCURVE",
"7 138 CURVE SMOOTH",
"-11 44 OFFCURVE",
"50 -9 OFFCURVE",
"146 -9 CURVE SMOOTH",
"204 -9 OFFCURVE",
"254 17 OFFCURVE",
"291 52 CURVE",
"290 0 LINE"
);
},
{
closed = 1;
nodes = (
"313 203 LINE SMOOTH",
"303 153 OFFCURVE",
"266 124 OFFCURVE",
"228 124 CURVE SMOOTH",
"201 124 OFFCURVE",
"185 138 OFFCURVE",
"189 159 CURVE SMOOTH",
"193 180 OFFCURVE",
"209 193 OFFCURVE",
"251 199 CURVE SMOOTH",
"314 207 LINE"
);
}
);
width = 543.29133;
}
);
leftMetricsKey = "=l*0.618";
rightMetricsKey = "=l*0.9";
unicode = 0061;
},
{
glyphname = ae;
lastChange = "2021-08-13 16:04:24 +0000";
layers = (
{
guideLines = (
{
position = "{-50.39, 426.08}";
}
);
hints = (
{
horizontal = 1;
place = "{-9, 97}";
type = Stem;
},
{
horizontal = 1;
place = "{207, 92}";
type = Stem;
},
{
horizontal = 1;
place = "{411, 97}";
type = Stem;
},
{
horizontal = 1;
place = "{413, 96}";
type = Stem;
},
{
horizontal = 1;
place = "{-9, 99}";
type = Stem;
}
);
layerId = "24A19461-EE5C-48C0-A968-CC082199DAC2";
paths = (
{
closed = 1;
nodes = (
"179 331 LINE",
"204 383 OFFCURVE",
"248 411 OFFCURVE",
"300 411 CURVE SMOOTH",
"367 411 OFFCURVE",
"385 381 OFFCURVE",
"378 348 CURVE SMOOTH",
"372 315 OFFCURVE",
"337 305 OFFCURVE",
"276 298 CURVE SMOOTH",
"170 286 OFFCURVE",
"49 257 OFFCURVE",
"25 138 CURVE SMOOTH",
"7 48 OFFCURVE",
"64 -9 OFFCURVE",
"168 -9 CURVE SMOOTH",
"236 -9 OFFCURVE",
"337 13 OFFCURVE",
"397 110 CURVE",
"425 143 LINE",
"476 256 LINE",
"483 293 LINE SMOOTH",
"512 439 OFFCURVE",
"448 510 OFFCURVE",
"326 510 CURVE SMOOTH",
"220 510 OFFCURVE",
"127 454 OFFCURVE",
"86 367 CURVE"
);
},
{
closed = 1;
nodes = (
"150 178 OFFCURVE",
"172 195 OFFCURVE",
"240 204 CURVE SMOOTH",
"353 219 LINE",
"352 217 LINE",
"335 130 OFFCURVE",
"270 90 OFFCURVE",
"209 90 CURVE SMOOTH",
"160 90 OFFCURVE",
"136 109 OFFCURVE",
"143 143 CURVE SMOOTH"
);
},
{
closed = 1;
nodes = (
"668 -8 OFFCURVE",
"755 42 OFFCURVE",
"809 119 CURVE",
"713 157 LINE",
"681 112 OFFCURVE",
"638 88 OFFCURVE",
"572 88 CURVE SMOOTH",
"503 88 OFFCURVE",
"460 132 OFFCURVE",
"468 207 CURVE",
"832 207 LINE",
"840 228 OFFCURVE",
"844 245 OFFCURVE",
"848 262 CURVE SMOOTH",
"877 410 OFFCURVE",
"799 509 OFFCURVE",
"655 509 CURVE SMOOTH",
"506 509 OFFCURVE",
"390 408 OFFCURVE",
"358 251 CURVE SMOOTH",
"327 94 OFFCURVE",
"412 -8 OFFCURVE",
"556 -8 CURVE SMOOTH"
);
},
{
closed = 1;
nodes = (
"487 299 LINE",
"513 368 OFFCURVE",
"570 413 OFFCURVE",
"632 413 CURVE SMOOTH",
"703 413 OFFCURVE",
"747 371 OFFCURVE",
"736 299 CURVE"
);
}
);
width = 891.65;
},
{
hints = (
{
horizontal = 1;
place = "{0, 2}";
type = Stem;
},
{
horizontal = 1;
place = "{4, 2}";
type = Stem;
},
{
horizontal = 1;
place = "{9, 2}";
type = Stem;
},
{
horizontal = 1;
place = "{9, 2}";
type = Stem;
},
{
horizontal = 1;
place = "{0, 2}";
type = Stem;
}
);
layerId = "F7832249-9EF4-4513-B883-88BAA20BF268";
paths = (
{
closed = 1;
nodes = (
"120.45 366 LINE",
"159.45 442 OFFCURVE",
"233.45 488 OFFCURVE",
"315.45 488 CURVE SMOOTH",
"424.45 488 OFFCURVE",
"458.45 406 OFFCURVE",
"443.45 327 CURVE SMOOTH",
"435.45 288 OFFCURVE",
"414.45 290 OFFCURVE",
"256.45 274 CURVE SMOOTH",
"135.45 262 OFFCURVE",
"50.45 214 OFFCURVE",
"33.45 127 CURVE SMOOTH",
"15.45 38 OFFCURVE",
"77.45 -6 OFFCURVE",
"179.45 -6 CURVE SMOOTH",
"274.45 -6 OFFCURVE",
"382.45 49 OFFCURVE",
"426.45 175 CURVE",
"430.45 194 LINE",
"450.45 251 LINE",
"463.45 315 LINE SMOOTH",
"490.45 449 OFFCURVE",
"414.45 508 OFFCURVE",
"319.45 508 CURVE SMOOTH",
"222.45 508 OFFCURVE",
"142.45 450 OFFCURVE",
"102.45 373 CURVE"
);
},
{
closed = 1;
nodes = (
"70.45 204 OFFCURVE",
"146.45 245 OFFCURVE",
"252.45 256 CURVE SMOOTH",
"432.45 274 LINE",
"424.45 235 LINE",
"398.45 100 OFFCURVE",
"306.45 14 OFFCURVE",
"184.45 14 CURVE SMOOTH",
"94.45 14 OFFCURVE",
"39.45 49 OFFCURVE",
"54.45 127 CURVE SMOOTH"
);
},
{
closed = 1;
nodes = (
"723.45 -6 OFFCURVE",
"808.45 49 OFFCURVE",
"857.45 130 CURVE",
"839.45 137 LINE",
"792.45 59 OFFCURVE",
"712.45 14 OFFCURVE",
"615.45 14 CURVE SMOOTH",
"503.45 14 OFFCURVE",
"420.45 86 OFFCURVE",
"451.45 251 CURVE",
"887.45 251 LINE",
"892.45 268 OFFCURVE",
"893.45 282 OFFCURVE",
"895.45 292 CURVE SMOOTH",
"917.45 399 OFFCURVE",
"866.45 508 OFFCURVE",
"713.45 508 CURVE SMOOTH",
"574.45 508 OFFCURVE",
"461.45 413 OFFCURVE",
"430.45 256 CURVE SMOOTH",
"398.45 95 OFFCURVE",
"472.45 -6 OFFCURVE",
"611.45 -6 CURVE SMOOTH"
);
},
{
closed = 1;
nodes = (
"455.45 271 LINE",
"490.45 422 OFFCURVE",
"602.45 488 OFFCURVE",
"709.45 488 CURVE SMOOTH",
"823.45 488 OFFCURVE",
"907.45 412 OFFCURVE",
"869.45 271 CURVE"
);
}
);
width = 944.31894;
},
{
hints = (
{
horizontal = 1;
place = "{365, 143}";
type = Stem;
},
{
horizontal = 1;
place = "{291, 106}";
type = Stem;
},
{
horizontal = 1;
place = "{84, 141}";
type = Stem;
},
{
horizontal = 1;
place = "{-5, 21}";
target = up;
type = BottomGhost;
}
);
layerId = "9CDD62D3-67F3-4AC7-B192-D539276CE01F";
paths = (
{
closed = 1;
nodes = (
"216 318 LINE",
"230 348 OFFCURVE",
"258 364 OFFCURVE",
"288 364 CURVE SMOOTH",
"326 364 OFFCURVE",
"343 349 OFFCURVE",
"339 328 CURVE SMOOTH",
"335 309 OFFCURVE",
"309 303 OFFCURVE",
"257 296 CURVE SMOOTH",
"124 278 OFFCURVE",
"27 235 OFFCURVE",
"7 138 CURVE SMOOTH",
"-11 44 OFFCURVE",
"50 -9 OFFCURVE",
"146 -9 CURVE SMOOTH",
"237 -9 OFFCURVE",
"324 6 OFFCURVE",
"396 93 CURVE",
"419 117 LINE",
"503 263 LINE",
"509 292 LINE SMOOTH",
"537 434 OFFCURVE",
"465 509 OFFCURVE",
"320 509 CURVE SMOOTH",
"216 509 OFFCURVE",
"121 458 OFFCURVE",
"72 370 CURVE"
);
},
{
closed = 1;
nodes = (
"194 180 OFFCURVE",
"209 193 OFFCURVE",
"251 199 CURVE SMOOTH",
"314 207 LINE",
"313 203 LINE SMOOTH",
"303 153 OFFCURVE",
"266 125 OFFCURVE",
"228 125 CURVE SMOOTH",
"201 125 OFFCURVE",
"185 138 OFFCURVE",
"189 159 CURVE SMOOTH"
);
},
{
closed = 1;
nodes = (
"641 -6 OFFCURVE",
"742 50 OFFCURVE",
"799 143 CURVE",
"639 181 LINE",
"617 151 OFFCURVE",
"592 136 OFFCURVE",
"552 136 CURVE SMOOTH",
"514 136 OFFCURVE",
"488 161 OFFCURVE",
"489 205 CURVE",
"812 205 LINE",
"820 226 OFFCURVE",
"824 244 OFFCURVE",
"827 258 CURVE SMOOTH",
"858 411 OFFCURVE",
"774 508 OFFCURVE",
"626 508 CURVE SMOOTH",
"475 508 OFFCURVE",
"353 409 OFFCURVE",
"321 251 CURVE SMOOTH",
"290 92 OFFCURVE",
"376 -7 OFFCURVE",
"525 -7 CURVE"
);
},
{
closed = 1;
nodes = (
"519 308 LINE",
"537 343 OFFCURVE",
"569 366 OFFCURVE",
"604 366 CURVE SMOOTH",
"641 366 OFFCURVE",
"666 345 OFFCURVE",
"665 308 CURVE"
);
}
);
width = 854.45755;
}
);
leftMetricsKey = a;
rightMetricsKey = e;
unicode = 00E6;
},
{
glyphname = b;
lastChange = "2021-08-13 16:04:24 +0000";
layers = (
{
hints = (
{
horizontal = 1;
place = "{-8, 98}";
type = Stem;
},
{
horizontal = 1;
place = "{410, 98}";
type = Stem;
},
{
horizontal = 1;
place = "{720, -20}";
target = down;
type = TopGhost;
}
);
layerId = "24A19461-EE5C-48C0-A968-CC082199DAC2";
rightMetricsKey = "=l*0.5";
paths = (
{
closed = 1;
nodes = (
"225 423 LINE",
"284 720 LINE",
"170 720 LINE",
"27 0 LINE",
"131 0 LINE",
"151 62 LINE",
"179 23 OFFCURVE",
"229 -8 OFFCURVE",
"304 -8 CURVE SMOOTH",
"436 -8 OFFCURVE",
"553 98 OFFCURVE",
"583 253 CURVE SMOOTH",
"614 407 OFFCURVE",
"540 509 OFFCURVE",
"407 509 CURVE SMOOTH",
"327 509 OFFCURVE",
"256 471 OFFCURVE",
"214 426 CURVE"
);
},
{
closed = 1;
nodes = (
"447 150 OFFCURVE",
"374 90 OFFCURVE",
"301 90 CURVE SMOOTH",
"229 90 OFFCURVE",
"170 148 OFFCURVE",
"191 251 CURVE SMOOTH",
"211 353 OFFCURVE",
"292 410 OFFCURVE",
"365 410 CURVE SMOOTH",
"438 410 OFFCURVE",
"488 355 OFFCURVE",
"468 253 CURVE SMOOTH"
);
}
);
width = 620.55;
},
{
hints = (
{
horizontal = 1;
place = "{0, 2}";
type = Stem;
},
{
horizontal = 1;
place = "{9, 2}";
type = Stem;
},
{
horizontal = 1;
place = "{720, -20}";
target = down;
type = TopGhost;
}
);
layerId = "F7832249-9EF4-4513-B883-88BAA20BF268";
paths = (
{
closed = 1;
nodes = (
"137 357 LINE",
"210 720 LINE",
"188 720 LINE",
"44 0 LINE",
"66 0 LINE",
"95 145 LINE",
"107 61 OFFCURVE",
"165 -7 OFFCURVE",
"280 -7 CURVE SMOOTH",
"424 -7 OFFCURVE",
"541 91 OFFCURVE",
"572 251 CURVE SMOOTH",
"604 410 OFFCURVE",
"526 508 OFFCURVE",
"382 508 CURVE SMOOTH",
"263 508 OFFCURVE",
"181 441 OFFCURVE",
"135 353 CURVE"
);
},
{
closed = 1;
nodes = (
"521 103 OFFCURVE",
"419 13 OFFCURVE",
"283 13 CURVE SMOOTH",
"155 13 OFFCURVE",
"88 108 OFFCURVE",
"116 251 CURVE SMOOTH",
"145 394 OFFCURVE",
"249 488 OFFCURVE",
"378 488 CURVE SMOOTH",
"513 488 OFFCURVE",
"580 398 OFFCURVE",
"550 251 CURVE SMOOTH"
);
}
);
width = 619.27766;
},
{
hints = (
{
horizontal = 1;
place = "{171, 153}";
type = Stem;
},
{
horizontal = 1;
place = "{720, -20}";
target = down;
type = TopGhost;
}
);
layerId = "9CDD62D3-67F3-4AC7-B192-D539276CE01F";
paths = (
{
closed = 1;
nodes = (
"258 422 LINE",
"318 720 LINE",
"142 720 LINE",
"-2 0 LINE",
"158 0 LINE",
"178 53 LINE",
"204 19 OFFCURVE",
"248 -7 OFFCURVE",
"307 -7 CURVE SMOOTH",
"431 -7 OFFCURVE",
"546 93 OFFCURVE",
"577 251 CURVE SMOOTH",
"609 410 OFFCURVE",
"534 508 OFFCURVE",
"409 508 CURVE SMOOTH",
"335 508 OFFCURVE",
"272 468 OFFCURVE",
"234 422 CURVE"
);
},
{
closed = 1;
nodes = (
"385 184 OFFCURVE",
"339 146 OFFCURVE",
"292 146 CURVE SMOOTH",
"245 146 OFFCURVE",
"210 183 OFFCURVE",
"224 251 CURVE SMOOTH",
"237 318 OFFCURVE",
"287 355 OFFCURVE",
"334 355 CURVE SMOOTH",
"381 355 OFFCURVE",
"412 319 OFFCURVE",
"399 251 CURVE SMOOTH"
);
}
);
width = 601.00929;
}
);
leftMetricsKey = l;
unicode = 0062;
},
{
glyphname = c;
lastChange = "2021-08-13 16:02:57 +0000";
layers = (
{
anchors = (
{
name = bottom;
position = "{237, 5}";
},
{
name = top;
position = "{335, 496}";
}
);
hints = (
{
horizontal = 1;
place = "{-8, 98}";
type = Stem;
},
{
horizontal = 1;
place = "{410, 98}";
type = Stem;
}
);
layerId = "24A19461-EE5C-48C0-A968-CC082199DAC2";
paths = (
{
closed = 1;
nodes = (
"347 -8 OFFCURVE",
"439 44 OFFCURVE",
"495 123 CURVE",
"396 162 LINE",
"364 113 OFFCURVE",
"317 90 OFFCURVE",
"261 90 CURVE SMOOTH",
"188 90 OFFCURVE",
"143 153 OFFCURVE",
"163 251 CURVE SMOOTH",
"182 348 OFFCURVE",
"252 410 OFFCURVE",
"324 410 CURVE SMOOTH",
"381 410 OFFCURVE",
"419 383 OFFCURVE",
"428 337 CURVE",
"544 376 LINE",
"522 461 OFFCURVE",
"451 509 OFFCURVE",
"344 509 CURVE SMOOTH",
"200 509 OFFCURVE",
"77 407 OFFCURVE",
"46 251 CURVE SMOOTH",
"15 94 OFFCURVE",
"97 -8 OFFCURVE",
"241 -8 CURVE SMOOTH"
);
}
);
width = 574.97;
},
{
anchors = (
{
name = bottom;
position = "{244.44, 1}";
},
{
name = top;
position = "{343.44, 501}";
}
);
hints = (
{
horizontal = 1;
place = "{0, 2}";
type = Stem;
},
{
horizontal = 1;
place = "{9, 2}";
type = Stem;
}
);
layerId = "F7832249-9EF4-4513-B883-88BAA20BF268";
paths = (
{
closed = 1;
nodes = (
"357.44 -6 OFFCURVE",
"445.44 48 OFFCURVE",
"491.44 129 CURVE",
"474.44 136 LINE",
"431.44 58 OFFCURVE",
"346.44 14 OFFCURVE",
"249.44 14 CURVE SMOOTH",
"135.44 14 OFFCURVE",
"45.44 86 OFFCURVE",
"77.44 251 CURVE SMOOTH",
"110.44 415 OFFCURVE",
"230.44 488 OFFCURVE",
"344.44 488 CURVE SMOOTH",
"440.44 488 OFFCURVE",
"506.44 443 OFFCURVE",
"519.44 366 CURVE",
"540.44 372 LINE",
"526.44 453 OFFCURVE",
"459.44 508 OFFCURVE",
"348.44 508 CURVE SMOOTH",
"209.44 508 OFFCURVE",
"88.44 412 OFFCURVE",
"56.44 251 CURVE SMOOTH",
"24.44 90 OFFCURVE",
"106.44 -6 OFFCURVE",
"245.44 -6 CURVE SMOOTH"
);
}
);
width = 583.61979;
},
{
anchors = (
{
name = bottom;
position = "{228, 11}";
},
{
name = top;
position = "{323, 490}";
}
);
hints = (
{
horizontal = 1;
place = "{-7, 150}";
type = Stem;
},
{
horizontal = 1;
place = "{357, 150}";
type = Stem;
}
);
layerId = "9CDD62D3-67F3-4AC7-B192-D539276CE01F";
paths = (
{
closed = 1;
nodes = (
"343 -6 OFFCURVE",
"446 56 OFFCURVE",
"500 157 CURVE",
"342 197 LINE",
"321 162 OFFCURVE",
"292 144 OFFCURVE",
"261 144 CURVE SMOOTH",
"220 144 OFFCURVE",
"192 182 OFFCURVE",
"206 251 CURVE SMOOTH",
"219 318 OFFCURVE",
"262 357 OFFCURVE",
"303 357 CURVE SMOOTH",
"334 357 OFFCURVE",
"357 337 OFFCURVE",
"362 304 CURVE",
"537 343 LINE",
"524 448 OFFCURVE",
"447 508 OFFCURVE",
"334 508 CURVE SMOOTH",
"185 508 OFFCURVE",
"60 409 OFFCURVE",
"29 251 CURVE SMOOTH",
"-3 92 OFFCURVE",
"83 -7 OFFCURVE",
"231 -7 CURVE"
);
}
);
width = 552.976;
}
);
leftMetricsKey = o;
rightMetricsKey = "=o*1.2";
unicode = 0063;
},
{
glyphname = d;
lastChange = "2021-08-13 16:03:00 +0000";
layers = (
{
anchors = (
{
name = topright;
position = "{635, 664}";
}
);
hints = (
{
horizontal = 1;
place = "{-8, 98}";
type = Stem;
},
{
horizontal = 1;
place = "{720, -20}";
target = down;
type = TopGhost;
}
);
layerId = "24A19461-EE5C-48C0-A968-CC082199DAC2";
paths = (
{
closed = 1;
nodes = (
"468 439 LINE",
"441 477 OFFCURVE",
"387 509 OFFCURVE",
"318 509 CURVE SMOOTH",
"184 509 OFFCURVE",
"69 407 OFFCURVE",
"39 253 CURVE SMOOTH",
"8 98 OFFCURVE",
"82 -8 OFFCURVE",
"215 -8 CURVE SMOOTH",
"290 -8 OFFCURVE",
"352 23 OFFCURVE",
"395 62 CURVE",
"391 0 LINE",
"495 0 LINE",
"638 720 LINE",
"524 720 LINE"
);
},
{
closed = 1;
nodes = (
"175 355 OFFCURVE",
"247 410 OFFCURVE",
"320 410 CURVE SMOOTH",
"393 410 OFFCURVE",
"451 353 OFFCURVE",
"431 251 CURVE SMOOTH",
"410 148 OFFCURVE",
"329 90 OFFCURVE",
"257 90 CURVE SMOOTH",
"183 90 OFFCURVE",
"134 150 OFFCURVE",
"155 253 CURVE SMOOTH"
);
}
);
width = 621.24;
},
{
anchors = (
{
name = topright;
position = "{606, 719}";
}
);
hints = (
{
horizontal = 1;
place = "{0, 2}";
type = Stem;
},
{
horizontal = 1;
place = "{721, -20}";
target = down;
type = TopGhost;
}
);
layerId = "F7832249-9EF4-4513-B883-88BAA20BF268";
paths = (
{
closed = 1;
nodes = (
"524 357 LINE",
"511 441 OFFCURVE",
"455 508 OFFCURVE",
"340 508 CURVE SMOOTH",
"196 508 OFFCURVE",
"79 410 OFFCURVE",
"47 251 CURVE SMOOTH",
"15 91 OFFCURVE",
"94 -7 OFFCURVE",
"237 -7 CURVE SMOOTH",
"354 -7 OFFCURVE",
"437 58 OFFCURVE",
"482 144 CURVE",
"454 0 LINE",
"475 0 LINE",
"619 721 LINE",
"597 721 LINE"
);
},
{
closed = 1;
nodes = (
"99 398 OFFCURVE",
"201 488 OFFCURVE",
"336 488 CURVE SMOOTH",
"465 488 OFFCURVE",
"532 394 OFFCURVE",
"503 251 CURVE SMOOTH",
"475 108 OFFCURVE",
"371 13 OFFCURVE",
"242 13 CURVE SMOOTH",
"106 13 OFFCURVE",
"40 103 OFFCURVE",
"69 251 CURVE SMOOTH"
);
}
);
width = 619.28255;
},
{
anchors = (
{
name = topright;
position = "{610, 646}";
}
);
hints = (
{
horizontal = 1;
place = "{177, 153}";
type = Stem;
},
{
horizontal = 1;
place = "{-3, 21}";
target = up;
type = BottomGhost;
},
{
horizontal = 1;
place = "{720, -20}";
target = down;
type = TopGhost;
}
);
layerId = "9CDD62D3-67F3-4AC7-B192-D539276CE01F";
paths = (
{
closed = 1;
nodes = (
"417 454 LINE",
"392 484 OFFCURVE",
"351 508 OFFCURVE",
"294 508 CURVE SMOOTH",
"169 508 OFFCURVE",
"56 410 OFFCURVE",
"24 251 CURVE SMOOTH",
"-7 93 OFFCURVE",
"67 -7 OFFCURVE",
"192 -7 CURVE SMOOTH",
"253 -7 OFFCURVE",
"305 19 OFFCURVE",
"343 53 CURVE",
"343 0 LINE",
"503 0 LINE",
"646 720 LINE",
"470 720 LINE"
);
},
{
closed = 1;
nodes = (
"216 319 OFFCURVE",
"262 355 OFFCURVE",
"309 355 CURVE SMOOTH",
"356 355 OFFCURVE",
"391 318 OFFCURVE",
"377 251 CURVE SMOOTH",
"364 183 OFFCURVE",
"314 146 OFFCURVE",
"267 146 CURVE SMOOTH",
"220 146 OFFCURVE",
"189 184 OFFCURVE",
"203 251 CURVE SMOOTH"
);
}
);
width = 600.41217;
}
);
leftMetricsKey = "=l*0.5";
rightMetricsKey = l;
unicode = 0064;
},
{
glyphname = eth;
lastChange = "2021-08-13 16:03:00 +0000";
layers = (
{
hints = (
{
horizontal = 1;
place = "{-8, 96}";
type = Stem;
},
{
horizontal = 1;
place = "{413, 96}";
type = Stem;
}
);
layerId = "24A19461-EE5C-48C0-A968-CC082199DAC2";
paths = (
{
closed = 1;
nodes = (
"315 586 LINE",
"302 521 LINE",
"587 609 LINE",
"600 674 LINE"
);
},
{
closed = 1;
nodes = (
"208 509 OFFCURVE",
"77 408 OFFCURVE",
"46 251 CURVE SMOOTH",
"15 94 OFFCURVE",
"103 -8 OFFCURVE",
"247 -8 CURVE SMOOTH",
"395 -8 OFFCURVE",
"527 92 OFFCURVE",
"566 287 CURVE SMOOTH",
"595 434 OFFCURVE",
"551 563 OFFCURVE",
"448 669 CURVE",
"327 669 LINE",
"399 599 OFFCURVE",
"442 536 OFFCURVE",
"463 471 CURVE",
"432 496 OFFCURVE",
"396 509 OFFCURVE",
"344 509 CURVE SMOOTH"
);
},
{
closed = 1;
nodes = (
"193 88 OFFCURVE",
"141 143 OFFCURVE",
"163 251 CURVE SMOOTH",
"184 359 OFFCURVE",
"261 413 OFFCURVE",
"333 413 CURVE SMOOTH",
"406 413 OFFCURVE",
"464 359 OFFCURVE",
"442 251 CURVE SMOOTH",
"421 143 OFFCURVE",
"339 88 OFFCURVE",
"266 88 CURVE SMOOTH"
);
}
);
width = 604.52;
},
{
hints = (
{
horizontal = 1;
place = "{0, 2}";
type = Stem;
},
{
horizontal = 1;
place = "{9, 2}";
type = Stem;
}
);
layerId = "F7832249-9EF4-4513-B883-88BAA20BF268";
paths = (
{
closed = 1;
nodes = (
"300.23 585 LINE",
"297.23 565 LINE",
"601.23 668 LINE",
"604.23 688 LINE"
);
},
{
closed = 1;
nodes = (
"203.23 513 OFFCURVE",
"88.23 413 OFFCURVE",
"59.23 265 CURVE SMOOTH",
"27.23 105 OFFCURVE",
"96.23 -7 OFFCURVE",
"249.23 -7 CURVE SMOOTH",
"393.23 -7 OFFCURVE",
"511.23 88 OFFCURVE",
"551.23 285 CURVE SMOOTH",
"582.23 445 OFFCURVE",
"541.23 567 OFFCURVE",
"407.23 686 CURVE",
"383.23 686 LINE",
"508.23 569 OFFCURVE",
"546.23 469 OFFCURVE",
"543.23 340 CURVE",
"529.23 455 OFFCURVE",
"449.23 513 OFFCURVE",
"352.23 513 CURVE SMOOTH"
);
},
{
closed = 1;
nodes = (
"123.23 13 OFFCURVE",
"49.23 106 OFFCURVE",
"81.23 265 CURVE SMOOTH",
"110.23 411 OFFCURVE",
"221.23 493 OFFCURVE",
"348.23 493 CURVE SMOOTH",
"469.23 493 OFFCURVE",
"553.23 407 OFFCURVE",
"522.23 251 CURVE SMOOTH",
"492.23 100 OFFCURVE",
"377.23 13 OFFCURVE",
"253.23 13 CURVE SMOOTH"
);
}
);
width = 600.30489;
},
{
hints = (
{
horizontal = 1;
place = "{172, 151}";
type = Stem;
}
);
layerId = "9CDD62D3-67F3-4AC7-B192-D539276CE01F";
paths = (
{
closed = 1;
nodes = (
"297 581 LINE",
"281 500 LINE",
"559 579 LINE",
"575 660 LINE"
);
},
{
closed = 1;
nodes = (
"191 506 OFFCURVE",
"60 409 OFFCURVE",
"29 252 CURVE SMOOTH",
"-2 94 OFFCURVE",
"98 -6 OFFCURVE",
"244 -6 CURVE SMOOTH",
"389 -6 OFFCURVE",
"526 93 OFFCURVE",
"564 283 CURVE SMOOTH",
"592 423 OFFCURVE",
"547 558 OFFCURVE",
"461 657 CURVE",
"290 657 LINE",
"340 606 OFFCURVE",
"379 547 OFFCURVE",
"401 489 CURVE",
"381 500 OFFCURVE",
"359 506 OFFCURVE",
"330 506 CURVE SMOOTH"
);
},
{
closed = 1;
nodes = (
"231 144 OFFCURVE",
"193 177 OFFCURVE",
"208 251 CURVE SMOOTH",
"223 324 OFFCURVE",
"272 356 OFFCURVE",
"315 356 CURVE SMOOTH",
"356 356 OFFCURVE",
"393 324 OFFCURVE",
"378 251 CURVE SMOOTH",
"363 177 OFFCURVE",
"315 144 OFFCURVE",
"274 144 CURVE SMOOTH"
);
}
);
width = 585.89198;
}
);
leftMetricsKey = o;
rightMetricsKey = o;
unicode = 00F0;
},
{
glyphname = dcaron;
lastChange = "2021-08-13 16:04:25 +0000";
layers = (
{
components = (
{
alignment = -1;
name = d;
transform = "{1, 0, 0, 1, -0.004, 0}";
}
);
hints = (
{
horizontal = 1;
place = "{572, 97}";
type = Stem;
},
{
horizontal = 1;
place = "{459, 21}";
target = up;
type = BottomGhost;
}
);
layerId = "24A19461-EE5C-48C0-A968-CC082199DAC2";
paths = (
{
closed = 1;
nodes = (
"721 669 LINE",
"702 572 LINE",
"749 572 LINE",
"746 559 LINE SMOOTH",
"740 529 OFFCURVE",
"724 514 OFFCURVE",
"694 514 CURVE",
"683 459 LINE",
"758 459 OFFCURVE",
"804 498 OFFCURVE",
"819 575 CURVE SMOOTH",
"824 602 OFFCURVE",
"826 633 OFFCURVE",
"824 669 CURVE"
);
}
);
width = 830.82;
},
{
components = (
{
alignment = -1;
name = d;
transform = "{1, 0, 0, 1, -0.002, 0}";
}
);
hints = (
{
horizontal = 1;
place = "{12, 2}";
type = Stem;
},
{
horizontal = 1;
place = "{547, 21}";
target = up;
type = BottomGhost;
}
);
layerId = "F7832249-9EF4-4513-B883-88BAA20BF268";
paths = (
{
closed = 1;
nodes = (
"708 686 LINE",
"698 635 LINE",
"733 635 LINE",
"728 609 LINE SMOOTH",
"723 582 OFFCURVE",
"711 568 OFFCURVE",
"678 568 CURVE",
"674 547 LINE",
"713 547 OFFCURVE",
"742 562 OFFCURVE",
"753 621 CURVE SMOOTH",
"757 638 OFFCURVE",
"760 659 OFFCURVE",
"762 686 CURVE"
);
}
);
width = 773.79957;
},
{
components = (
{
alignment = -1;
name = d;
transform = "{1, 0, 0, 1, -0.002, 0}";
}
);
hints = (
{
horizontal = 1;
place = "{528, 129}";
type = Stem;
},
{
horizontal = 1;
place = "{401, 21}";
target = up;
type = BottomGhost;
}
);
layerId = "9CDD62D3-67F3-4AC7-B192-D539276CE01F";
paths = (
{
closed = 1;
nodes = (
"697 657 LINE",
"671 528 LINE",
"726 528 LINE",
"724 521 LINE SMOOTH",
"717 494 OFFCURVE",
"699 480 OFFCURVE",
"671 480 CURVE",
"656 401 LINE",
"757 401 OFFCURVE",
"816 460 OFFCURVE",
"833 544 CURVE SMOOTH",
"839 576 OFFCURVE",
"840 614 OFFCURVE",
"834 657 CURVE"
);
}
);
width = 822.18217;
}
);
leftMetricsKey = d;
rightMetricsKey = d;
unicode = 010F;
},
{
glyphname = dcroat;
lastChange = "2021-08-13 16:03:59 +0000";
layers = (
{
components = (
{
alignment = -1;
name = d;
transform = "{1, 0, 0, 1, -0.004, 0}";
}
);
hints = (
{
horizontal = 1;
place = "{525, 69}";
type = Stem;
}
);
layerId = "24A19461-EE5C-48C0-A968-CC082199DAC2";
paths = (
{
closed = 1;
nodes = (
"472 525 LINE",
"712 525 LINE",
"726 594 LINE",
"485 594 LINE"
);
}
);
width = 733.81;
},
{
components = (
{
alignment = -1;
name = d;
transform = "{1, 0, 0, 1, -0.002, 0}";
}
);
hints = (
{
horizontal = 1;
place = "{11, 1}";
type = Stem;
}
);
layerId = "F7832249-9EF4-4513-B883-88BAA20BF268";
paths = (
{
closed = 1;
nodes = (
"433 600 LINE",
"704 600 LINE",
"708 619 LINE",
"436 619 LINE"
);
}
);
width = 728.24106;
},
{
components = (
{
alignment = -1;
name = d;
transform = "{1, 0, 0, 1, -0.002, 0}";
}
);
hints = (
{
horizontal = 1;
place = "{507, 93}";
type = Stem;
}
);
layerId = "9CDD62D3-67F3-4AC7-B192-D539276CE01F";
paths = (
{
closed = 1;
nodes = (
"410 507 LINE",
"699 507 LINE",
"717 600 LINE",
"428 600 LINE"
);
}
);
width = 695.56991;
}
);
leftMetricsKey = d;
rightMetricsKey = d;
unicode = 0111;
},
{
glyphname = e;
lastChange = "2021-08-13 16:02:40 +0000";
layers = (
{
anchors = (
{
name = bottom;
position = "{245, 5}";
},
{
name = ogonek;
position = "{331, 6}";
},
{
name = right;
position = "{3079, 238}";
},
{
name = top;
position = "{343, 496}";
}
);
hints = (
{
horizontal = 1;
place = "{-8, 96}";
type = Stem;
},
{
horizontal = 1;
place = "{207, 92}";
type = Stem;
},
{
horizontal = 1;
place = "{413, 96}";
type = Stem;
}
);
layerId = "24A19461-EE5C-48C0-A968-CC082199DAC2";
paths = (
{
closed = 1;
nodes = (
"356 -8 OFFCURVE",
"443 42 OFFCURVE",
"497 119 CURVE",
"400 157 LINE",
"369 112 OFFCURVE",
"325 88 OFFCURVE",
"260 88 CURVE SMOOTH",
"190 88 OFFCURVE",
"147 132 OFFCURVE",
"155 207 CURVE",
"520 207 LINE",
"527 228 OFFCURVE",
"532 245 OFFCURVE",
"535 262 CURVE SMOOTH",
"565 410 OFFCURVE",
"486 509 OFFCURVE",
"343 509 CURVE SMOOTH",
"194 509 OFFCURVE",
"77 408 OFFCURVE",
"46 251 CURVE SMOOTH",
"15 94 OFFCURVE",
"100 -8 OFFCURVE",
"244 -8 CURVE SMOOTH"
);
},
{
closed = 1;
nodes = (
"175 299 LINE",
"201 368 OFFCURVE",
"257 413 OFFCURVE",
"320 413 CURVE SMOOTH",
"391 413 OFFCURVE",
"435 371 OFFCURVE",
"424 299 CURVE"
);
}
);
width = 578.71;
},
{
anchors = (
{
name = bottom;
position = "{243.43, 1}";
},
{
name = ogonek;
position = "{315.43, 6}";
},
{
name = right;
position = "{3183.43, 243}";
},
{
name = top;
position = "{342.43, 501}";
}
);
hints = (
{
horizontal = 1;
place = "{0, 2}";
type = Stem;
},
{
horizontal = 1;
place = "{4, 2}";
type = Stem;
},
{
horizontal = 1;
place = "{9, 2}";
type = Stem;
}
);
layerId = "F7832249-9EF4-4513-B883-88BAA20BF268";
paths = (
{
closed = 1;
nodes = (
"349.43 -6 OFFCURVE",
"435.43 49 OFFCURVE",
"483.43 130 CURVE",
"465.43 137 LINE",
"418.43 59 OFFCURVE",
"338.43 14 OFFCURVE",
"241.43 14 CURVE SMOOTH",
"130.43 14 OFFCURVE",
"47.43 86 OFFCURVE",
"77.43 251 CURVE",
"514.43 251 LINE",
"518.43 268 OFFCURVE",
"520.43 282 OFFCURVE",
"522.43 292 CURVE SMOOTH",
"543.43 399 OFFCURVE",
"492.43 508 OFFCURVE",
"340.43 508 CURVE SMOOTH",
"200.43 508 OFFCURVE",
"88.43 413 OFFCURVE",
"57.43 256 CURVE SMOOTH",
"25.43 95 OFFCURVE",
"98.43 -6 OFFCURVE",
"237.43 -6 CURVE SMOOTH"
);
},
{
closed = 1;
nodes = (
"81.43 271 LINE",
"116.43 422 OFFCURVE",
"229.43 488 OFFCURVE",
"335.43 488 CURVE SMOOTH",
"449.43 488 OFFCURVE",
"534.43 412 OFFCURVE",
"496.43 271 CURVE"
);
}
);
width = 570.92681;
},
{
anchors = (
{
name = bottom;
position = "{235, 8}";
},
{
name = ogonek;
position = "{311, 5}";
},
{
name = right;
position = "{2967, 236}";
},
{
name = top;
position = "{331, 494}";
}
);
hints = (
{
horizontal = 1;
place = "{-7, 142}";
type = Stem;
},
{
horizontal = 1;
place = "{205, 104}";
type = Stem;
},
{
horizontal = 1;
place = "{370, 138}";
type = Stem;
}
);
layerId = "9CDD62D3-67F3-4AC7-B192-D539276CE01F";
paths = (
{
closed = 1;
nodes = (
"349 -6 OFFCURVE",
"450 50 OFFCURVE",
"506 143 CURVE",
"346 181 LINE",
"325 151 OFFCURVE",
"299 135 OFFCURVE",
"260 135 CURVE SMOOTH",
"221 135 OFFCURVE",
"195 161 OFFCURVE",
"195 205 CURVE",
"520 205 LINE",
"527 226 OFFCURVE",
"532 244 OFFCURVE",
"535 258 CURVE SMOOTH",
"565 411 OFFCURVE",
"481 508 OFFCURVE",
"333 508 CURVE SMOOTH",
"183 508 OFFCURVE",
"60 409 OFFCURVE",
"29 251 CURVE SMOOTH",
"-3 92 OFFCURVE",
"84 -7 OFFCURVE",
"232 -7 CURVE"
);
},
{
closed = 1;
nodes = (
"218 308 LINE",
"238 346 OFFCURVE",
"268 370 OFFCURVE",
"304 370 CURVE SMOOTH",
"343 370 OFFCURVE",
"365 347 OFFCURVE",
"365 308 CURVE"
);
}
);
width = 561.98104;
}
);
leftMetricsKey = o;
rightMetricsKey = o;
unicode = 0065;
},
{
glyphname = f;
lastChange = "2021-08-13 16:02:42 +0000";
layers = (
{
hints = (
{
horizontal = 1;
place = "{400, 99}";
type = Stem;
},
{
horizontal = 1;
place = "{0, 21}";
target = up;
type = BottomGhost;
}
);
layerId = "24A19461-EE5C-48C0-A968-CC082199DAC2";
paths = (
{
closed = 1;
nodes = (
"44 0 LINE",
"159 0 LINE",
"269 553 LINE SMOOTH",
"280 606 OFFCURVE",
"306 632 OFFCURVE",
"367 626 CURVE",
"386 720 LINE",
"251 730 OFFCURVE",
"178 670 OFFCURVE",
"154 553 CURVE SMOOTH"
);
},
{
closed = 1;
nodes = (
"64 400 LINE",
"330 400 LINE",
"349 500 LINE",
"84 500 LINE"
);
}
);
width = 334.15;
},
{
hints = (
{
horizontal = 1;
place = "{498, 198}";
type = Stem;
},
{
horizontal = 1;
place = "{0, 21}";
target = up;
type = BottomGhost;
}
);
layerId = "F7832249-9EF4-4513-B883-88BAA20BF268";
paths = (
{
closed = 1;
nodes = (
"78 0 LINE",
"100 0 LINE",
"213 569 LINE SMOOTH",
"231 657 OFFCURVE",
"274 706 OFFCURVE",
"381 698 CURVE",
"386 720 LINE",
"265 730 OFFCURVE",
"211 667 OFFCURVE",
"191 569 CURVE SMOOTH"
);
},
{
closed = 1;
nodes = (
"88 478 LINE",
"338 478 LINE",
"342 500 LINE",
"92 500 LINE"
);
}
);
width = 334.66872;
},
{
hints = (
{
horizontal = 1;
place = "{352, 148}";
type = Stem;
},
{
horizontal = 1;
place = "{0, 21}";
target = up;
type = BottomGhost;
}
);
layerId = "9CDD62D3-67F3-4AC7-B192-D539276CE01F";
paths = (
{
closed = 1;
nodes = (
"25.998 0 LINE",
"203 0 LINE",
"305 513 LINE SMOOTH",
"314 560 OFFCURVE",
"344 581 OFFCURVE",
"392 573 CURVE",
"421 720 LINE",
"277 736 OFFCURVE",
"162 682 OFFCURVE",
"131 529 CURVE SMOOTH"
);
},
{
closed = 1;
nodes = (
"42 352 LINE",
"351 352 LINE",
"380 500 LINE",
"71 500 LINE"
);
}
);
width = 352.23132;
}
);
leftMetricsKey = "=l*0.45";
rightMetricsKey = "=l*0.45";
unicode = 0066;
},
{
glyphname = g;
lastChange = "2021-08-13 16:02:43 +0000";
layers = (
{
anchors = (
{
name = top;
position = "{361, 496}";
}
);
hints = (
{
horizontal = 1;
place = "{-200, 96}";
type = Stem;
},
{
horizontal = 1;
place = "{-8, 98}";
type = Stem;
},
{
horizontal = 1;
place = "{410, 98}";
type = Stem;
}
);
layerId = "24A19461-EE5C-48C0-A968-CC082199DAC2";
paths = (
{
closed = 1;
nodes = (
"478 439 LINE",
"451 477 OFFCURVE",
"400 509 OFFCURVE",
"326 509 CURVE SMOOTH",
"193 509 OFFCURVE",
"77 407 OFFCURVE",
"46 253 CURVE SMOOTH",
"16 98 OFFCURVE",
"91 -8 OFFCURVE",
"223 -8 CURVE SMOOTH",
"305 -8 OFFCURVE",
"374 34 OFFCURVE",
"415 76 CURVE",
"404 76 LINE",
"404 75 LINE",
"378 -52 OFFCURVE",
"251 -97 OFFCURVE",
"112 -104 CURVE",
"109 -200 LINE",
"312 -196 OFFCURVE",
"484 -100 OFFCURVE",
"519 75 CURVE SMOOTH",
"603 500 LINE",
"498 500 LINE"
);
},
{
closed = 1;
nodes = (
"183 355 OFFCURVE",
"256 410 OFFCURVE",
"328 410 CURVE SMOOTH",
"401 410 OFFCURVE",
"459 353 OFFCURVE",
"439 251 CURVE SMOOTH",
"418 148 OFFCURVE",
"338 90 OFFCURVE",
"264 90 CURVE SMOOTH",
"192 90 OFFCURVE",
"143 150 OFFCURVE",
"163 253 CURVE SMOOTH"
);
}
);
width = 629.79;
},
{
anchors = (
{
name = top;
position = "{353.44, 501}";
}
);
hints = (
{
horizontal = 1;
place = "{-4, 2}";
type = Stem;
},
{
horizontal = 1;
place = "{0, 2}";
type = Stem;
},
{
horizontal = 1;
place = "{-187, 210}";
type = Stem;
}
);
layerId = "F7832249-9EF4-4513-B883-88BAA20BF268";
paths = (
{
closed = 1;
nodes = (
"533.44 359 LINE",
"521.44 441 OFFCURVE",
"460.44 508 OFFCURVE",
"344.44 508 CURVE SMOOTH",
"201.44 508 OFFCURVE",
"87.44 410 OFFCURVE",
"56.44 251 CURVE SMOOTH",
"24.44 91 OFFCURVE",
"98.44 -7 OFFCURVE",
"242.44 -7 CURVE SMOOTH",
"358.44 -5 OFFCURVE",
"447.44 61 OFFCURVE",
"492.44 147 CURVE",
"491.44 147 LINE",
"486.44 120 LINE",
"441.44 -104 OFFCURVE",
"287.44 -174 OFFCURVE",
"110.44 -181 CURVE",
"110.44 -200 LINE",
"293.44 -194 OFFCURVE",
"460.44 -120 OFFCURVE",
"508.44 120 CURVE SMOOTH",
"584.44 500 LINE",
"562.44 500 LINE"
);
},
{
closed = 1;
nodes = (
"107.44 398 OFFCURVE",
"206.44 488 OFFCURVE",
"341.44 488 CURVE SMOOTH",
"470.44 488 OFFCURVE",
"540.44 394 OFFCURVE",
"512.44 251 CURVE SMOOTH",
"483.44 108 OFFCURVE",
"375.44 13 OFFCURVE",
"246.44 13 CURVE SMOOTH",
"111.44 13 OFFCURVE",
"48.44 103 OFFCURVE",
"78.44 251 CURVE SMOOTH"
);
}
);
width = 628.1534;
},
{
anchors = (
{
name = top;
position = "{357, 490}";
}
);
hints = (
{
horizontal = 1;
place = "{-120, 137}";
type = Stem;
},
{
horizontal = 1;
place = "{355, 153}";
type = Stem;
}
);
layerId = "9CDD62D3-67F3-4AC7-B192-D539276CE01F";
paths = (
{
closed = 1;
nodes = (
"428 451 LINE",
"404 484 OFFCURVE",
"360 508 OFFCURVE",
"300 508 CURVE SMOOTH",
"175 508 OFFCURVE",
"61 410 OFFCURVE",
"29 251 CURVE SMOOTH",
"-2 93 OFFCURVE",
"73 -7 OFFCURVE",
"197 -7 CURVE SMOOTH",
"272 -7 OFFCURVE",
"335 30 OFFCURVE",
"374 77 CURVE",
"345 61 LINE",
"344 59 LINE SMOOTH",
"324 -42 OFFCURVE",
"213 -60 OFFCURVE",
"105 -65 CURVE",
"105 -201 LINE",
"316 -196 OFFCURVE",
"486 -113 OFFCURVE",
"523 71 CURVE SMOOTH",
"608 500 LINE",
"448 500 LINE"
);
},
{
closed = 1;
nodes = (
"221 319 OFFCURVE",
"267 355 OFFCURVE",
"314 355 CURVE SMOOTH",
"361 355 OFFCURVE",
"396 318 OFFCURVE",
"382 251 CURVE SMOOTH",
"369 183 OFFCURVE",
"319 146 OFFCURVE",
"272 146 CURVE SMOOTH",
"225 146 OFFCURVE",
"194 184 OFFCURVE",
"208 251 CURVE SMOOTH"
);
}
);
width = 606.19566;
}
);
leftMetricsKey = o;
rightMetricsKey = l;
unicode = 0067;
},
{
glyphname = gcommaaccent;
lastChange = "2021-08-13 16:03:57 +0000";
layers = (
{
components = (
{
alignment = -1;
name = g;
}
);
hints = (
{
horizontal = 1;
place = "{531, 97}";
type = Stem;
},
{
horizontal = 1;
place = "{741, -20}";
target = down;
type = TopGhost;
}
);
layerId = "24A19461-EE5C-48C0-A968-CC082199DAC2";
paths = (
{
closed = 1;
nodes = (
"439 531 LINE",
"458 628 LINE",
"412 628 LINE",
"415 641 LINE SMOOTH",
"421 671 OFFCURVE",
"437 686 OFFCURVE",
"466 686 CURVE",
"477 741 LINE",
"403 741 OFFCURVE",
"357 702 OFFCURVE",
"342 625 CURVE SMOOTH",
"337 599 OFFCURVE",
"334 568 OFFCURVE",
"336 531 CURVE"
);
}
);
width = 629.79;
},
{
components = (
{
alignment = -1;
name = g;
transform = "{1, 0, 0, 1, 0.01, 0}";
}
);
hints = (
{
horizontal = 1;
place = "{11, 2}";
type = Stem;
},
{
horizontal = 1;
place = "{688, -20}";
target = down;
type = TopGhost;
}
);
layerId = "F7832249-9EF4-4513-B883-88BAA20BF268";
paths = (
{
closed = 1;
nodes = (
"453.01 549 LINE",
"464.01 600 LINE",
"428.01 600 LINE",
"433.01 626 LINE SMOOTH",
"439.01 653 OFFCURVE",
"451.01 667 OFFCURVE",
"483.01 667 CURVE",
"487.01 688 LINE",
"449.01 688 OFFCURVE",
"420.01 673 OFFCURVE",
"408.01 614 CURVE SMOOTH",
"405.01 597 OFFCURVE",
"402.01 576 OFFCURVE",
"399.01 549 CURVE"
);
}
);
width = 628.37106;
},
{
components = (
{
alignment = -1;
name = g;
}
);
hints = (
{
horizontal = 1;
place = "{513, 129}";
type = Stem;
},
{
horizontal = 1;
place = "{769, -20}";
target = down;
type = TopGhost;
}
);
layerId = "9CDD62D3-67F3-4AC7-B192-D539276CE01F";
paths = (
{
closed = 1;
nodes = (
"475 513 LINE",
"501 642 LINE",
"447 642 LINE",
"452 657 LINE",
"460 680 OFFCURVE",
"476 691 OFFCURVE",
"501 691 CURVE",
"516 769 LINE",
"416 769 OFFCURVE",
"357 710 OFFCURVE",
"340 626 CURVE SMOOTH",
"334 595 OFFCURVE",
"332 557 OFFCURVE",
"338 513 CURVE"
);
}
);
width = 606.19566;
}
);
leftMetricsKey = g;
rightMetricsKey = g;
unicode = 0123;
},
{
glyphname = h;
lastChange = "2021-08-13 16:02:10 +0000";
layers = (
{
hints = (
{
horizontal = 1;
place = "{410, 98}";
type = Stem;
},
{
horizontal = 1;
place = "{720, -20}";
target = down;
type = TopGhost;
},
{
horizontal = 1;
place = "{0, 21}";
target = up;
type = BottomGhost;
}
);
layerId = "24A19461-EE5C-48C0-A968-CC082199DAC2";
paths = (
{
closed = 1;
nodes = (
"27 0 LINE",
"141 0 LINE",
"284 720 LINE",
"170 720 LINE"
);
},
{
closed = 1;
nodes = (
"361 0 LINE",
"474 0 LINE",
"532 294 LINE SMOOTH",
"560 435 OFFCURVE",
"497 509 OFFCURVE",
"383 509 CURVE SMOOTH",
"295 509 OFFCURVE",
"216 462 OFFCURVE",
"179 390 CURVE",
"184 277 LINE",
"196 278 LINE",
"213 365 OFFCURVE",
"265 410 OFFCURVE",
"335 410 CURVE SMOOTH",
"405 410 OFFCURVE",
"433 366 OFFCURVE",
"416 279 CURVE SMOOTH"
);
}
);
width = 592.21;
},
{
hints = (
{
horizontal = 1;
place = "{9, 2}";
type = Stem;
},
{
horizontal = 1;
place = "{720, -20}";
target = down;
type = TopGhost;
},
{
horizontal = 1;
place = "{0, 21}";
target = up;
type = BottomGhost;
}
);
layerId = "F7832249-9EF4-4513-B883-88BAA20BF268";
paths = (
{
closed = 1;
nodes = (
"44 0 LINE",
"66 0 LINE",
"210 720 LINE",
"188 720 LINE"
);
},
{
closed = 1;
nodes = (
"432 0 LINE",
"453 0 LINE",
"509 283 LINE SMOOTH",
"540 438 OFFCURVE",
"468 508 OFFCURVE",
"358 508 CURVE SMOOTH",
"249 508 OFFCURVE",
"152 446 OFFCURVE",
"119 314 CURVE",
"116 257 LINE",
"117 257 LINE",
"148 411 OFFCURVE",
"241 489 OFFCURVE",
"354 489 CURVE SMOOTH",
"463 489 OFFCURVE",
"515 416 OFFCURVE",
"489 284 CURVE SMOOTH"
);
}
);
width = 587.61979;
},
{
hints = (
{
horizontal = 1;
place = "{720, -20}";
target = down;
type = TopGhost;
},
{
horizontal = 1;
place = "{0, 21}";
target = up;
type = BottomGhost;
}
);
layerId = "9CDD62D3-67F3-4AC7-B192-D539276CE01F";
paths = (
{
closed = 1;
nodes = (
"-2 0 LINE",
"174 0 LINE",
"318 720 LINE",
"142 720 LINE"
);
},
{
closed = 1;
nodes = (
"322 0 LINE",
"498 0 LINE",
"555 291 LINE SMOOTH",
"582 426 OFFCURVE",
"525 506 OFFCURVE",
"408 506 CURVE SMOOTH",
"317 506 OFFCURVE",
"243 449 OFFCURVE",
"206 386 CURVE",
"202 268 LINE",
"228 270 LINE",
"240 328 OFFCURVE",
"274 359 OFFCURVE",
"321 359 CURVE SMOOTH",
"367 359 OFFCURVE",
"388 328 OFFCURVE",
"376 271 CURVE SMOOTH"
);
}
);
width = 590.58142;
}
);
leftMetricsKey = l;
rightMetricsKey = n;
unicode = 0068;
},
{
glyphname = i;
lastChange = "2021-08-13 16:02:10 +0000";
layers = (
{
anchors = (
{
name = ogonek;
position = "{149, 0}";
}
);
hints = (
{
horizontal = 1;
place = "{579, 140}";
type = Stem;
},
{
horizontal = 1;
place = "{0, 21}";
target = up;
type = BottomGhost;
}
);
layerId = "24A19461-EE5C-48C0-A968-CC082199DAC2";
paths = (
{
closed = 1;
nodes = (
"40 0 LINE",
"154 0 LINE",
"253 500 LINE",
"139 500 LINE"
);
},
{
closed = 1;
nodes = (
"252 579 OFFCURVE",
"290 610 OFFCURVE",
"298 649 CURVE SMOOTH",
"305 689 OFFCURVE",
"280 720 OFFCURVE",
"241 720 CURVE SMOOTH",
"201 720 OFFCURVE",
"164 689 OFFCURVE",
"156 649 CURVE SMOOTH",
"148 610 OFFCURVE",
"173 579 OFFCURVE",
"213 579 CURVE SMOOTH"
);
}
);
width = 294.59;
},
{
anchors = (
{
name = ogonek;
position = "{77, 0}";
}
);
hints = (
{
horizontal = 1;
place = "{12, 3}";
type = Stem;
},
{
horizontal = 1;
place = "{0, 21}";
target = up;
type = BottomGhost;
}
);
layerId = "F7832249-9EF4-4513-B883-88BAA20BF268";
paths = (
{
closed = 1;
nodes = (
"55 0 LINE",
"77 0 LINE",
"177 500 LINE",
"155 500 LINE"
);
},
{
closed = 1;
nodes = (
"205 636 OFFCURVE",
"217 644 OFFCURVE",
"219 658 CURVE SMOOTH",
"222 673 OFFCURVE",
"214 681 OFFCURVE",
"202 681 CURVE SMOOTH",
"190 681 OFFCURVE",
"178 673 OFFCURVE",
"175 658 CURVE SMOOTH",
"172 644 OFFCURVE",
"181 636 OFFCURVE",
"193 636 CURVE SMOOTH"
);
}
);
width = 231.61319;
},
{
anchors = (
{
name = ogonek;
position = "{177, 0}";
}
);
hints = (
{
horizontal = 1;
place = "{538, 183}";
type = Stem;
},
{
horizontal = 1;
place = "{0, 21}";
target = up;
type = BottomGhost;
}
);
layerId = "9CDD62D3-67F3-4AC7-B192-D539276CE01F";
paths = (
{
closed = 1;
nodes = (
"12 0 LINE",
"188 0 LINE",
"286.994 500 LINE",
"111 500 LINE"
);
},
{
closed = 1;
nodes = (
"268 538 OFFCURVE",
"317 578 OFFCURVE",
"327 629 CURVE SMOOTH",
"337 681 OFFCURVE",
"305 721 OFFCURVE",
"244 721 CURVE SMOOTH",
"183 721 OFFCURVE",
"134 681 OFFCURVE",
"123 629 CURVE SMOOTH",
"113 578 OFFCURVE",
"146 538 OFFCURVE",
"208 538 CURVE SMOOTH"
);
}
);
width = 299.72896;
}
);
leftMetricsKey = l;
rightMetricsKey = l;
unicode = 0069;
},
{
glyphname = idotless;
lastChange = "2021-08-13 16:01:28 +0000";
layers = (
{
anchors = (
{
name = ogonek;
position = "{181, 14}";
},
{
name = top;
position = "{182, 496}";
}
);
hints = (
{
horizontal = 1;
place = "{0, 21}";
target = up;
type = BottomGhost;
},
{
horizontal = 1;
place = "{501, -20}";
target = down;
type = TopGhost;
}
);
layerId = "24A19461-EE5C-48C0-A968-CC082199DAC2";
paths = (
{
closed = 1;
nodes = (
"27 0 LINE",
"141 0 LINE",
"240 501 LINE",
"126 501 LINE"
);
}
);
width = 267.01;
},
{
anchors = (
{
name = ogonek;
position = "{121, 10}";
},
{
name = top;
position = "{155, 501}";
}
);
hints = (
{
horizontal = 1;
place = "{0, 21}";
target = up;
type = BottomGhost;
},
{
horizontal = 1;
place = "{501, -20}";
target = down;
type = TopGhost;
}
);
layerId = "F7832249-9EF4-4513-B883-88BAA20BF268";
paths = (
{
closed = 1;
nodes = (
"44 0 LINE",
"66 0 LINE",
"166 501 LINE",
"144 501 LINE"
);
}
);
width = 210.23426;
},
{
anchors = (
{
name = ogonek;
position = "{202, 20}";
},
{
name = top;
position = "{184, 490}";
}
);
hints = (
{
horizontal = 1;
place = "{0, 21}";
target = up;
type = BottomGhost;
},
{
horizontal = 1;
place = "{501, -20}";
target = down;
type = TopGhost;
}
);
layerId = "9CDD62D3-67F3-4AC7-B192-D539276CE01F";
paths = (
{
closed = 1;
nodes = (
"-2 0 LINE",
"174 0 LINE",
"274 501 LINE",
"98 501 LINE"
);
}
);
width = 272.18925;
}
);
leftMetricsKey = l;
rightMetricsKey = l;
unicode = 0131;
},
{
glyphname = j;
lastChange = "2021-08-13 16:02:10 +0000";
layers = (
{
hints = (
{
horizontal = 1;
place = "{579, 140}";
type = Stem;
}
);
layerId = "24A19461-EE5C-48C0-A968-CC082199DAC2";
leftMetricsKey = "=l*-0.3";
paths = (
{
closed = 1;
nodes = (
"143 496 LINE",
"258 496 LINE",
"166 32 LINE SMOOTH",
"134 -124 OFFCURVE",
"14 -197 OFFCURVE",
"-96 -200 CURVE",
"-93 -103 LINE",
"-15 -96 OFFCURVE",
"35 -47 OFFCURVE",
"51 33 CURVE SMOOTH"
);
},
{
closed = 1;
nodes = (
"257 579 OFFCURVE",
"294 610 OFFCURVE",
"302 649 CURVE SMOOTH",
"310 689 OFFCURVE",
"285 720 OFFCURVE",
"246 720 CURVE SMOOTH",
"206 720 OFFCURVE",
"168 689 OFFCURVE",
"161 649 CURVE SMOOTH",
"153 610 OFFCURVE",
"178 579 OFFCURVE",
"218 579 CURVE SMOOTH"
);
}
);
width = 299.289;
},
{
hints = (
{
horizontal = 1;
place = "{12, 3}";
type = Stem;
}
);
layerId = "F7832249-9EF4-4513-B883-88BAA20BF268";
paths = (
{
closed = 1;
nodes = (
"163 501 LINE",
"185 501 LINE",
"81 -21 LINE SMOOTH",
"58 -138 OFFCURVE",
"-21 -194 OFFCURVE",
"-105 -200 CURVE",
"-105 -180 LINE",
"-25 -173 OFFCURVE",
"40 -116 OFFCURVE",
"59 -21 CURVE SMOOTH"
);
},
{
closed = 1;
nodes = (
"216 636 OFFCURVE",
"227 644 OFFCURVE",
"230 658 CURVE SMOOTH",
"233 673 OFFCURVE",
"225 681 OFFCURVE",
"213 681 CURVE SMOOTH",
"201 681 OFFCURVE",
"189 673 OFFCURVE",
"186 658 CURVE SMOOTH",
"183 644 OFFCURVE",
"192 636 OFFCURVE",
"204 636 CURVE SMOOTH"
);
}
);
width = 243.08777;
},
{
hints = (
{
horizontal = 1;
place = "{538, 183}";
type = Stem;
}
);
layerId = "9CDD62D3-67F3-4AC7-B192-D539276CE01F";
paths = (
{
closed = 1;
nodes = (
"132 498 LINE",
"308 498 LINE",
"218 46 LINE SMOOTH",
"184 -127 OFFCURVE",
"36 -196 OFFCURVE",
"-89 -200 CURVE",
"-85 -52 LINE",
"-17 -44 OFFCURVE",
"31 -7 OFFCURVE",
"42 47 CURVE SMOOTH"
);
},
{
closed = 1;
nodes = (
"289 538 OFFCURVE",
"338 578 OFFCURVE",
"348 629 CURVE SMOOTH",
"358 681 OFFCURVE",
"326 721 OFFCURVE",
"265 721 CURVE SMOOTH",
"204 721 OFFCURVE",
"155 681 OFFCURVE",
"145 629 CURVE SMOOTH",
"134 578 OFFCURVE",
"167 538 OFFCURVE",
"229 538 CURVE SMOOTH"
);
}
);
width = 320.29401;
}
);
leftMetricsKey = "l*-0.3";
rightMetricsKey = l;
unicode = 006A;
},
{
glyphname = k;
lastChange = "2021-08-13 16:02:10 +0000";
layers = (
{
anchors = (
{
name = bottom;
position = "{214, 5}";
}
);
hints = (
{
horizontal = 1;
place = "{0, 21}";
target = up;
type = BottomGhost;
},
{
horizontal = 1;
place = "{720, -20}";
target = down;
type = TopGhost;
}
);
layerId = "24A19461-EE5C-48C0-A968-CC082199DAC2";
paths = (
{
closed = 1;
nodes = (
"27 0 LINE",
"141 0 LINE",
"284 720 LINE",
"170 720 LINE"
);
},
{
closed = 1;
nodes = (
"324 250 LINE",
"605 500 LINE",
"449 500 LINE",
"189 248 LINE",
"353 0 LINE",
"505 0 LINE"
);
},
{
closed = 1;
nodes = (
"89 203 LINE",
"285 203 LINE",
"303 296 LINE",
"108 296 LINE"
);
}
);
width = 570.44;
},
{
anchors = (
{
name = bottom;
position = "{157, 1}";
}
);
hints = (
{
horizontal = 1;
place = "{0, 21}";
target = up;
type = BottomGhost;
},
{
horizontal = 1;
place = "{688, -20}";
target = down;
type = TopGhost;
}
);
layerId = "F7832249-9EF4-4513-B883-88BAA20BF268";
paths = (
{
closed = 1;
nodes = (
"44 0 LINE",
"66 0 LINE",
"203 687 LINE",
"181 687 LINE"
);
},
{
closed = 1;
nodes = (
"195 253 LINE",
"491 500 LINE",
"461 500 LINE",
"167 253 LINE",
"365 0 LINE",
"395 0 LINE"
);
},
{
closed = 1;
nodes = (
"103 244 LINE",
"182 244 LINE",
"186 265 LINE",
"107 265 LINE"
);
}
);
width = 463.24043;
},
{
anchors = (
{
name = bottom;
position = "{233, 11}";
}
);
hints = (
{
horizontal = 1;
place = "{0, 21}";
target = up;
type = BottomGhost;
},
{
horizontal = 1;
place = "{720, -20}";
target = down;
type = TopGhost;
}
);
layerId = "9CDD62D3-67F3-4AC7-B192-D539276CE01F";
paths = (
{
closed = 1;
nodes = (
"-2 0 LINE",
"174 0 LINE",
"318 720 LINE",
"142 720 LINE"
);
},
{
closed = 1;
nodes = (
"390 250 LINE",
"645 500 LINE",
"431 500 LINE",
"200 254 LINE",
"332 0 LINE",
"549 0 LINE"
);
},
{
closed = 1;
nodes = (
"130 181 LINE",
"314 181 LINE",
"342 322 LINE",
"158 322 LINE"
);
}
);
width = 607.89745;
}
);
leftMetricsKey = l;
rightMetricsKey = "=l*0.2";
unicode = 006B;
},
{
glyphname = kcommaaccent;
lastChange = "2021-08-13 16:02:10 +0000";
layers = (
{
components = (
{
alignment = -1;
name = k;
}
);
hints = (
{
horizontal = 1;
place = "{-126, 96}";
type = Stem;
},
{
horizontal = 1;
place = "{-240, 21}";
target = up;
type = BottomGhost;
}
);
layerId = "24A19461-EE5C-48C0-A968-CC082199DAC2";
paths = (
{
closed = 1;
nodes = (
"193 -31 LINE",
"174 -126 LINE",
"222 -126 LINE",
"217 -146 LINE",
"216 -152 OFFCURVE",
"214 -156 OFFCURVE",
"212 -161 CURVE SMOOTH",
"203 -177 OFFCURVE",
"188 -186 OFFCURVE",
"166 -186 CURVE",
"155 -240 LINE",
"229 -240 OFFCURVE",
"275 -201 OFFCURVE",
"291 -124 CURVE SMOOTH",
"296 -98 OFFCURVE",
"298 -67 OFFCURVE",
"296 -31 CURVE"
);
}
);
width = 570.44;
},
{
components = (
{
alignment = -1;
name = k;
}
);
hints = (
{
horizontal = 1;
place = "{-3, 2}";
type = Stem;
},
{
horizontal = 1;
place = "{-165, 21}";
target = up;
type = BottomGhost;
}
);
layerId = "F7832249-9EF4-4513-B883-88BAA20BF268";
paths = (
{
closed = 1;
nodes = (
"154 -53 LINE",
"147 -91 LINE",
"176 -91 LINE",
"173 -103 LINE",
"172 -108 OFFCURVE",
"170 -113 OFFCURVE",
"168 -118 CURVE SMOOTH",
"160 -135 OFFCURVE",
"147 -146 OFFCURVE",
"125 -146 CURVE",
"121 -165 LINE",
"156 -165 OFFCURVE",
"187 -150 OFFCURVE",
"200 -83 CURVE SMOOTH",
"202 -75 OFFCURVE",
"203 -62 OFFCURVE",
"204 -53 CURVE"
);
}
);
width = 463.24043;
},
{
components = (
{
alignment = -1;
name = k;
}
);
hints = (
{
horizontal = 1;
place = "{-141, 129}";
type = Stem;
},
{
horizontal = 1;
place = "{-268, 21}";
target = up;
type = BottomGhost;
}
);
layerId = "9CDD62D3-67F3-4AC7-B192-D539276CE01F";
paths = (
{
closed = 1;
nodes = (
"208 -12 LINE",
"182 -141 LINE",
"235 -141 LINE",
"235 -150 LINE",
"233 -155 OFFCURVE",
"231 -160 OFFCURVE",
"229 -165 CURVE SMOOTH",
"220 -182 OFFCURVE",
"204 -190 OFFCURVE",
"182 -190 CURVE",
"167 -268 LINE",
"267 -268 OFFCURVE",
"326 -209 OFFCURVE",
"343 -125 CURVE SMOOTH",
"349 -94 OFFCURVE",
"351 -56 OFFCURVE",
"345 -12 CURVE"
);
}
);
width = 607.89745;
}
);
leftMetricsKey = l;
rightMetricsKey = k;
unicode = 0137;
},
{
glyphname = l;
lastChange = "2021-08-13 16:01:28 +0000";
layers = (
{
anchors = (
{
name = bottom;
position = "{85, 5}";
},
{
name = commaaccent;
position = "{87, 14}";
},
{
name = top;
position = "{227, 720}";
},
{
name = topright;
position = "{282, 496}";
}
);
hints = (
{
horizontal = 1;
place = "{0, 21}";
target = up;
type = BottomGhost;
},
{
horizontal = 1;
place = "{720, -20}";
target = down;
type = TopGhost;
}
);
layerId = "24A19461-EE5C-48C0-A968-CC082199DAC2";
paths = (
{
closed = 1;
nodes = (
"27 0 LINE",
"141 0 LINE",
"284 720 LINE",
"170 720 LINE"
);
}
);
width = 267.01;
},
{
anchors = (
{
name = bottom;
position = "{56, 1}";
},
{
name = commaaccent;
position = "{58, 10}";
},
{
name = top;
position = "{200, 723}";
},
{
name = topright;
position = "{216, 501}";
}
);
hints = (
{
horizontal = 1;
place = "{0, 21}";
target = up;
type = BottomGhost;
},
{
horizontal = 1;
place = "{720, -20}";
target = down;
type = TopGhost;
}
);
layerId = "F7832249-9EF4-4513-B883-88BAA20BF268";
paths = (
{
closed = 1;
nodes = (
"44 0 LINE",
"66 0 LINE",
"210 720 LINE",
"188 720 LINE"
);
}
);
width = 210.24404;
},
{
anchors = (
{
name = bottom;
position = "{89, 11}";
},
{
name = commaaccent;
position = "{91, 20}";
},
{
name = top;
position = "{230, 721}";
},
{
name = topright;
position = "{306, 490}";
}
);
hints = (
{
horizontal = 1;
place = "{0, 21}";
target = up;
type = BottomGhost;
},
{
horizontal = 1;
place = "{720, -20}";
target = down;
type = TopGhost;
}
);
layerId = "9CDD62D3-67F3-4AC7-B192-D539276CE01F";
paths = (
{
closed = 1;
nodes = (
"-2 0 LINE",
"174 0 LINE",
"318 720 LINE",
"142 720 LINE"
);
}
);
width = 272.18925;
}
);
leftMetricsKey = "=H*0.9";
rightMetricsKey = "=H*0.9";
unicode = 006C;
},
{
glyphname = lcaron;
lastChange = "2021-08-13 16:01:28 +0000";
layers = (
{
components = (
{
alignment = -1;
name = l;
}
);
hints = (
{
horizontal = 1;
place = "{669, -20}";
target = down;
type = TopGhost;
},
{
horizontal = 1;
place = "{459, 21}";
target = up;
type = BottomGhost;
}
);
layerId = "24A19461-EE5C-48C0-A968-CC082199DAC2";
paths = (
{
closed = 1;
nodes = (
"371 669 LINE",
"352 572 LINE",
"400 577 LINE",
"396 559 LINE SMOOTH",
"390 529 OFFCURVE",
"374 514 OFFCURVE",
"345 514 CURVE",
"334 459 LINE",
"408 459 OFFCURVE",
"454 498 OFFCURVE",
"469 575 CURVE SMOOTH",
"474 602 OFFCURVE",
"476 632 OFFCURVE",
"474 669 CURVE"
);
}
);
width = 480.73;
},
{
components = (
{
alignment = -1;
name = l;
}
);
hints = (
{
horizontal = 1;
place = "{687, -20}";
target = down;
type = TopGhost;
},
{
horizontal = 1;
place = "{547, 21}";
target = up;
type = BottomGhost;
}
);
layerId = "F7832249-9EF4-4513-B883-88BAA20BF268";
paths = (
{
closed = 1;
nodes = (
"288 686 LINE",
"278 635 LINE",
"314 635 LINE",
"308 609 LINE SMOOTH",
"303 582 OFFCURVE",
"291 568 OFFCURVE",
"259 568 CURVE",
"254 547 LINE",
"293 547 OFFCURVE",
"322 562 OFFCURVE",
"334 621 CURVE SMOOTH",
"337 638 OFFCURVE",
"340 659 OFFCURVE",
"343 686 CURVE"
);
}
);
width = 354.02447;
},
{
components = (
{
alignment = -1;
name = l;
}
);
hints = (
{
horizontal = 1;
place = "{657, -20}";
target = down;
type = TopGhost;
},
{
horizontal = 1;
place = "{401, 21}";
target = up;
type = BottomGhost;
}
);
layerId = "9CDD62D3-67F3-4AC7-B192-D539276CE01F";
paths = (
{
closed = 1;
nodes = (
"388 657 LINE",
"362 528 LINE",
"419 539 LINE",
"416 525 LINE SMOOTH",
"410 494 OFFCURVE",
"391 480 OFFCURVE",
"362 480 CURVE",
"347 401 LINE",
"447 401 OFFCURVE",
"506 460 OFFCURVE",
"523 544 CURVE SMOOTH",
"529 576 OFFCURVE",
"531 613 OFFCURVE",
"524 657 CURVE"
);
}
);
width = 512.29462;
}
);
leftMetricsKey = l;
rightMetricsKey = l;
unicode = 013E;
},
{
glyphname = lcommaaccent;
lastChange = "2021-08-13 16:01:28 +0000";
layers = (
{
components = (
{
alignment = -1;
name = l;
}
);
hints = (
{
horizontal = 1;
place = "{-31, -20}";
target = down;
type = TopGhost;
},
{
horizontal = 1;
place = "{-240, 21}";
target = up;
type = BottomGhost;
}
);
layerId = "24A19461-EE5C-48C0-A968-CC082199DAC2";
paths = (
{
closed = 1;
nodes = (
"64 -31 LINE",
"44 -126 LINE",
"93 -121 LINE",
"89 -140 LINE SMOOTH",
"83 -170 OFFCURVE",
"67 -186 OFFCURVE",
"36 -186 CURVE",
"25 -240 LINE",
"99 -240 OFFCURVE",
"146 -201 OFFCURVE",
"162 -124 CURVE SMOOTH",
"167 -98 OFFCURVE",
"168 -67 OFFCURVE",
"167 -31 CURVE"
);
}
);
width = 312.52;
},
{
components = (
{
alignment = -1;
name = l;
}
);
hints = (
{
horizontal = 1;
place = "{-53, -20}";
target = down;
type = TopGhost;
},
{
horizontal = 1;
place = "{-165, 21}";
target = up;
type = BottomGhost;
}
);
layerId = "F7832249-9EF4-4513-B883-88BAA20BF268";
paths = (
{
closed = 1;
nodes = (
"52 -53 LINE",
"44 -91 LINE",
"73 -90 LINE",
"72 -97 LINE SMOOTH",
"66 -127 OFFCURVE",
"52 -146 OFFCURVE",
"22 -146 CURVE",
"19 -165 LINE",
"54 -165 OFFCURVE",
"84 -150 OFFCURVE",
"98 -83 CURVE SMOOTH",
"99 -75 OFFCURVE",
"101 -62 OFFCURVE",
"102 -53 CURVE"
);
}
);
width = 258.00511;
},
{
components = (
{
alignment = -1;
name = l;
}
);
hints = (
{
horizontal = 1;
place = "{-12, -20}";
target = down;
type = TopGhost;
},
{
horizontal = 1;
place = "{-268, 21}";
target = up;
type = BottomGhost;
}
);
layerId = "9CDD62D3-67F3-4AC7-B192-D539276CE01F";
paths = (
{
closed = 1;
nodes = (
"69 -12 LINE",
"43 -141 LINE",
"100 -130 LINE",
"97 -143 LINE SMOOTH",
"91 -175 OFFCURVE",
"72 -190 OFFCURVE",
"43 -190 CURVE",
"28 -268 LINE",
"128 -268 OFFCURVE",
"187 -209 OFFCURVE",
"204 -125 CURVE SMOOTH",
"210 -94 OFFCURVE",
"211 -56 OFFCURVE",
"206 -12 CURVE"
);
}
);
width = 326.65934;
}
);
leftMetricsKey = l;
rightMetricsKey = l;
unicode = 013C;
},
{
color = 4;
glyphname = ldot;
lastChange = "2021-08-13 16:01:28 +0000";
layers = (
{
hints = (
{
horizontal = 1;
place = "{271, 117}";
type = Stem;
},
{
horizontal = 1;
place = "{720, -20}";
target = down;
type = TopGhost;
},
{
horizontal = 1;
place = "{0, 21}";
target = up;
type = BottomGhost;
}
);
layerId = "24A19461-EE5C-48C0-A968-CC082199DAC2";
paths = (
{
closed = 1;
nodes = (
"141 0 LINE",
"284 720 LINE",
"170 720 LINE",
"27 0 LINE"
);
},
{
closed = 1;
nodes = (
"309 271 OFFCURVE",
"341 297 OFFCURVE",
"348 330 CURVE SMOOTH",
"354 362 OFFCURVE",
"333 388 OFFCURVE",
"300 388 CURVE SMOOTH",
"266 388 OFFCURVE",
"235 362 OFFCURVE",
"229 330 CURVE SMOOTH",
"222 297 OFFCURVE",
"243 271 OFFCURVE",
"277 271 CURVE SMOOTH"
);
}
);
width = 293.76;
},
{
hints = (
{
horizontal = 1;
place = "{316, 58}";
type = Stem;
},
{
horizontal = 1;
place = "{688, -20}";
target = down;
type = TopGhost;
},
{
horizontal = 1;
place = "{0, 21}";
target = up;
type = BottomGhost;
}
);
layerId = "F7832249-9EF4-4513-B883-88BAA20BF268";
paths = (
{
closed = 1;
nodes = (
"66 0 LINE",
"203 687 LINE",
"181 687 LINE",
"44 0 LINE"
);
},
{
closed = 1;
nodes = (
"247 316 OFFCURVE",
"264 329 OFFCURVE",
"267 345 CURVE SMOOTH",
"270 360 OFFCURVE",
"259 374 OFFCURVE",
"243 374 CURVE SMOOTH",
"228 374 OFFCURVE",
"211 360 OFFCURVE",
"208 345 CURVE SMOOTH",
"205 329 OFFCURVE",
"216 316 OFFCURVE",
"232 316 CURVE SMOOTH"
);
}
);
width = 200.75681;
},
{
hints = (
{
horizontal = 1;
place = "{248, 150}";
type = Stem;
},
{
horizontal = 1;
place = "{720, -20}";
target = down;
type = TopGhost;
},
{
horizontal = 1;
place = "{0, 21}";
target = up;
type = BottomGhost;
}
);
layerId = "9CDD62D3-67F3-4AC7-B192-D539276CE01F";
paths = (
{
closed = 1;
nodes = (
"174 0 LINE",
"318 720 LINE",
"142 720 LINE",
"-2 0 LINE"
);
},
{
closed = 1;
nodes = (
"344 248 OFFCURVE",
"384 281 OFFCURVE",
"392 323 CURVE SMOOTH",
"401 365 OFFCURVE",
"374 398 OFFCURVE",
"330 398 CURVE SMOOTH",
"286 398 OFFCURVE",
"246 365 OFFCURVE",
"238 323 CURVE SMOOTH",
"229 281 OFFCURVE",
"256 248 OFFCURVE",
"300 248 CURVE SMOOTH"
);
}
);
width = 353.8191;
}
);
leftMetricsKey = l;
rightMetricsKey = "=l*-0.5";
unicode = 0140;
},
{
glyphname = lslash;
lastChange = "2021-08-13 16:01:28 +0000";
layers = (
{
hints = (
{
horizontal = 1;
place = "{720, -20}";
target = down;
type = TopGhost;
},
{
horizontal = 1;
place = "{0, 21}";
target = up;
type = BottomGhost;
}
);
layerId = "24A19461-EE5C-48C0-A968-CC082199DAC2";
paths = (
{
closed = 1;
nodes = (
"6 240 LINE",
"254 320 LINE",
"272 409 LINE",
"24 330 LINE"
);
},
{
closed = 1;
nodes = (
"17 0 LINE",
"131 0 LINE",
"274 720 LINE",
"160 720 LINE"
);
}
);
width = 247.67;
},
{
hints = (
{
horizontal = 1;
place = "{688, -20}";
target = down;
type = TopGhost;
},
{
horizontal = 1;
place = "{0, 21}";
target = up;
type = BottomGhost;
}
);
layerId = "F7832249-9EF4-4513-B883-88BAA20BF268";
paths = (
{
closed = 1;
nodes = (
"37 387 LINE",
"235 488 LINE",
"240 509 LINE",
"41 408 LINE"
);
},
{
closed = 1;
nodes = (
"38 0 LINE",
"60 0 LINE",
"197 687 LINE",
"175 687 LINE"
);
}
);
width = 197.40277;
},
{
hints = (
{
horizontal = 1;
place = "{720, -20}";
target = down;
type = TopGhost;
},
{
horizontal = 1;
place = "{0, 21}";
target = up;
type = BottomGhost;
}
);
layerId = "9CDD62D3-67F3-4AC7-B192-D539276CE01F";
paths = (
{
closed = 1;
nodes = (
"-2 214 LINE",
"304 301 LINE",
"334 451 LINE",
"28 365 LINE"
);
},
{
closed = 1;
nodes = (
"11 0 LINE",
"187 0 LINE",
"331 720 LINE",
"154 720 LINE"
);
}
);
width = 298.39783;
}
);
leftMetricsKey = "=l*0.1";
rightMetricsKey = "=l*0.1";
unicode = 0142;
},
{
glyphname = m;
lastChange = "2021-08-13 16:01:28 +0000";
layers = (
{
hints = (
{
horizontal = 1;
place = "{410, 98}";
type = Stem;
},
{
horizontal = 1;
place = "{0, 21}";
target = up;
type = BottomGhost;
}
);
layerId = "24A19461-EE5C-48C0-A968-CC082199DAC2";
paths = (
{
closed = 1;
nodes = (
"27 0 LINE",
"141 0 LINE",
"228 440 LINE",
"231 501 LINE",
"126 501 LINE"
);
},
{
closed = 1;
nodes = (
"360 0 LINE",
"473 0 LINE",
"531 294 LINE SMOOTH",
"559 435 OFFCURVE",
"495 509 OFFCURVE",
"376 509 CURVE SMOOTH",
"296 509 OFFCURVE",
"216 463 OFFCURVE",
"179 390 CURVE",
"184 277 LINE",
"196 278 LINE",
"213 365 OFFCURVE",
"265 410 OFFCURVE",
"335 410 CURVE SMOOTH",
"405 410 OFFCURVE",
"432 366 OFFCURVE",
"415 279 CURVE SMOOTH"
);
},
{
closed = 1;
nodes = (
"693 0 LINE",
"806 0 LINE",
"865 294 LINE SMOOTH",
"893 435 OFFCURVE",
"827 509 OFFCURVE",
"708 509 CURVE SMOOTH",
"627 509 OFFCURVE",
"543 469 OFFCURVE",
"502 397 CURVE",
"516 276 LINE",
"528 278 LINE",
"545 365 OFFCURVE",
"597 410 OFFCURVE",
"667 410 CURVE SMOOTH",
"737 410 OFFCURVE",
"766 366 OFFCURVE",
"749 279 CURVE SMOOTH"
);
}
);
width = 925.07;
},
{
hints = (
{
horizontal = 1;
place = "{9, 2}";
type = Stem;
},
{
horizontal = 1;
place = "{0, 21}";
target = up;
type = BottomGhost;
}
);
layerId = "F7832249-9EF4-4513-B883-88BAA20BF268";
paths = (
{
closed = 1;
nodes = (
"44 0 LINE",
"66 0 LINE",
"141 373 LINE",
"166 501 LINE",
"144 501 LINE"
);
},
{
closed = 1;
nodes = (
"414 0 LINE",
"435 0 LINE",
"491 283 LINE SMOOTH",
"522 438 OFFCURVE",
"452 508 OFFCURVE",
"348 508 CURVE SMOOTH",
"215 508 OFFCURVE",
"143 413 OFFCURVE",
"114 296 CURVE",
"115 252 LINE",
"117 252 LINE",
"148 408 OFFCURVE",
"237 489 OFFCURVE",
"344 489 CURVE SMOOTH",
"447 489 OFFCURVE",
"497 416 OFFCURVE",
"470 284 CURVE SMOOTH"
);
},
{
closed = 1;
nodes = (
"783 0 LINE",
"804 0 LINE",
"860 283 LINE SMOOTH",
"891 438 OFFCURVE",
"821 508 OFFCURVE",
"717 508 CURVE SMOOTH",
"612 508 OFFCURVE",
"518 451 OFFCURVE",
"482 305 CURVE",
"473 253 LINE",
"485 252 LINE",
"516 408 OFFCURVE",
"606 489 OFFCURVE",
"712 489 CURVE SMOOTH",
"816 489 OFFCURVE",
"865 416 OFFCURVE",
"839 284 CURVE SMOOTH"
);
}
);
width = 938.15553;
},
{
hints = (
{
horizontal = 1;
place = "{290, -20}";
target = down;
type = TopGhost;
},
{
horizontal = 1;
place = "{0, 21}";
target = up;
type = BottomGhost;
}
);
layerId = "9CDD62D3-67F3-4AC7-B192-D539276CE01F";
paths = (
{
closed = 1;
nodes = (
"-2 0 LINE",
"174 0 LINE",
"260 430 LINE",
"258 501 LINE",
"98 501 LINE"
);
},
{
closed = 1;
nodes = (
"322 0 LINE",
"497 0 LINE",
"555 291 LINE SMOOTH",
"582 426 OFFCURVE",
"519 506 OFFCURVE",
"400 506 CURVE SMOOTH",
"320 506 OFFCURVE",
"246 458 OFFCURVE",
"207 390 CURVE",
"202 268 LINE",
"228 270 LINE",
"239 325 OFFCURVE",
"273 355 OFFCURVE",
"320 355 CURVE SMOOTH",
"366 355 OFFCURVE",
"387 325 OFFCURVE",
"376 271 CURVE SMOOTH"
);
},
{
closed = 1;
nodes = (
"646 0 LINE",
"821 0 LINE",
"879 291 LINE SMOOTH",
"906 426 OFFCURVE",
"845 506 OFFCURVE",
"717 506 CURVE SMOOTH",
"629 506 OFFCURVE",
"545 445 OFFCURVE",
"503 376 CURVE",
"527 263 LINE",
"550 267 LINE",
"562 324 OFFCURVE",
"596 355 OFFCURVE",
"643 355 CURVE SMOOTH",
"689 355 OFFCURVE",
"710 325 OFFCURVE",
"699 271 CURVE SMOOTH"
);
}
);
width = 913.79075;
}
);
leftMetricsKey = l;
rightMetricsKey = "=l*0.9";
unicode = 006D;
},
{
glyphname = n;
lastChange = "2021-08-13 16:01:28 +0000";
layers = (
{
anchors = (
{
name = bottom;
position = "{257, 5}";
},
{
name = top;
position = "{363, 496}";
}
);
hints = (
{
horizontal = 1;
place = "{410, 98}";
type = Stem;
},
{
horizontal = 1;
place = "{0, 21}";
target = up;
type = BottomGhost;
}
);
layerId = "24A19461-EE5C-48C0-A968-CC082199DAC2";
paths = (
{
closed = 1;
nodes = (
"27 0 LINE",
"141 0 LINE",
"228 439 LINE",
"231 501 LINE",
"126 501 LINE"
);
},
{
closed = 1;
nodes = (
"361 0 LINE",
"475 0 LINE",
"533 294 LINE SMOOTH",
"561 435 OFFCURVE",
"496 509 OFFCURVE",
"377 509 CURVE SMOOTH",
"297 509 OFFCURVE",
"216 463 OFFCURVE",
"179 390 CURVE",
"184 277 LINE",
"196 278 LINE",
"213 365 OFFCURVE",
"265 410 OFFCURVE",
"335 410 CURVE SMOOTH",
"405 410 OFFCURVE",
"434 366 OFFCURVE",
"417 279 CURVE SMOOTH"
);
}
);
width = 593.11;
},
{
anchors = (
{
name = bottom;
position = "{238, 1}";
},
{
name = top;
position = "{328, 501}";
}
);
hints = (
{
horizontal = 1;
place = "{9, 2}";
type = Stem;
},
{
horizontal = 1;
place = "{0, 21}";
target = up;
type = BottomGhost;
}
);
layerId = "F7832249-9EF4-4513-B883-88BAA20BF268";
paths = (
{
closed = 1;
nodes = (
"44 0 LINE",
"66 0 LINE",
"140 372 LINE",
"166 501 LINE",
"144 501 LINE"
);
},
{
closed = 1;
nodes = (
"432 0 LINE",
"453 0 LINE",
"509 283 LINE SMOOTH",
"540 438 OFFCURVE",
"467 508 OFFCURVE",
"357 508 CURVE SMOOTH",
"229 508 OFFCURVE",
"147 427 OFFCURVE",
"118 307 CURVE",
"116 257 LINE",
"117 257 LINE",
"148 411 OFFCURVE",
"240 489 OFFCURVE",
"353 489 CURVE SMOOTH",
"462 489 OFFCURVE",
"515 416 OFFCURVE",
"489 284 CURVE SMOOTH"
);
}
);
width = 587.63894;
},
{
anchors = (
{
name = bottom;
position = "{252, 11}";
},
{
name = top;
position = "{367, 490}";
}
);
hints = (
{
horizontal = 1;
place = "{290, -20}";
target = down;
type = TopGhost;
},
{
horizontal = 1;
place = "{0, 21}";
target = up;
type = BottomGhost;
}
);
layerId = "9CDD62D3-67F3-4AC7-B192-D539276CE01F";
paths = (
{
closed = 1;
nodes = (
"-2 0 LINE",
"174 0 LINE",
"259 425 LINE",
"258 501 LINE",
"98 501 LINE"
);
},
{
closed = 1;
nodes = (
"323 0 LINE",
"498 0 LINE",
"556 291 LINE SMOOTH",
"583 426 OFFCURVE",
"524 506 OFFCURVE",
"405 506 CURVE SMOOTH",
"323 506 OFFCURVE",
"247 455 OFFCURVE",
"206 386 CURVE",
"202 268 LINE",
"228 270 LINE",
"240 328 OFFCURVE",
"274 359 OFFCURVE",
"321 359 CURVE SMOOTH",
"367 359 OFFCURVE",
"388 328 OFFCURVE",
"377 271 CURVE SMOOTH"
);
}
);
width = 590.96925;
}
);
leftMetricsKey = m;
rightMetricsKey = m;
unicode = 006E;
},
{
glyphname = ncommaaccent;
lastChange = "2021-08-13 16:01:28 +0000";
layers = (
{
components = (
{
alignment = -1;
name = n;
}
);
hints = (
{
horizontal = 1;
place = "{-126, 96}";
type = Stem;
},
{
horizontal = 1;
place = "{-240, 21}";
target = up;
type = BottomGhost;
}
);
layerId = "24A19461-EE5C-48C0-A968-CC082199DAC2";
paths = (
{
closed = 1;
nodes = (
"235 -31 LINE",
"216 -126 LINE",
"276 -126 LINE",
"277 -121 LINE",
"264 -121 LINE",
"261 -140 LINE SMOOTH",
"255 -170 OFFCURVE",
"238 -186 OFFCURVE",
"209 -186 CURVE",
"198 -240 LINE",
"272 -240 OFFCURVE",
"318 -201 OFFCURVE",
"333 -124 CURVE SMOOTH",
"338 -98 OFFCURVE",
"341 -67 OFFCURVE",
"338 -31 CURVE"
);
}
);
width = 593.11;
},
{
components = (
{
alignment = -1;
name = n;
}
);
hints = (
{
horizontal = 1;
place = "{-3, 2}";
type = Stem;
},
{
horizontal = 1;
place = "{-165, 21}";
target = up;
type = BottomGhost;
}
);
layerId = "F7832249-9EF4-4513-B883-88BAA20BF268";
paths = (
{
closed = 1;
nodes = (
"255 -53 LINE",
"247 -91 LINE",
"278 -91 LINE",
"278 -90 LINE",
"276 -90 LINE",
"275 -97 LINE SMOOTH",
"269 -127 OFFCURVE",
"255 -146 OFFCURVE",
"225 -146 CURVE",
"222 -165 LINE",
"257 -165 OFFCURVE",
"287 -150 OFFCURVE",
"301 -83 CURVE SMOOTH",
"302 -75 OFFCURVE",
"304 -62 OFFCURVE",
"305 -53 CURVE"
);
}
);
width = 587.63894;
},
{
components = (
{
alignment = -1;
name = n;
}
);
hints = (
{
horizontal = 1;
place = "{-141, 129}";
type = Stem;
},
{
horizontal = 1;
place = "{-268, 21}";
target = up;
type = BottomGhost;
}
);
layerId = "9CDD62D3-67F3-4AC7-B192-D539276CE01F";
paths = (
{
closed = 1;
nodes = (
"241 -12 LINE",
"215 -141 LINE",
"296 -141 LINE",
"298 -130 LINE",
"272 -130 LINE",
"269 -143 LINE SMOOTH",
"263 -175 OFFCURVE",
"244 -190 OFFCURVE",
"215 -190 CURVE",
"200 -268 LINE",
"300 -268 OFFCURVE",
"359 -209 OFFCURVE",
"376 -125 CURVE SMOOTH",
"382 -94 OFFCURVE",
"384 -56 OFFCURVE",
"377 -12 CURVE"
);
}
);
width = 590.96925;
}
);
leftMetricsKey = n;
rightMetricsKey = n;
unicode = 0146;
},
{
glyphname = o;
lastChange = "2021-08-13 16:01:28 +0000";
layers = (
{
anchors = (
{
name = top;
position = "{352, 504}";
}
);
hints = (
{
horizontal = 1;
place = "{-8, 98}";
type = Stem;
},
{
horizontal = 1;
place = "{410, 98}";
type = Stem;
}
);
layerId = "24A19461-EE5C-48C0-A968-CC082199DAC2";
paths = (
{
closed = 1;
nodes = (
"391 -8 OFFCURVE",
"528 94 OFFCURVE",
"559 251 CURVE SMOOTH",
"590 408 OFFCURVE",
"497 509 OFFCURVE",
"354 509 CURVE SMOOTH",
"210 509 OFFCURVE",
"77 408 OFFCURVE",
"46 251 CURVE SMOOTH",
"15 94 OFFCURVE",
"103 -8 OFFCURVE",
"246 -8 CURVE SMOOTH"
);
},
{
closed = 1;
nodes = (
"193 90 OFFCURVE",
"140 143 OFFCURVE",
"162 251 CURVE SMOOTH",
"183 359 OFFCURVE",
"259 410 OFFCURVE",
"332 410 CURVE SMOOTH",
"405 410 OFFCURVE",
"464 359 OFFCURVE",
"442 251 CURVE SMOOTH",
"421 143 OFFCURVE",
"339 90 OFFCURVE",
"266 90 CURVE SMOOTH"
);
}
);
width = 604.514;
},
{
anchors = (
{
name = top;
position = "{353.438, 501}";
}
);
hints = (
{
horizontal = 1;
place = "{0, 2}";
type = Stem;
},
{
horizontal = 1;
place = "{9, 2}";
type = Stem;
}
);
layerId = "F7832249-9EF4-4513-B883-88BAA20BF268";
paths = (
{
closed = 1;
nodes = (
"389.438 -7 OFFCURVE",
"513.438 89 OFFCURVE",
"546.438 251 CURVE SMOOTH",
"578.438 412 OFFCURVE",
"492.438 508 OFFCURVE",
"352.438 508 CURVE SMOOTH",
"213.438 508 OFFCURVE",
"88.438 412 OFFCURVE",
"56.438 251 CURVE SMOOTH",
"24.438 89 OFFCURVE",
"110.438 -7 OFFCURVE",
"250.438 -7 CURVE SMOOTH"
);
},
{
closed = 1;
nodes = (
"140.438 13 OFFCURVE",
"45.438 87 OFFCURVE",
"78.438 251 CURVE SMOOTH",
"110.438 415 OFFCURVE",
"235.438 488 OFFCURVE",
"348.438 488 CURVE SMOOTH",
"462.438 488 OFFCURVE",
"556.438 415 OFFCURVE",
"524.438 251 CURVE SMOOTH",
"491.438 87 OFFCURVE",
"367.438 13 OFFCURVE",
"254.438 13 CURVE SMOOTH"
);
}
);
width = 602.3234;
},
{
anchors = (
{
name = top;
position = "{351, 494}";
}
);
hints = (
{
horizontal = 1;
place = "{-7, 152}";
type = Stem;
},
{
horizontal = 1;
place = "{356, 152}";
type = Stem;
}
);
layerId = "9CDD62D3-67F3-4AC7-B192-D539276CE01F";
paths = (
{
closed = 1;
nodes = (
"387 -7 OFFCURVE",
"522 92 OFFCURVE",
"554 251 CURVE SMOOTH",
"585 409 OFFCURVE",
"491 508 OFFCURVE",
"343 508 CURVE SMOOTH",
"194 508 OFFCURVE",
"60 409 OFFCURVE",
"29 251 CURVE SMOOTH",
"-3 92 OFFCURVE",
"90 -7 OFFCURVE",
"238 -7 CURVE SMOOTH"
);
},
{
closed = 1;
nodes = (
"224 145 OFFCURVE",
"193 179 OFFCURVE",
"207 251 CURVE SMOOTH",
"222 322 OFFCURVE",
"267 356 OFFCURVE",
"312 356 CURVE SMOOTH",
"355 356 OFFCURVE",
"389 322 OFFCURVE",
"375 251 CURVE SMOOTH",
"361 179 OFFCURVE",
"312 145 OFFCURVE",
"268 145 CURVE SMOOTH"
);
}
);
width = 582.53443;
}
);
leftMetricsKey = "=l*0.6";
rightMetricsKey = "=l*0.6";
unicode = 006F;
},
{
glyphname = oslash;
lastChange = "2021-08-13 16:01:28 +0000";
layers = (
{
components = (
{
alignment = -1;
name = o;
}
);
layerId = "24A19461-EE5C-48C0-A968-CC082199DAC2";
paths = (
{
closed = 1;
nodes = (
"93 115 LINE",
"161 58 LINE",
"531 392 LINE",
"463 449 LINE"
);
}
);
width = 604.52;
},
{
components = (
{
alignment = -1;
name = o;
}
);
layerId = "F7832249-9EF4-4513-B883-88BAA20BF268";
paths = (
{
closed = 1;
nodes = (
"87 74 LINE",
"105 67 LINE",
"509 431 LINE",
"492 439 LINE"
);
}
);
width = 602.31553;
},
{
components = (
{
alignment = -1;
name = o;
}
);
layerId = "9CDD62D3-67F3-4AC7-B192-D539276CE01F";
paths = (
{
closed = 1;
nodes = (
"106 126 LINE",
"161 86 LINE",
"514 403 LINE",
"459 443 LINE"
);
}
);
width = 582.53698;
}
);
leftMetricsKey = o;
rightMetricsKey = o;
unicode = 00F8;
},
{
glyphname = oe;
lastChange = "2021-08-13 16:04:01 +0000";
layers = (
{
hints = (
{
horizontal = 1;
place = "{-8, 96}";
type = Stem;
},
{
horizontal = 1;
place = "{211, 80}";
type = Stem;
},
{
horizontal = 1;
place = "{413, 96}";
type = Stem;
}
);
layerId = "24A19461-EE5C-48C0-A968-CC082199DAC2";
paths = (
{
closed = 1;
nodes = (
"421 143 OFFCURVE",
"339 88 OFFCURVE",
"266 88 CURVE SMOOTH",
"193 88 OFFCURVE",
"141 143 OFFCURVE",
"163 251 CURVE SMOOTH",
"184 359 OFFCURVE",
"261 413 OFFCURVE",
"333 413 CURVE SMOOTH",
"406 413 OFFCURVE",
"464 359 OFFCURVE",
"442 251 CURVE SMOOTH"
);
},
{
closed = 1;
nodes = (
"15 94 OFFCURVE",
"103 -8 OFFCURVE",
"247 -8 CURVE SMOOTH",
"328 -8 OFFCURVE",
"408 28 OFFCURVE",
"466 90 CURVE",
"496 29 OFFCURVE",
"558 -7 OFFCURVE",
"637 -8 CURVE",
"758 -6 OFFCURVE",
"857 66 OFFCURVE",
"904 156 CURVE",
"782 156 LINE",
"756 118 OFFCURVE",
"716 88 OFFCURVE",
"656 88 CURVE SMOOTH",
"581 88 OFFCURVE",
"538 142 OFFCURVE",
"555 229 CURVE SMOOTH",
"563 268 LINE SMOOTH",
"581 358 OFFCURVE",
"648 413 OFFCURVE",
"721 413 CURVE SMOOTH",
"791 413 OFFCURVE",
"838 366 OFFCURVE",
"827 291 CURVE",
"519 291 LINE",
"502 211 LINE",
"926 211 LINE",
"933 232 OFFCURVE",
"938 249 OFFCURVE",
"941 264 CURVE SMOOTH",
"969 410 OFFCURVE",
"888 509 OFFCURVE",
"744 509 CURVE SMOOTH",
"661 509 OFFCURVE",
"585 473 OFFCURVE",
"531 412 CURVE",
"498 473 OFFCURVE",
"434 509 OFFCURVE",
"355 509 CURVE SMOOTH",
"211 509 OFFCURVE",
"77 408 OFFCURVE",
"46 251 CURVE SMOOTH"
);
}
);
width = 984.26;
},
{
hints = (
{
horizontal = 1;
place = "{0, 2}";
type = Stem;
},
{
horizontal = 1;
place = "{4, 2}";
type = Stem;
},
{
horizontal = 1;
place = "{9, 2}";
type = Stem;
}
);
layerId = "F7832249-9EF4-4513-B883-88BAA20BF268";
paths = (
{
closed = 1;
nodes = (
"491.44 87 OFFCURVE",
"367.44 13 OFFCURVE",
"254.44 13 CURVE SMOOTH",
"140.44 13 OFFCURVE",
"45.44 87 OFFCURVE",
"78.44 251 CURVE SMOOTH",
"110.44 415 OFFCURVE",
"235.44 488 OFFCURVE",
"348.44 488 CURVE SMOOTH",
"462.44 488 OFFCURVE",
"556.44 415 OFFCURVE",
"524.44 251 CURVE SMOOTH"
);
},
{
closed = 1;
nodes = (
"24.44 89 OFFCURVE",
"110.44 -7 OFFCURVE",
"250.44 -7 CURVE SMOOTH",
"364.44 -7 OFFCURVE",
"466.44 57 OFFCURVE",
"518.44 167 CURVE",
"525.44 57 OFFCURVE",
"600.44 -6 OFFCURVE",
"714.44 -7 CURVE",
"844.44 -6 OFFCURVE",
"942.44 67 OFFCURVE",
"980.44 171 CURVE",
"958.44 171 LINE",
"922.44 73 OFFCURVE",
"828.44 13 OFFCURVE",
"718.44 13 CURVE SMOOTH",
"605.44 13 OFFCURVE",
"513.44 86 OFFCURVE",
"545.44 248 CURVE SMOOTH",
"547.44 256 LINE SMOOTH",
"579.44 417 OFFCURVE",
"700.44 488 OFFCURVE",
"812.44 488 CURVE SMOOTH",
"947.44 488 OFFCURVE",
"1011.44 397 OFFCURVE",
"978.44 261 CURVE",
"536.44 260 LINE",
"532.44 241 LINE",
"990.44 241 LINE",
"996.44 258 OFFCURVE",
"999.44 268 OFFCURVE",
"1004.44 292 CURVE SMOOTH",
"1025.44 398 OFFCURVE",
"969.44 508 OFFCURVE",
"816.44 508 CURVE SMOOTH",
"703.44 508 OFFCURVE",
"602.44 445 OFFCURVE",
"551.44 334 CURVE",
"543.44 445 OFFCURVE",
"466.44 508 OFFCURVE",
"352.44 508 CURVE SMOOTH",
"213.44 508 OFFCURVE",
"88.44 412 OFFCURVE",
"56.44 251 CURVE SMOOTH"
);
}
);
width = 1052.75574;
},
{
hints = (
{
horizontal = 1;
place = "{-3, 102}";
type = Stem;
},
{
horizontal = 1;
place = "{113, 102}";
type = Stem;
},
{
horizontal = 1;
place = "{271, 144}";
type = Stem;
},
{
horizontal = 1;
place = "{366, 142}";
type = Stem;
},
{
horizontal = 1;
place = "{-3, 119}";
type = Stem;
},
{
horizontal = 1;
place = "{-3, 110}";
type = Stem;
}
);
layerId = "9CDD62D3-67F3-4AC7-B192-D539276CE01F";
paths = (
{
closed = 1;
nodes = (
"361 179 OFFCURVE",
"312 144 OFFCURVE",
"269 144 CURVE SMOOTH",
"224 144 OFFCURVE",
"193 179 OFFCURVE",
"208 251 CURVE SMOOTH",
"222 322 OFFCURVE",
"268 357 OFFCURVE",
"312 357 CURVE SMOOTH",
"356 357 OFFCURVE",
"389 322 OFFCURVE",
"375 251 CURVE SMOOTH"
);
},
{
closed = 1;
nodes = (
"-3 92 OFFCURVE",
"90 -7 OFFCURVE",
"239 -7 CURVE SMOOTH",
"307 -7 OFFCURVE",
"373 17 OFFCURVE",
"426 60 CURVE",
"460 17 OFFCURVE",
"514 -6 OFFCURVE",
"582 -7 CURVE SMOOTH",
"707 -6 OFFCURVE",
"817 76 OFFCURVE",
"863 181 CURVE",
"680 181 LINE",
"663 157 OFFCURVE",
"639 136 OFFCURVE",
"605 136 CURVE SMOOTH",
"563 136 OFFCURVE",
"537 165 OFFCURVE",
"550 230 CURVE SMOOTH",
"558 272 LINE SMOOTH",
"570 332 OFFCURVE",
"610 366 OFFCURVE",
"656 366 CURVE SMOOTH",
"693 366 OFFCURVE",
"719 342 OFFCURVE",
"718 301 CURVE",
"503 301 LINE",
"484 206 LINE",
"873 206 LINE",
"881 227 OFFCURVE",
"887 245 OFFCURVE",
"889 259 CURVE SMOOTH",
"919 411 OFFCURVE",
"834 508 OFFCURVE",
"686 508 CURVE SMOOTH",
"616 508 OFFCURVE",
"553 484 OFFCURVE",
"503 442 CURVE",
"467 484 OFFCURVE",
"411 508 OFFCURVE",
"343 508 CURVE SMOOTH",
"194 508 OFFCURVE",
"60 409 OFFCURVE",
"29 251 CURVE SMOOTH"
);
}
);
width = 916.26651;
}
);
leftMetricsKey = o;
rightMetricsKey = e;
unicode = 0153;
},
{
glyphname = p;
lastChange = "2021-08-13 16:01:28 +0000";
layers = (
{
guideLines = (
{
position = "{-49.98, 79.88}";
}
);
hints = (
{
horizontal = 1;
place = "{410, 98}";
type = Stem;
},
{
horizontal = 1;
place = "{-200, 21}";
target = up;
type = BottomGhost;
}
);
layerId = "24A19461-EE5C-48C0-A968-CC082199DAC2";
paths = (
{
closed = 1;
nodes = (
"153 61 LINE",
"181 23 OFFCURVE",
"234 -8 OFFCURVE",
"304 -8 CURVE SMOOTH",
"437 -8 OFFCURVE",
"552 93 OFFCURVE",
"583 248 CURVE SMOOTH",
"613 402 OFFCURVE",
"539 508 OFFCURVE",
"407 508 CURVE SMOOTH",
"331 508 OFFCURVE",
"269 477 OFFCURVE",
"226 438 CURVE",
"230 500 LINE",
"126 500 LINE",
"-13 -200 LINE",
"101 -200 LINE"
);
},
{
closed = 1;
nodes = (
"446 145 OFFCURVE",
"374 90 OFFCURVE",
"301 90 CURVE SMOOTH",
"229 90 OFFCURVE",
"170 148 OFFCURVE",
"190 250 CURVE SMOOTH",
"211 352 OFFCURVE",
"292 410 OFFCURVE",
"365 410 CURVE SMOOTH",
"438 410 OFFCURVE",
"487 351 OFFCURVE",
"467 248 CURVE SMOOTH"
);
}
);
width = 621.24;
},
{
hints = (
{
horizontal = 1;
place = "{9, 2}";
type = Stem;
},
{
horizontal = 1;
place = "{-200, 21}";
target = up;
type = BottomGhost;
}
);
layerId = "F7832249-9EF4-4513-B883-88BAA20BF268";
paths = (
{
closed = 1;
nodes = (
"94.46 144 LINE",
"108.46 60 OFFCURVE",
"164.46 -6 OFFCURVE",
"279.46 -6 CURVE SMOOTH",
"423.46 -6 OFFCURVE",
"540.46 91 OFFCURVE",
"571.46 251 CURVE SMOOTH",
"603.46 411 OFFCURVE",
"525.46 508 OFFCURVE",
"381.46 508 CURVE SMOOTH",
"265.46 508 OFFCURVE",
"182.46 444 OFFCURVE",
"137.46 358 CURVE",
"165.46 500 LINE",
"143.46 500 LINE",
"4.46 -200 LINE",
"26.46 -200 LINE"
);
},
{
closed = 1;
nodes = (
"520.46 103 OFFCURVE",
"418.46 14 OFFCURVE",
"283.46 14 CURVE SMOOTH",
"154.46 14 OFFCURVE",
"87.46 108 OFFCURVE",
"115.46 251 CURVE SMOOTH",
"144.46 394 OFFCURVE",
"248.46 488 OFFCURVE",
"377.46 488 CURVE SMOOTH",
"512.46 488 OFFCURVE",
"579.46 399 OFFCURVE",
"549.46 251 CURVE SMOOTH"
);
}
);
width = 618.12755;
},
{
hints = (
{
horizontal = 1;
place = "{171, 153}";
type = Stem;
},
{
horizontal = 1;
place = "{292, -20}";
target = down;
type = TopGhost;
},
{
horizontal = 1;
place = "{-200, 21}";
target = up;
type = BottomGhost;
}
);
layerId = "9CDD62D3-67F3-4AC7-B192-D539276CE01F";
paths = (
{
closed = 1;
nodes = (
"184 46 LINE",
"209 17 OFFCURVE",
"250 -7 OFFCURVE",
"307 -7 CURVE SMOOTH",
"432 -7 OFFCURVE",
"545 91 OFFCURVE",
"577 249 CURVE SMOOTH",
"608 408 OFFCURVE",
"534 508 OFFCURVE",
"409 508 CURVE SMOOTH",
"348 508 OFFCURVE",
"296 483 OFFCURVE",
"258 450 CURVE",
"258 500 LINE",
"98 500 LINE",
"-42 -200 LINE",
"135 -200 LINE"
);
},
{
closed = 1;
nodes = (
"385 182 OFFCURVE",
"339 146 OFFCURVE",
"292 146 CURVE SMOOTH",
"245 146 OFFCURVE",
"210 183 OFFCURVE",
"224 250 CURVE SMOOTH",
"237 318 OFFCURVE",
"287 355 OFFCURVE",
"334 355 CURVE SMOOTH",
"381 355 OFFCURVE",
"412 317 OFFCURVE",
"399 249 CURVE SMOOTH"
);
}
);
width = 601.01217;
}
);
leftMetricsKey = l;
rightMetricsKey = "=l*0.5";
unicode = 0070;
},
{
glyphname = thorn;
lastChange = "2021-08-14 19:47:28 +0000";
layers = (
{
hints = (
{
horizontal = 1;
place = "{410, 98}";
type = Stem;
},
{
horizontal = 1;
place = "{-8, 98}";
type = Stem;
},
{
horizontal = 1;
place = "{721, -20}";
target = down;
type = TopGhost;
},
{
horizontal = 1;
place = "{-200, 21}";
target = up;
type = BottomGhost;
}
);
layerId = "24A19461-EE5C-48C0-A968-CC082199DAC2";
paths = (
{
closed = 1;
nodes = (
"156 76 LINE",
"181 28 OFFCURVE",
"230 -8 OFFCURVE",
"304 -8 CURVE SMOOTH",
"436 -8 OFFCURVE",
"562 98 OFFCURVE",
"592 253 CURVE SMOOTH",
"623 407 OFFCURVE",
"539 509 OFFCURVE",
"407 509 CURVE SMOOTH",
"333 509 OFFCURVE",
"268.064 474.902 OFFCURVE",
"225.064 428.902 CURVE",
"228.673 438.384 LINE",
"284 721 LINE",
"170 721 LINE",
"-13 -200 LINE",
"101 -200 LINE"
);
},
{
closed = 1;
nodes = (
"456 150 OFFCURVE",
"374 90 OFFCURVE",
"301 90 CURVE SMOOTH",
"229 90 OFFCURVE",
"170 148 OFFCURVE",
"191 251 CURVE SMOOTH",
"211 353 OFFCURVE",
"292 410 OFFCURVE",
"365 410 CURVE SMOOTH",
"438 410 OFFCURVE",
"497 355 OFFCURVE",
"477 253 CURVE SMOOTH"
);
}
);
width = 637.12;
},
{
hints = (
{
horizontal = 1;
place = "{9, 2}";
type = Stem;
},
{
horizontal = 1;
place = "{0, 2}";
type = Stem;
},
{
horizontal = 1;
place = "{688, -20}";
target = down;
type = TopGhost;
},
{
horizontal = 1;
place = "{-234, 21}";
target = up;
type = BottomGhost;
}
);
layerId = "F7832249-9EF4-4513-B883-88BAA20BF268";
paths = (
{
closed = 1;
nodes = (
"96 155 LINE",
"107 63 OFFCURVE",
"174 -7 OFFCURVE",
"288 -7 CURVE SMOOTH",
"432 -7 OFFCURVE",
"552 91 OFFCURVE",
"583 251 CURVE SMOOTH",
"615 410 OFFCURVE",
"534 508 OFFCURVE",
"390 508 CURVE SMOOTH",
"272 508 OFFCURVE",
"177 438 OFFCURVE",
"132 342 CURVE",
"134 347 LINE",
"202 687 LINE",
"181 687 LINE",
"-2 -234 LINE",
"19 -234 LINE"
);
},
{
closed = 1;
nodes = (
"532 103 OFFCURVE",
"427 13 OFFCURVE",
"292 13 CURVE SMOOTH",
"163 13 OFFCURVE",
"87 108 OFFCURVE",
"115 251 CURVE SMOOTH",
"144 394 OFFCURVE",
"257 488 OFFCURVE",
"386 488 CURVE SMOOTH",
"521 488 OFFCURVE",
"591 398 OFFCURVE",
"561 251 CURVE SMOOTH"
);
}
);
width = 638.88894;
},
{
hints = (
{
horizontal = 1;
place = "{171, 152}";
type = Stem;
},
{
horizontal = 1;
place = "{720, -20}";
target = down;
type = TopGhost;
},
{
horizontal = 1;
place = "{-200, 21}";
target = up;
type = BottomGhost;
}
);
layerId = "9CDD62D3-67F3-4AC7-B192-D539276CE01F";
paths = (
{
closed = 1;
nodes = (
"183.22 48 LINE",
"207.22 15 OFFCURVE",
"245.22 -6 OFFCURVE",
"298.22 -6 CURVE SMOOTH",
"424.22 -6 OFFCURVE",
"549.22 97 OFFCURVE",
"580.22 249 CURVE SMOOTH",
"610.22 402 OFFCURVE",
"526.22 506 OFFCURVE",
"400.22 506 CURVE SMOOTH",
"337.22 506 OFFCURVE",
"287.22 485 OFFCURVE",
"244.22 444 CURVE",
"270.297 485 LINE",
"317.22 720 LINE",
"141.22 720 LINE",
"-41.78 -200 LINE",
"134.22 -200 LINE"
);
},
{
closed = 1;
nodes = (
"387.22 178 OFFCURVE",
"334.22 146 OFFCURVE",
"292.22 146 CURVE SMOOTH",
"249.22 146 OFFCURVE",
"209.22 179 OFFCURVE",
"223.22 251 CURVE SMOOTH",
"237.22 322 OFFCURVE",
"290.22 355 OFFCURVE",
"333.22 355 CURVE SMOOTH",
"376.22 355 OFFCURVE",
"416.22 321 OFFCURVE",
"401.22 249 CURVE SMOOTH"
);
}
);
width = 608.81189;
}
);
leftMetricsKey = l;
rightMetricsKey = o;
unicode = 00FE;
},
{
glyphname = q;
lastChange = "2021-08-13 16:01:28 +0000";
layers = (
{
guideLines = (
{
position = "{-50.44, 79.88}";
}
);
hints = (
{
horizontal = 1;
place = "{-9, 98}";
type = Stem;
},
{
horizontal = 1;
place = "{409, 98}";
type = Stem;
},
{
horizontal = 1;
place = "{-200, 21}";
target = up;
type = BottomGhost;
}
);
layerId = "24A19461-EE5C-48C0-A968-CC082199DAC2";
paths = (
{
closed = 1;
nodes = (
"470 437 LINE",
"443 476 OFFCURVE",
"392 508 OFFCURVE",
"317 508 CURVE SMOOTH",
"185 508 OFFCURVE",
"68 401 OFFCURVE",
"38 247 CURVE SMOOTH",
"7 93 OFFCURVE",
"81 -9 OFFCURVE",
"215 -9 CURVE SMOOTH",
"285 -9 OFFCURVE",
"349 21 OFFCURVE",
"392 60 CURVE",
"341 -200 LINE",
"455 -200 LINE",
"594 499 LINE",
"490 499 LINE"
);
},
{
closed = 1;
nodes = (
"174 350 OFFCURVE",
"247 409 OFFCURVE",
"320 409 CURVE SMOOTH",
"392 409 OFFCURVE",
"451 351 OFFCURVE",
"430 249 CURVE SMOOTH",
"410 147 OFFCURVE",
"329 89 OFFCURVE",
"256 89 CURVE SMOOTH",
"183 89 OFFCURVE",
"133 144 OFFCURVE",
"153 247 CURVE SMOOTH"
);
}
);
width = 621.24;
},
{
hints = (
{
horizontal = 1;
place = "{0, 2}";
type = Stem;
},
{
horizontal = 1;
place = "{9, 2}";
type = Stem;
},
{
horizontal = 1;
place = "{-200, 21}";
target = up;
type = BottomGhost;
}
);
layerId = "F7832249-9EF4-4513-B883-88BAA20BF268";
paths = (
{
closed = 1;
nodes = (
"525 358 LINE",
"513 442 OFFCURVE",
"455 508 OFFCURVE",
"340 508 CURVE SMOOTH",
"196 508 OFFCURVE",
"79 411 OFFCURVE",
"47 251 CURVE SMOOTH",
"16 91 OFFCURVE",
"94 -6 OFFCURVE",
"237 -6 CURVE SMOOTH",
"354 -6 OFFCURVE",
"435 59 OFFCURVE",
"482 145 CURVE",
"414 -200 LINE",
"436 -200 LINE",
"575 500 LINE",
"553 500 LINE"
);
},
{
closed = 1;
nodes = (
"99 399 OFFCURVE",
"201 488 OFFCURVE",
"336 488 CURVE SMOOTH",
"465 488 OFFCURVE",
"532 394 OFFCURVE",
"503 251 CURVE SMOOTH",
"475 108 OFFCURVE",
"371 14 OFFCURVE",
"242 14 CURVE SMOOTH",
"106 14 OFFCURVE",
"40 103 OFFCURVE",
"69 251 CURVE SMOOTH"
);
}
);
width = 619.28255;
},
{
hints = (
{
horizontal = 1;
place = "{354, 152}";
type = Stem;
},
{
horizontal = 1;
place = "{-200, 21}";
target = up;
type = BottomGhost;
}
);
layerId = "9CDD62D3-67F3-4AC7-B192-D539276CE01F";
paths = (
{
closed = 1;
nodes = (
"422 448 LINE",
"397 482 OFFCURVE",
"356 507 OFFCURVE",
"294 507 CURVE SMOOTH",
"170 507 OFFCURVE",
"55 407 OFFCURVE",
"24 249 CURVE SMOOTH",
"-8 91 OFFCURVE",
"67 -7 OFFCURVE",
"192 -7 CURVE SMOOTH",
"248 -7 OFFCURVE",
"299 15 OFFCURVE",
"336 45 CURVE",
"287 -200 LINE",
"463 -200 LINE",
"603 500 LINE",
"443 500 LINE"
);
},
{
closed = 1;
nodes = (
"216 317 OFFCURVE",
"262 355 OFFCURVE",
"309 355 CURVE SMOOTH",
"356 355 OFFCURVE",
"391 317 OFFCURVE",
"377 250 CURVE SMOOTH",
"364 183 OFFCURVE",
"314 145 OFFCURVE",
"267 145 CURVE SMOOTH",
"220 145 OFFCURVE",
"189 181 OFFCURVE",
"202 249 CURVE SMOOTH"
);
}
);
width = 601.01217;
}
);
leftMetricsKey = "=l*0.5";
rightMetricsKey = l;
unicode = 0071;
},
{
glyphname = r;
lastChange = "2021-08-13 16:01:28 +0000";
layers = (
{
anchors = (
{
name = bottom;
position = "{85, 5}";
},
{
name = top;
position = "{279, 496}";
}
);
hints = (
{
horizontal = 1;
place = "{388, 115}";
type = Stem;
},
{
horizontal = 1;
place = "{0, 21}";
target = up;
type = BottomGhost;
}
);
layerId = "24A19461-EE5C-48C0-A968-CC082199DAC2";
paths = (
{
closed = 1;
nodes = (
"188 239 LINE",
"208 339 OFFCURVE",
"280 388 OFFCURVE",
"343 388 CURVE SMOOTH",
"355 388 OFFCURVE",
"367 387 OFFCURVE",
"382 383 CURVE",
"405 498 LINE",
"389 502 OFFCURVE",
"375 503 OFFCURVE",
"363 503 CURVE SMOOTH",
"259 503 OFFCURVE",
"164 395 OFFCURVE",
"144 296 CURVE"
);
},
{
closed = 1;
nodes = (
"27 0 LINE",
"141 0 LINE",
"225 424 LINE",
"231 500 LINE",
"126 500 LINE"
);
}
);
width = 380.65;
},
{
anchors = (
{
name = bottom;
position = "{60, 1}";
},
{
name = top;
position = "{253, 501}";
}
);
hints = (
{
horizontal = 1;
place = "{8, 2}";
type = Stem;
},
{
horizontal = 1;
place = "{0, 21}";
target = up;
type = BottomGhost;
}
);
layerId = "F7832249-9EF4-4513-B883-88BAA20BF268";
paths = (
{
closed = 1;
nodes = (
"123 287 LINE",
"150 420 OFFCURVE",
"247 486 OFFCURVE",
"326 486 CURVE SMOOTH",
"340 486 OFFCURVE",
"355 483 OFFCURVE",
"368 481 CURVE",
"371 500 LINE",
"356 503 OFFCURVE",
"341 504 OFFCURVE",
"327 504 CURVE SMOOTH",
"224 504 OFFCURVE",
"140 414 OFFCURVE",
"124 335 CURVE"
);
},
{
closed = 1;
nodes = (
"44 0 LINE",
"67 0 LINE",
"142 379 LINE",
"166 500 LINE",
"144 500 LINE"
);
}
);
width = 353.0761;
},
{
anchors = (
{
name = bottom;
position = "{86, 11}";
},
{
name = top;
position = "{279, 490}";
}
);
hints = (
{
horizontal = 1;
place = "{0, 21}";
target = up;
type = BottomGhost;
}
);
layerId = "9CDD62D3-67F3-4AC7-B192-D539276CE01F";
paths = (
{
closed = 1;
nodes = (
"210 179 LINE",
"227 264 OFFCURVE",
"292 329 OFFCURVE",
"359 329 CURVE SMOOTH",
"370 329 OFFCURVE",
"395 329 OFFCURVE",
"412 324 CURVE",
"446 500 LINE",
"429 503 OFFCURVE",
"408 503 OFFCURVE",
"400 503 CURVE SMOOTH",
"278 502 OFFCURVE",
"175 359 OFFCURVE",
"155 261 CURVE"
);
},
{
closed = 1;
nodes = (
"-2 0 LINE",
"174 0 LINE",
"256 410 LINE",
"259 500 LINE",
"98 500 LINE"
);
}
);
width = 412.77858;
}
);
leftMetricsKey = l;
rightMetricsKey = "=l/3";
unicode = 0072;
},
{
glyphname = rcommaaccent;
lastChange = "2021-08-13 16:01:28 +0000";
layers = (
{
components = (
{
alignment = -1;
name = r;
}
);
hints = (
{
horizontal = 1;
place = "{-31, -20}";
target = down;
type = TopGhost;
},
{
horizontal = 1;
place = "{-240, 21}";
target = up;
type = BottomGhost;
}
);
layerId = "24A19461-EE5C-48C0-A968-CC082199DAC2";
paths = (
{
closed = 1;
nodes = (
"63 -31 LINE",
"44 -126 LINE",
"93 -121 LINE",
"89 -140 LINE SMOOTH",
"83 -170 OFFCURVE",
"66 -186 OFFCURVE",
"37 -186 CURVE",
"26 -240 LINE",
"100 -240 OFFCURVE",
"146 -201 OFFCURVE",
"162 -124 CURVE SMOOTH",
"167 -98 OFFCURVE",
"169 -67 OFFCURVE",
"166 -31 CURVE"
);
}
);
width = 380.65;
},
{
components = (
{
alignment = -1;
name = r;
}
);
hints = (
{
horizontal = 1;
place = "{-53, -20}";
target = down;
type = TopGhost;
},
{
horizontal = 1;
place = "{-165, 21}";
target = up;
type = BottomGhost;
}
);
layerId = "F7832249-9EF4-4513-B883-88BAA20BF268";
paths = (
{
closed = 1;
nodes = (
"52 -53 LINE",
"44 -91 LINE",
"73 -90 LINE",
"72 -97 LINE SMOOTH",
"66 -127 OFFCURVE",
"52 -146 OFFCURVE",
"22 -146 CURVE",
"19 -165 LINE",
"54 -165 OFFCURVE",
"84 -150 OFFCURVE",
"98 -83 CURVE SMOOTH",
"99 -75 OFFCURVE",
"101 -62 OFFCURVE",
"102 -53 CURVE"
);
}
);
width = 353.07936;
},
{
components = (
{
alignment = -1;
name = r;
}
);
hints = (
{
horizontal = 1;
place = "{-12, -20}";
target = down;
type = TopGhost;
},
{
horizontal = 1;
place = "{-268, 21}";
target = up;
type = BottomGhost;
}
);
layerId = "9CDD62D3-67F3-4AC7-B192-D539276CE01F";
paths = (
{
closed = 1;
nodes = (
"65 -12 LINE",
"40 -141 LINE",
"97 -130 LINE",
"94 -143 LINE SMOOTH",
"88 -175 OFFCURVE",
"69 -190 OFFCURVE",
"40 -190 CURVE",
"25 -268 LINE",
"125 -268 OFFCURVE",
"184 -209 OFFCURVE",
"201 -125 CURVE SMOOTH",
"207 -94 OFFCURVE",
"208 -56 OFFCURVE",
"202 -12 CURVE"
);
}
);
width = 412.77858;
}
);
leftMetricsKey = r;
rightMetricsKey = r;
unicode = 0157;
},
{
glyphname = s;
lastChange = "2021-08-13 16:01:28 +0000";
layers = (
{
anchors = (
{
name = bottom;
position = "{199, 5}";
},
{
name = top;
position = "{297, 504}";
}
);
hints = (
{
horizontal = 1;
place = "{-8, 96}";
type = Stem;
},
{
horizontal = 1;
place = "{413, 96}";
type = Stem;
}
);
layerId = "24A19461-EE5C-48C0-A968-CC082199DAC2";
paths = (
{
closed = 1;
nodes = (
"12 120 LINE",
"28 23 OFFCURVE",
"115 -8 OFFCURVE",
"203 -8 CURVE SMOOTH",
"322 -8 OFFCURVE",
"410 57 OFFCURVE",
"427 142 CURVE",
"445 247 OFFCURVE",
"356 273 OFFCURVE",
"280 295 CURVE SMOOTH",
"227 311 OFFCURVE",
"181 324 OFFCURVE",
"189 363 CURVE SMOOTH",
"195 393 OFFCURVE",
"225 413 OFFCURVE",
"275 413 CURVE SMOOTH",
"305 413 OFFCURVE",
"343 393 OFFCURVE",
"349 364 CURVE",
"464 403 LINE",
"444 469 OFFCURVE",
"378 509 OFFCURVE",
"298 509 CURVE SMOOTH",
"178 509 OFFCURVE",
"90 443 OFFCURVE",
"74 362 CURVE SMOOTH",
"52 255 OFFCURVE",
"145 228 OFFCURVE",
"223 206 CURVE SMOOTH",
"276 191 OFFCURVE",
"322 178 OFFCURVE",
"314 141 CURVE SMOOTH",
"308 110 OFFCURVE",
"275 88 OFFCURVE",
"220 88 CURVE SMOOTH",
"187 88 OFFCURVE",
"137 102 OFFCURVE",
"132 161 CURVE"
);
}
);
width = 486.55;
},
{
anchors = (
{
name = bottom;
position = "{189, 1}";
},
{
name = top;
position = "{288, 501}";
}
);
hints = (
{
horizontal = 1;
place = "{0, 2}";
type = Stem;
},
{
horizontal = 1;
place = "{9, 2}";
type = Stem;
}
);
layerId = "F7832249-9EF4-4513-B883-88BAA20BF268";
paths = (
{
closed = 1;
nodes = (
"23 130 LINE",
"30 25 OFFCURVE",
"100 -6 OFFCURVE",
"201 -6 CURVE SMOOTH",
"289 -6 OFFCURVE",
"378 50 OFFCURVE",
"394 126 CURVE",
"411 213 OFFCURVE",
"331 234 OFFCURVE",
"252 255 CURVE SMOOTH",
"174 276 OFFCURVE",
"97 295 OFFCURVE",
"114 382 CURVE SMOOTH",
"125 439 OFFCURVE",
"201 488 OFFCURVE",
"280 488 CURVE SMOOTH",
"335 488 OFFCURVE",
"409 474 OFFCURVE",
"418 385 CURVE",
"435 391 LINE",
"429 477 OFFCURVE",
"364 508 OFFCURVE",
"284 508 CURVE SMOOTH",
"193 508 OFFCURVE",
"106 449 OFFCURVE",
"92 382 CURVE SMOOTH",
"72 280 OFFCURVE",
"160 257 OFFCURVE",
"243 235 CURVE SMOOTH",
"317 216 OFFCURVE",
"385 198 OFFCURVE",
"371 126 CURVE SMOOTH",
"360 69 OFFCURVE",
"286 14 OFFCURVE",
"206 14 CURVE SMOOTH",
"104 14 OFFCURVE",
"48 49 OFFCURVE",
"44 137 CURVE"
);
}
);
width = 465.24319;
},
{
anchors = (
{
name = bottom;
position = "{204, 11}";
},
{
name = top;
position = "{299, 494}";
}
);
hints = (
{
horizontal = 1;
place = "{172, 129}";
type = Stem;
},
{
horizontal = 1;
place = "{292, -20}";
target = down;
type = TopGhost;
}
);
layerId = "9CDD62D3-67F3-4AC7-B192-D539276CE01F";
paths = (
{
closed = 1;
nodes = (
"1 133 LINE",
"10 37 OFFCURVE",
"94 -7 OFFCURVE",
"203 -7 CURVE SMOOTH",
"332 -7 OFFCURVE",
"424 59 OFFCURVE",
"441 146 CURVE SMOOTH",
"464 264 OFFCURVE",
"366 290 OFFCURVE",
"290 309 CURVE SMOOTH",
"250 319 OFFCURVE",
"216 326 OFFCURVE",
"220 349 CURVE",
"224 366 OFFCURVE",
"241 377 OFFCURVE",
"267 377 CURVE SMOOTH",
"286 377 OFFCURVE",
"306 364 OFFCURVE",
"311 346 CURVE",
"475 380 LINE",
"459 457 OFFCURVE",
"398 508 OFFCURVE",
"295 508 CURVE SMOOTH",
"161 508 OFFCURVE",
"72 437 OFFCURVE",
"55 349 CURVE SMOOTH",
"32 234 OFFCURVE",
"129 212 OFFCURVE",
"205 193 CURVE SMOOTH",
"246 183 OFFCURVE",
"281 176 OFFCURVE",
"276 154 CURVE",
"272 135 OFFCURVE",
"251 123 OFFCURVE",
"222 123 CURVE SMOOTH",
"194 123 OFFCURVE",
"171 134 OFFCURVE",
"168 167 CURVE"
);
}
);
width = 485.52472;
}
);
leftMetricsKey = "=l*0.5";
rightMetricsKey = "=l*0.5";
unicode = 0073;
},
{
glyphname = scommaaccent;
lastChange = "2021-08-13 16:01:28 +0000";
layers = (
{
components = (
{
alignment = -1;
name = s;
transform = "{1, 0, 0, 1, -0.004, 0}";
}
);
hints = (
{
horizontal = 1;
place = "{-126, 96}";
type = Stem;
},
{
horizontal = 1;
place = "{-240, 21}";
target = up;
type = BottomGhost;
}
);
layerId = "24A19461-EE5C-48C0-A968-CC082199DAC2";
paths = (
{
closed = 1;
nodes = (
"219 -31 LINE",
"200 -126 LINE",
"247 -126 LINE",
"244 -140 LINE SMOOTH",
"238 -170 OFFCURVE",
"222 -186 OFFCURVE",
"192 -186 CURVE",
"181 -240 LINE",
"255 -240 OFFCURVE",
"302 -201 OFFCURVE",
"317 -124 CURVE SMOOTH",
"322 -98 OFFCURVE",
"324 -67 OFFCURVE",
"322 -31 CURVE"
);
}
);
width = 486.52;
},
{
components = (
{
alignment = -1;
name = s;
}
);
hints = (
{
horizontal = 1;
place = "{-3, 2}";
type = Stem;
},
{
horizontal = 1;
place = "{-165, 21}";
target = up;
type = BottomGhost;
}
);
layerId = "F7832249-9EF4-4513-B883-88BAA20BF268";
paths = (
{
closed = 1;
nodes = (
"209 -53 LINE",
"202 -91 LINE",
"231 -90 LINE",
"229 -97 LINE SMOOTH",
"223 -127 OFFCURVE",
"209 -146 OFFCURVE",
"180 -146 CURVE",
"176 -165 LINE",
"211 -165 OFFCURVE",
"242 -150 OFFCURVE",
"255 -83 CURVE SMOOTH",
"257 -75 OFFCURVE",
"258 -62 OFFCURVE",
"259 -53 CURVE"
);
}
);
width = 465.45787;
},
{
components = (
{
alignment = -1;
name = s;
transform = "{1, 0, 0, 1, -0.002, 0}";
}
);
hints = (
{
horizontal = 1;
place = "{1, -20}";
target = down;
type = TopGhost;
},
{
horizontal = 1;
place = "{-268, 21}";
target = up;
type = BottomGhost;
}
);
layerId = "9CDD62D3-67F3-4AC7-B192-D539276CE01F";
paths = (
{
closed = 1;
nodes = (
"195 -12 LINE",
"170 -141 LINE",
"226 -132 LINE",
"224 -143 LINE SMOOTH",
"218 -175 OFFCURVE",
"199 -190 OFFCURVE",
"170 -190 CURVE",
"154 -268 LINE",
"254 -268 OFFCURVE",
"314 -209 OFFCURVE",
"330 -125 CURVE SMOOTH",
"337 -94 OFFCURVE",
"338 -56 OFFCURVE",
"332 -12 CURVE"
);
}
);
width = 485.52858;
}
);
leftMetricsKey = s;
rightMetricsKey = s;
unicode = 0219;
},
{
glyphname = germandbls;
lastChange = "2021-08-13 16:01:28 +0000";
layers = (
{
guideLines = (
{
angle = 329.98;
position = "{423.75, 328.18}";
}
);
hints = (
{
horizontal = 1;
place = "{-9, 91}";
type = Stem;
},
{
horizontal = 1;
place = "{603, 95}";
type = Stem;
},
{
horizontal = 1;
place = "{-9, 173}";
type = Stem;
}
);
layerId = "24A19461-EE5C-48C0-A968-CC082199DAC2";
paths = (
{
closed = 1;
nodes = (
"27 0 LINE",
"141 0 LINE",
"239 492 LINE SMOOTH",
"253 563 OFFCURVE",
"289 603 OFFCURVE",
"372 603 CURVE SMOOTH",
"432 603 OFFCURVE",
"466 578 OFFCURVE",
"457 532 CURVE SMOOTH",
"450 500 OFFCURVE",
"419 475 OFFCURVE",
"387 450 CURVE SMOOTH",
"348 419 OFFCURVE",
"307 387 OFFCURVE",
"297 338 CURVE SMOOTH",
"285 276 OFFCURVE",
"324 242 OFFCURVE",
"414 209 CURVE SMOOTH",
"469 190 OFFCURVE",
"483 171 OFFCURVE",
"475 135 CURVE SMOOTH",
"468 99 OFFCURVE",
"441 82 OFFCURVE",
"396 82 CURVE SMOOTH",
"345 82 OFFCURVE",
"325 114 OFFCURVE",
"333 164 CURVE",
"217 164 LINE",
"204 54 OFFCURVE",
"267 -9 OFFCURVE",
"377 -9 CURVE SMOOTH",
"495 -9 OFFCURVE",
"576 54 OFFCURVE",
"594 143 CURVE SMOOTH",
"608 217 OFFCURVE",
"580 265 OFFCURVE",
"493 297 CURVE SMOOTH",
"425 321 OFFCURVE",
"411 334 OFFCURVE",
"415 352 CURVE SMOOTH",
"418 367 OFFCURVE",
"437 381 OFFCURVE",
"461 399 CURVE SMOOTH",
"503 429 OFFCURVE",
"558 469 OFFCURVE",
"572 540 CURVE SMOOTH",
"588 619 OFFCURVE",
"533 698 OFFCURVE",
"393 698 CURVE SMOOTH",
"233 698 OFFCURVE",
"148 610 OFFCURVE",
"127 505 CURVE SMOOTH"
);
}
);
width = 660.93;
},
{
hints = (
{
horizontal = 1;
place = "{0, 2}";
type = Stem;
},
{
horizontal = 1;
place = "{13, 2}";
type = Stem;
},
{
horizontal = 1;
place = "{0, 4}";
type = Stem;
}
);
layerId = "F7832249-9EF4-4513-B883-88BAA20BF268";
paths = (
{
closed = 1;
nodes = (
"44 0 LINE",
"66 0 LINE",
"169 517 LINE SMOOTH",
"190 619 OFFCURVE",
"262 688 OFFCURVE",
"363 688 CURVE SMOOTH",
"457 688 OFFCURVE",
"503 639 OFFCURVE",
"490 572 CURVE SMOOTH",
"479 521 OFFCURVE",
"435 489 OFFCURVE",
"392 459 CURVE SMOOTH",
"349 429 OFFCURVE",
"308 399 OFFCURVE",
"298 351 CURVE SMOOTH",
"288 302 OFFCURVE",
"312 276 OFFCURVE",
"404 245 CURVE SMOOTH",
"476 220 OFFCURVE",
"505 187 OFFCURVE",
"493 129 CURVE SMOOTH",
"479 59 OFFCURVE",
"423 11 OFFCURVE",
"348 11 CURVE SMOOTH",
"264 11 OFFCURVE",
"218 67 OFFCURVE",
"226 151 CURVE",
"204 151 LINE",
"196 55 OFFCURVE",
"249 -8 OFFCURVE",
"344 -8 CURVE SMOOTH",
"434 -8 OFFCURVE",
"499 47 OFFCURVE",
"515 129 CURVE SMOOTH",
"528 194 OFFCURVE",
"501 234 OFFCURVE",
"423 261 CURVE SMOOTH",
"336 290 OFFCURVE",
"312 312 OFFCURVE",
"320 352 CURVE SMOOTH",
"328 389 OFFCURVE",
"364 415 OFFCURVE",
"404 444 CURVE SMOOTH",
"450 477 OFFCURVE",
"500 513 OFFCURVE",
"512 572 CURVE SMOOTH",
"527 652 OFFCURVE",
"474 708 OFFCURVE",
"367 708 CURVE SMOOTH",
"254 708 OFFCURVE",
"170 633 OFFCURVE",
"147 517 CURVE SMOOTH"
);
}
);
width = 595.1466;
},
{
hints = (
{
horizontal = 1;
place = "{-8, 186}";
type = Stem;
},
{
horizontal = 1;
place = "{535, 146}";
type = Stem;
}
);
layerId = "9CDD62D3-67F3-4AC7-B192-D539276CE01F";
paths = (
{
closed = 1;
nodes = (
"-2 0 LINE",
"173 0 LINE",
"264 457 LINE SMOOTH",
"274 505 OFFCURVE",
"303 535 OFFCURVE",
"356 535 CURVE SMOOTH",
"395 535 OFFCURVE",
"417 518 OFFCURVE",
"411 490 CURVE SMOOTH",
"407 467 OFFCURVE",
"385 448 OFFCURVE",
"361 427 CURVE SMOOTH",
"328 398 OFFCURVE",
"293 366 OFFCURVE",
"284 324 CURVE SMOOTH",
"273 266 OFFCURVE",
"309 234 OFFCURVE",
"404 197 CURVE SMOOTH",
"451 179 OFFCURVE",
"460 167 OFFCURVE",
"456 147 CURVE SMOOTH",
"453 130 OFFCURVE",
"439 121 OFFCURVE",
"418 121 CURVE SMOOTH",
"390 121 OFFCURVE",
"376 143 OFFCURVE",
"378 178 CURVE",
"215 178 LINE",
"209 58 OFFCURVE",
"273 -9 OFFCURVE",
"395 -9 CURVE SMOOTH",
"516 -9 OFFCURVE",
"608 58 OFFCURVE",
"628 155 CURVE SMOOTH",
"643 229 OFFCURVE",
"614 273 OFFCURVE",
"526 309 CURVE SMOOTH",
"471 331 OFFCURVE",
"463 339 OFFCURVE",
"465 349 CURVE",
"467 360 OFFCURVE",
"480 370 OFFCURVE",
"497 383 CURVE SMOOTH",
"532 413 OFFCURVE",
"578 451 OFFCURVE",
"591 513 CURVE SMOOTH",
"609 604 OFFCURVE",
"533 680 OFFCURVE",
"392 680 CURVE SMOOTH",
"233 680 OFFCURVE",
"117 595 OFFCURVE",
"91 468 CURVE SMOOTH"
);
}
);
width = 675.57;
}
);
leftMetricsKey = l;
rightMetricsKey = o;
unicode = 00DF;
},
{
glyphname = t;
lastChange = "2021-08-13 16:04:05 +0000";
layers = (
{
anchors = (
{
name = bottom;
position = "{146, 5}";
},
{
name = topright;
position = "{307, 742}";
}
);
hints = (
{
horizontal = 1;
place = "{-2, 94}";
type = Stem;
},
{
horizontal = 1;
place = "{401, 99}";
type = Stem;
},
{
horizontal = 1;
place = "{401, 221}";
type = Stem;
}
);
layerId = "24A19461-EE5C-48C0-A968-CC082199DAC2";
paths = (
{
closed = 1;
nodes = (
"84 501 LINE",
"65 401 LINE",
"134 401 LINE",
"90 177 LINE SMOOTH",
"63 42 OFFCURVE",
"139 -2 OFFCURVE",
"230 -2 CURVE SMOOTH",
"248 -2 OFFCURVE",
"268 0 OFFCURVE",
"289 4 CURVE",
"308 96 LINE",
"291 94 OFFCURVE",
"277 93 OFFCURVE",
"266 93 CURVE SMOOTH",
"215 93 OFFCURVE",
"192 113 OFFCURVE",
"205 177 CURVE SMOOTH",
"249 401 LINE",
"369 401 LINE",
"388 501 LINE",
"269 501 LINE",
"293 623 LINE",
"188 623 LINE",
"174 554 LINE SMOOTH",
"168 523 OFFCURVE",
"142 501 OFFCURVE",
"111 501 CURVE SMOOTH"
);
}
);
width = 372.86;
},
{
anchors = (
{
name = bottom;
position = "{121, 1}";
},
{
name = topright;
position = "{239, 674}";
}
);
hints = (
{
horizontal = 1;
place = "{0, 2}";
type = Stem;
},
{
horizontal = 1;
place = "{9, 2}";
type = Stem;
},
{
horizontal = 1;
place = "{9, 5}";
type = Stem;
}
);
layerId = "F7832249-9EF4-4513-B883-88BAA20BF268";
paths = (
{
closed = 1;
nodes = (
"92 500 LINE",
"88 480 LINE",
"169 480 LINE",
"101 134 LINE SMOOTH",
"84 53 OFFCURVE",
"137 -2 OFFCURVE",
"210 -2 CURVE SMOOTH",
"223 -2 OFFCURVE",
"237 0 OFFCURVE",
"252 3 CURVE",
"255 21 LINE",
"243 18 OFFCURVE",
"231 17 OFFCURVE",
"220 17 CURVE SMOOTH",
"151 17 OFFCURVE",
"110 67 OFFCURVE",
"123 134 CURVE SMOOTH",
"192 480 LINE",
"347 480 LINE",
"350 500 LINE",
"196 500 LINE",
"220 623 LINE",
"198 623 LINE",
"179 530 LINE SMOOTH",
"176 512 OFFCURVE",
"165 501 OFFCURVE",
"147 501 CURVE SMOOTH"
);
}
);
width = 343.09702;
},
{
anchors = (
{
name = bottom;
position = "{163, 11}";
},
{
name = topright;
position = "{348, 776}";
}
);
hints = (
{
horizontal = 1;
place = "{352, 200}";
type = Stem;
},
{
horizontal = 1;
place = "{-2, 21}";
target = up;
type = BottomGhost;
},
{
horizontal = 1;
place = "{359, -20}";
target = down;
type = TopGhost;
}
);
layerId = "9CDD62D3-67F3-4AC7-B192-D539276CE01F";
paths = (
{
closed = 1;
nodes = (
"72 501 LINE",
"42 352 LINE",
"114 352 LINE",
"83 198 LINE SMOOTH",
"53 48 OFFCURVE",
"139 -2 OFFCURVE",
"242 -2 CURVE SMOOTH",
"263 -2 OFFCURVE",
"288 1 OFFCURVE",
"317 6 CURVE",
"345 148 LINE",
"327 144 OFFCURVE",
"311 143 OFFCURVE",
"302 144 CURVE SMOOTH",
"270 145 OFFCURVE",
"252 157 OFFCURVE",
"259 196 CURVE SMOOTH",
"290 352 LINE",
"385 352 LINE",
"415 501 LINE",
"320 501 LINE",
"344 623 LINE",
"178 623 LINE",
"165 556 LINE SMOOTH",
"158 523 OFFCURVE",
"132 501 OFFCURVE",
"100 501 CURVE SMOOTH"
);
}
);
width = 387.3734;
}
);
leftMetricsKey = f;
rightMetricsKey = f;
unicode = 0074;
},
{
glyphname = tcaron;
lastChange = "2021-08-13 16:04:32 +0000";
layers = (
{
components = (
{
alignment = -1;
name = t;
}
);
hints = (
{
horizontal = 1;
place = "{525, 183}";
type = Stem;
}
);
layerId = "24A19461-EE5C-48C0-A968-CC082199DAC2";
paths = (
{
closed = 1;
nodes = (
"397 708 LINE",
"378 611 LINE",
"426 617 LINE",
"423 603 LINE SMOOTH",
"420 586 OFFCURVE",
"404 580 OFFCURVE",
"375 580 CURVE",
"364 525 LINE",
"438 525 OFFCURVE",
"483 556 OFFCURVE",
"497 623 CURVE SMOOTH",
"502 650 OFFCURVE",
"502 672 OFFCURVE",
"500 708 CURVE"
);
}
);
width = 456.91;
},
{
components = (
{
alignment = -1;
name = t;
}
);
hints = (
{
horizontal = 1;
place = "{11, 4}";
type = Stem;
}
);
layerId = "F7832249-9EF4-4513-B883-88BAA20BF268";
paths = (
{
closed = 1;
nodes = (
"325 687 LINE",
"315 636 LINE",
"350 636 LINE",
"345 610 LINE SMOOTH",
"340 584 OFFCURVE",
"328 569 OFFCURVE",
"295 569 CURVE",
"291 549 LINE",
"330 549 OFFCURVE",
"359 563 OFFCURVE",
"371 622 CURVE SMOOTH",
"374 639 OFFCURVE",
"377 660 OFFCURVE",
"380 687 CURVE"
);
}
);
width = 343.10191;
},
{
components = (
{
alignment = -1;
name = t;
}
);
hints = (
{
horizontal = 1;
place = "{445, -20}";
target = down;
type = TopGhost;
},
{
horizontal = 1;
place = "{292, 21}";
target = up;
type = BottomGhost;
}
);
layerId = "9CDD62D3-67F3-4AC7-B192-D539276CE01F";
paths = (
{
closed = 1;
nodes = (
"419 745 LINE",
"394 617 LINE",
"450 628 LINE",
"448 614 LINE SMOOTH",
"445 600 OFFCURVE",
"428 594 OFFCURVE",
"399 594 CURVE",
"383 515 LINE",
"484 515 OFFCURVE",
"541 565 OFFCURVE",
"557 641 CURVE SMOOTH",
"563 673 OFFCURVE",
"562 702 OFFCURVE",
"556 745 CURVE"
);
}
);
width = 501.06811;
}
);
leftMetricsKey = t;
rightMetricsKey = t;
unicode = 0165;
},
{
glyphname = tcedilla;
lastChange = "2021-08-13 16:04:32 +0000";
layers = (
{
hints = (
{
horizontal = 1;
place = "{-233, 74}";
type = Stem;
},
{
horizontal = 1;
place = "{0, 95}";
type = Stem;
},
{
horizontal = 1;
place = "{408, 93}";
type = Stem;
},
{
horizontal = 1;
place = "{408, 215}";
type = Stem;
},
{
horizontal = 1;
place = "{-233, 201}";
type = Stem;
}
);
layerId = "24A19461-EE5C-48C0-A968-CC082199DAC2";
paths = (
{
closed = 1;
nodes = (
"71 141 LINE SMOOTH",
"50 38 OFFCURVE",
"99 0 OFFCURVE",
"190 0 CURVE SMOOTH",
"277 0 LINE",
"296 95 LINE",
"227 95 LINE SMOOTH",
"189 95 OFFCURVE",
"179 108 OFFCURVE",
"186 141 CURVE SMOOTH",
"281 623 LINE",
"166 623 LINE"
);
},
{
closed = 1;
nodes = (
"358 408 LINE",
"376 501 LINE",
"84 501 LINE",
"66 408 LINE"
);
},
{
closed = 1;
nodes = (
"188 64 LINE",
"109 64 LINE",
"75 -103 LINE",
"131 -103 LINE SMOOTH",
"158 -103 OFFCURVE",
"173 -109 OFFCURVE",
"169 -131 CURVE SMOOTH",
"164 -154 OFFCURVE",
"147 -159 OFFCURVE",
"120 -159 CURVE SMOOTH",
"16 -159 LINE",
"2 -233 LINE",
"125 -233 LINE SMOOTH",
"192 -233 OFFCURVE",
"252 -195 OFFCURVE",
"265 -131 CURVE SMOOTH",
"278 -67 OFFCURVE",
"231 -33 OFFCURVE",
"163 -32 CURVE",
"169 -32 LINE"
);
}
);
width = 375.09;
},
{
hints = (
{
horizontal = 1;
place = "{-235, 21}";
type = Stem;
},
{
horizontal = 1;
place = "{-97, 118}";
type = Stem;
},
{
horizontal = 1;
place = "{9, 22}";
type = Stem;
},
{
horizontal = 1;
place = "{479, 24}";
type = Stem;
},
{
horizontal = 1;
place = "{-235, 156}";
type = Stem;
}
);
layerId = "F7832249-9EF4-4513-B883-88BAA20BF268";
paths = (
{
closed = 1;
nodes = (
"100 132 LINE SMOOTH",
"80 35 OFFCURVE",
"110 0 OFFCURVE",
"196 0 CURVE SMOOTH",
"252 0 LINE",
"257 22 LINE",
"203 22 LINE SMOOTH",
"128 22 OFFCURVE",
"104 44 OFFCURVE",
"122 132 CURVE SMOOTH",
"221 629 LINE",
"199 629 LINE"
);
},
{
closed = 1;
nodes = (
"348 480 LINE",
"352 501 LINE",
"92 501 LINE",
"88 480 LINE"
);
},
{
closed = 1;
nodes = (
"184 9 LINE",
"163 9 LINE",
"141 -99 LINE",
"177 -99 LINE SMOOTH",
"237 -99 OFFCURVE",
"252 -124 OFFCURVE",
"246 -154 CURVE SMOOTH",
"239 -190 OFFCURVE",
"214 -214 OFFCURVE",
"154 -214 CURVE SMOOTH",
"96 -214 LINE",
"92 -235 LINE",
"153 -235 LINE SMOOTH",
"218 -235 OFFCURVE",
"259 -201 OFFCURVE",
"268 -154 CURVE SMOOTH",
"277 -107 OFFCURVE",
"248 -79 OFFCURVE",
"181 -79 CURVE",
"166 -81 LINE"
);
}
);
width = 390.21809;
},
{
hints = (
{
horizontal = 1;
place = "{43, 111}";
type = Stem;
},
{
horizontal = 1;
place = "{355, 198}";
type = Stem;
},
{
horizontal = 1;
place = "{354, -20}";
target = down;
type = TopGhost;
}
);
layerId = "9CDD62D3-67F3-4AC7-B192-D539276CE01F";
paths = (
{
closed = 1;
nodes = (
"66.6 180 LINE SMOOTH",
"39.6 45 OFFCURVE",
"107.6 0 OFFCURVE",
"215.6 0 CURVE SMOOTH",
"302.6 0 LINE",
"332.6 149 LINE",
"267.6 149 LINE SMOOTH",
"244.6 149 OFFCURVE",
"238.6 157 OFFCURVE",
"242.6 178 CURVE SMOOTH",
"329.6 618 LINE",
"153.6 618 LINE"
);
},
{
closed = 1;
nodes = (
"372.6 355 LINE",
"401.6 501 LINE",
"72.6 501 LINE",
"42.6 355 LINE"
);
},
{
closed = 1;
nodes = (
"236.6 96 LINE",
"119.6 96 LINE",
"79.6 -105 LINE",
"154.6 -105 LINE SMOOTH",
"180.6 -105 OFFCURVE",
"195.6 -106 OFFCURVE",
"194.6 -115 CURVE",
"192.6 -124 OFFCURVE",
"176.6 -126 OFFCURVE",
"150.6 -126 CURVE SMOOTH",
"24.6 -126 LINE",
"3.6 -229 LINE",
"149.6 -229 LINE SMOOTH",
"214.6 -229 OFFCURVE",
"289.6 -198 OFFCURVE",
"304.6 -118 CURVE SMOOTH",
"320.6 -39 OFFCURVE",
"251.6 -9 OFFCURVE",
"191.6 -9 CURVE",
"213.6 -18 LINE"
);
}
);
width = 399.9634;
}
);
leftMetricsKey = t;
rightMetricsKey = t;
unicode = 0163;
},
{
glyphname = tcommaaccent;
lastChange = "2021-08-13 16:04:32 +0000";
layers = (
{
components = (
{
alignment = -1;
name = t;
}
);
hints = (
{
horizontal = 1;
place = "{-126, 96}";
type = Stem;
},
{
horizontal = 1;
place = "{-240, 21}";
target = up;
type = BottomGhost;
}
);
layerId = "24A19461-EE5C-48C0-A968-CC082199DAC2";
paths = (
{
closed = 1;
nodes = (
"117 -31 LINE",
"98 -126 LINE",
"146 -126 LINE",
"143 -140 LINE SMOOTH",
"137 -170 OFFCURVE",
"120 -186 OFFCURVE",
"90 -186 CURVE",
"79 -240 LINE",
"154 -240 OFFCURVE",
"200 -201 OFFCURVE",
"215 -124 CURVE SMOOTH",
"221 -98 OFFCURVE",
"223 -67 OFFCURVE",
"220 -31 CURVE"
);
}
);
width = 373;
},
{
components = (
{
alignment = -1;
name = t;
}
);
hints = (
{
horizontal = 1;
place = "{-3, 2}";
type = Stem;
},
{
horizontal = 1;
place = "{-165, 21}";
target = up;
type = BottomGhost;
}
);
layerId = "F7832249-9EF4-4513-B883-88BAA20BF268";
paths = (
{
closed = 1;
nodes = (
"153 -53 LINE",
"145 -91 LINE",
"174 -91 LINE",
"173 -97 LINE SMOOTH",
"167 -127 OFFCURVE",
"153 -146 OFFCURVE",
"123 -146 CURVE",
"119 -165 LINE",
"155 -165 OFFCURVE",
"185 -150 OFFCURVE",
"198 -83 CURVE SMOOTH",
"200 -75 OFFCURVE",
"202 -62 OFFCURVE",
"202 -53 CURVE"
);
}
);
width = 343.2566;
},
{
components = (
{
alignment = -1;
name = t;
}
);
hints = (
{
horizontal = 1;
place = "{1, -20}";
target = down;
type = TopGhost;
},
{
horizontal = 1;
place = "{-268, 21}";
target = up;
type = BottomGhost;
}
);
layerId = "9CDD62D3-67F3-4AC7-B192-D539276CE01F";
paths = (
{
closed = 1;
nodes = (
"121 -12 LINE",
"95 -141 LINE",
"151 -132 LINE",
"149 -143 LINE SMOOTH",
"143 -175 OFFCURVE",
"125 -190 OFFCURVE",
"95 -190 CURVE",
"79 -268 LINE",
"181 -268 OFFCURVE",
"239 -209 OFFCURVE",
"256 -125 CURVE SMOOTH",
"262 -94 OFFCURVE",
"263 -56 OFFCURVE",
"257 -12 CURVE"
);
}
);
width = 387.43283;
}
);
leftMetricsKey = t;
rightMetricsKey = t;
unicode = 021B;
},
